<svg width="1440" height="2469" viewBox="0 0 1440 2469" fill="none" xmlns="http://www.w3.org/2000/svg">
<rect width="1440" height="2469" fill="white"/>
<g clip-path="url(#clip0_42_12)">
<rect width="1440" height="2469" fill="white"/>
<rect width="1440" height="2469" fill="url(#paint0_radial_42_12)" fill-opacity="0.5"/>
<rect width="1440" height="2469" fill="#96C93D" fill-opacity="0.2"/>
<rect width="1440" height="2469" fill="url(#paint1_radial_42_12)" fill-opacity="0.6"/>
<rect width="1440" height="2469" fill="url(#paint2_radial_42_12)" fill-opacity="0.5"/>
<path d="M978.931 276.342L996.261 255.92L1027.53 219.314L1157.5 65.5689" stroke="#EF0977" stroke-opacity="0.8" stroke-width="0.96" stroke-miterlimit="10" stroke-linecap="round" stroke-linejoin="round"/>
<path d="M-301.182 1810.33L523.093 811.56L532.888 799.615L603.713 713.687L607.103 709.449L625.186 687.871L645.153 663.21L674.537 627.76L691.113 608.493L700.154 598.09L748.375 541.832L775.5 510.621L822.213 455.904L859.509 412.362L896.052 369.977L906.223 358.031L925.813 336.453L939.375 321.425" stroke="#EF0977" stroke-opacity="0.8" stroke-width="0.96" stroke-miterlimit="10" stroke-linecap="round" stroke-linejoin="round"/>
<path d="M532.135 294.067L523.093 304.471L468.091 369.976L439.084 404.27L409.322 439.72L396.137 455.904L355.074 505.996L325.689 541.832L291.784 583.062L271.064 608.493L254.865 627.76L186.678 709.449L183.287 713.687L178.013 720.238" stroke="#EF0977" stroke-opacity="0.8" stroke-width="0.96" stroke-miterlimit="10" stroke-linecap="round" stroke-linejoin="round"/>
<path d="M181.027 992.278L155.41 971.856L121.504 944.498L102.668 929.47L48.0428 885.928L43.5221 882.075" stroke="#EF0977" stroke-opacity="0.8" stroke-width="0.96" stroke-miterlimit="10" stroke-linecap="round" stroke-linejoin="round"/>
<path d="M44.6522 607.337L27.3228 627.76L18.6581 638.164L-44.255 713.687L-65.3517 738.734L-85.6948 763.009" stroke="#EF0977" stroke-opacity="0.8" stroke-width="0.96" stroke-miterlimit="10" stroke-linecap="round" stroke-linejoin="round"/>
<path d="M178.013 720.238L112.463 799.615L102.668 811.56L58.9678 864.35L43.522 882.075L40.5082 885.928L18.6581 912.131L-31.0696 971.856L-65.3516 1013.09L-66.4818 1014.63L-102.271 1057.78L-149.361 1114.43L-173.849 1143.71L-193.815 1167.99" stroke="#EF0977" stroke-opacity="0.8" stroke-width="0.96" stroke-miterlimit="10" stroke-linecap="round" stroke-linejoin="round"/>
<path d="M-267.276 1105.56L-233.371 1065.49L-226.967 1057.78L-154.259 971.856L-149.361 966.076L-81.5508 885.928L-76.2767 879.378L-65.3516 866.662L-8.08937 799.615L18.6581 768.018L64.9954 713.687L102.668 669.76L109.449 662.054" stroke="#EF0977" stroke-opacity="0.8" stroke-width="0.96" stroke-miterlimit="10" stroke-linecap="round" stroke-linejoin="round"/>
<path d="M391.993 170.763L369.389 198.121L355.074 215.846L299.318 284.049L271.064 318.728L268.05 322.196L228.871 369.977L186.678 420.84L158.046 455.904L153.902 460.914L102.668 519.869L83.8315 541.832L34.4805 598.86" stroke="#EF0977" stroke-opacity="0.8" stroke-width="0.96" stroke-miterlimit="10" stroke-linecap="round" stroke-linejoin="round"/>
<path d="M-35.2136 539.906L18.6581 476.327L21.2952 473.244L35.9875 455.904L81.5713 401.959L102.668 376.913L108.695 369.977L181.403 284.049L186.678 277.498L199.863 262.085L253.735 198.121L258.255 192.727L271.064 177.699L326.066 112.579" stroke="#EF0977" stroke-opacity="0.8" stroke-width="0.96" stroke-miterlimit="10" stroke-linecap="round" stroke-linejoin="round"/>
<path d="M422.885 702.128L365.246 649.723L355.074 640.476L341.135 627.76L291.784 583.062L271.064 564.181L245.447 541.832L224.35 522.951L186.678 489.813L153.903 460.914L147.875 455.904L102.668 419.298L81.5713 401.959L42.3918 369.977L18.6581 350.71L7.73308 341.848L-58.9473 284.049L-62.3379 280.966L-65.3517 278.269L-127.135 218.929L-149.361 201.204L-153.882 198.121L-203.61 158.433L-233.371 132.616L-257.105 111.808H-257.482" stroke="#EF0977" stroke-opacity="0.8" stroke-width="0.96" stroke-miterlimit="10" stroke-linecap="round" stroke-linejoin="round"/>
<path d="M446.618 101.404L439.084 110.652L437.954 111.808L391.993 170.763" stroke="#EF0977" stroke-opacity="0.8" stroke-width="0.96" stroke-miterlimit="10" stroke-linecap="round" stroke-linejoin="round"/>
<path d="M463.571 233.956L439.084 263.241L422.131 284.049L355.074 365.353L351.307 369.977L340.758 382.307L301.956 425.078L281.612 450.124L277.468 455.904L271.064 464.767L262.399 476.712L224.35 522.951L208.528 541.832L186.678 568.034L137.703 627.76L109.449 662.054" stroke="#EF0977" stroke-opacity="0.8" stroke-width="0.96" stroke-miterlimit="10" stroke-linecap="round" stroke-linejoin="round"/>
<path d="M642.139 391.169L659.091 369.976L691.113 330.673L721.628 293.682L709.573 284.049L691.113 269.021L657.961 242.048L607.857 198.892L607.103 198.121L523.093 120.67L513.675 111.808L501.243 100.634" stroke="#EF0977" stroke-opacity="0.8" stroke-width="0.96" stroke-miterlimit="10" stroke-linecap="round" stroke-linejoin="round"/>
<path d="M610.494 224.323L627.823 225.479L644.022 231.644L657.961 242.048L669.263 259.003L674.537 279.039L674.16 284.049L673.03 299.847L664.366 318.343L650.05 333.37L631.967 342.233L611.624 344.545L607.103 343.389L592.034 339.536L575.082 327.976L564.91 314.489L558.506 299.076L556.999 284.049V282.122L559.636 265.553L567.17 250.14L578.849 237.424L593.918 228.562L607.103 225.479L610.494 224.323Z" stroke="#EF0977" stroke-opacity="0.8" stroke-width="0.96" stroke-miterlimit="10" stroke-linecap="round" stroke-linejoin="round"/>
<path d="M-294.401 1755.99V1745.59L-295.531 1659.66L-295.908 1639.24L-240.529 1573.74L-233.371 1565.26L-168.198 1487.42L-149.361 1465.46L-95.8664 1401.49L-65.3516 1365.66L-23.1584 1315.57L-22.0282 1314.41L18.6581 1265.09L48.0427 1229.64L102.668 1163.36L118.867 1143.71L186.678 1061.64L190.068 1057.78L261.269 971.856L271.064 959.911L332.47 885.928L355.074 858.185L403.295 799.615L439.084 756.844L474.496 713.687L523.094 655.118L545.697 627.76L607.103 553.392L616.898 541.832L687.723 455.904L691.113 451.666L758.924 369.977L775.5 349.94L778.89 345.701L790.569 343.774L827.111 335.683L844.44 341.848L859.509 351.866L859.886 352.252L864.407 369.977L864.783 371.518L859.509 377.683L793.959 455.904L775.5 478.253L722.005 541.832L691.113 578.823L650.05 627.76L607.103 679.008L578.095 713.687L523.094 779.578L506.141 799.615L439.084 880.148L434.186 885.928L362.232 971.856L355.074 980.333L290.277 1057.78L271.064 1080.9L218.323 1143.71L186.678 1181.47L146.368 1229.64L102.668 1281.66L74.4135 1315.57L18.6581 1382.23L2.45895 1401.49L-65.3516 1482.41L-69.4956 1487.42L-141.45 1573.74L-149.361 1582.98L-213.405 1659.66L-233.371 1683.55L-285.359 1745.59L-294.401 1755.99Z" stroke="#EF0977" stroke-opacity="0.8" stroke-width="0.96" stroke-miterlimit="10" stroke-linecap="round" stroke-linejoin="round"/>
<path d="M605.22 358.802L595.801 369.977L549.841 424.693L524.6 455.905L523.093 457.446L483.914 505.997L454.153 541.832L439.084 560.328L383.328 627.76L365.246 649.724L355.074 661.669L310.997 713.688L304.969 721.009L271.064 763.395L254.112 784.202L240.549 799.615L198.356 848.937L186.678 863.58L168.972 885.928L121.504 944.498" stroke="#EF0977" stroke-opacity="0.8" stroke-width="0.96" stroke-miterlimit="10" stroke-linecap="round" stroke-linejoin="round"/>
<path d="M542.683 559.172L523.47 541.832L523.094 541.447L483.914 505.997L439.084 466.308L427.405 455.904L409.322 439.721L355.074 394.252L340.758 382.307L326.066 369.977L271.064 324.123L268.05 322.196L224.727 284.049L199.863 262.085L186.678 250.911L126.025 198.121L123.765 195.809L102.668 177.313L57.4609 138.01L27.6996 111.808L22.8021 107.569" stroke="#EF0977" stroke-opacity="0.8" stroke-width="0.96" stroke-miterlimit="10" stroke-linecap="round" stroke-linejoin="round"/>
<path d="M-177.993 418.913L-149.361 385.775L-135.799 369.976L-116.963 348.013L-65.3516 284.434L-64.9749 284.049L-62.3378 280.966L6.97964 198.121L18.6581 184.249L57.4608 138.01L78.9342 111.808L83.4549 106.799" stroke="#EF0977" stroke-opacity="0.8" stroke-width="0.96" stroke-miterlimit="10" stroke-linecap="round" stroke-linejoin="round"/>
<path d="M607.857 198.892L607.103 200.048L567.17 250.14L540.046 284.049L532.135 294.067" stroke="#EF0977" stroke-opacity="0.8" stroke-width="0.96" stroke-miterlimit="10" stroke-linecap="round" stroke-linejoin="round"/>
<path d="M-170.458 2142.86L-168.574 2137.08L-166.691 2131.3L-164.807 2125.52L-163.677 2122.82L-162.547 2120.13L-161.417 2117.82L-160.286 2115.12L-159.156 2112.81L-157.649 2110.49L-156.519 2108.18L-155.012 2106.26L-153.505 2104.33L-151.998 2102.4L-150.492 2100.86L-148.608 2099.32L-146.724 2097.78L-144.841 2096.62L-142.957 2095.85L-140.697 2095.08L-138.436 2094.31L-136.176 2093.54L-133.916 2093.15L-131.655 2092.77L-129.018 2092.38H-126.758H-124.121H-121.484H-118.847L-115.833 2092.77H-113.196L-110.182 2093.15L-104.531 2093.93L-98.5034 2094.7L-92.8526 2095.85L-80.4206 2097.78L-74.393 2098.93L-67.9887 2099.71L-61.9611 2100.09L-55.9335 2100.86H-49.9059L-43.8783 2101.25H-37.8507L-32.1998 2101.63H-26.5489L-20.898 2102.02L-15.6239 2102.4L-12.9868 2102.79L-10.3497 2103.17L-7.71262 2103.56L-5.07554 2103.94L-2.81519 2104.33L-0.178111 2105.1L2.08224 2105.49L4.34259 2106.26L6.97967 2107.41L8.8633 2108.18L11.1237 2109.34L13.384 2110.49L15.2676 2111.65L17.528 2113.19L19.4116 2114.73L21.2952 2116.27L23.1789 2118.2L24.6858 2120.13L26.5694 2122.05L28.0763 2124.37L29.5832 2126.68L31.4668 2128.6L32.9737 2131.3L34.4806 2133.61L37.1177 2138.62L40.1315 2143.63L42.7686 2148.64L45.4057 2154.04L48.0427 2159.05L50.3031 2164.44L52.5634 2169.83L54.8238 2175.23L56.3307 2180.62L58.2143 2186.02L58.9678 2188.72L59.7212 2191.41L60.098 2194.11L60.8514 2196.81L61.2281 2199.5L61.6049 2202.2L61.9816 2204.9V2207.6L62.3583 2210.29V2212.99V2215.69V2218L61.9816 2220.7L61.6049 2223.4L61.2281 2226.09L60.8514 2228.79L60.098 2231.1L59.3445 2233.8L58.5911 2236.5L57.8376 2239.19L56.7074 2241.51L55.954 2244.2L54.8238 2246.51L53.3169 2248.83L52.1867 2251.52L50.6798 2253.84L49.1729 2256.15L47.666 2258.46L46.1591 2260.77L44.2755 2263.08L42.3919 2265.01L40.885 2267.32L39.0013 2269.63L36.741 2271.56L34.8574 2273.49L32.597 2275.41L30.7134 2277.34L28.453 2279.27L26.1927 2280.81L23.9323 2282.74L21.672 2284.28L19.4116 2285.82L16.7745 2287.36L14.5142 2288.9L11.8771 2290.06L9.61675 2291.6L6.97967 2292.75L4.34259 2293.91L1.70552 2295.07L-0.931562 2295.84L-3.56864 2296.99L-6.20572 2297.76L-8.8428 2298.53L-11.8566 2299.3L-14.4937 2300.07L-17.1308 2300.46L-20.1446 2301.23L-22.7816 2301.62L-25.7954 2302L-28.4325 2302.39H-31.4463L-34.0834 2302.77H-37.0972H-40.111H-42.7481H-45.7619L-48.399 2302.39L-51.4128 2302L-54.4266 2301.62L-57.0637 2301.23L-60.0775 2300.85L-63.0913 2300.46L-65.7283 2299.69L-68.7421 2298.92L-71.3792 2298.15L-74.393 2297.38L-77.0301 2296.22L-80.0439 2295.45L-82.681 2294.3L-85.3181 2293.14L-88.3319 2291.98L-90.9689 2290.44L-93.606 2289.29L-96.2431 2287.74L-98.8802 2286.2L-101.517 2284.66L-104.154 2282.74L-106.791 2281.19L-109.052 2279.27L-111.689 2277.34L-113.949 2275.41L-116.586 2273.49L-118.847 2271.18L-121.107 2268.86L-123.367 2266.94L-125.628 2264.24L-127.888 2261.93L-130.148 2259.62L-132.409 2256.92L-134.292 2254.22L-136.176 2251.52L-138.436 2248.44L-140.32 2245.74L-142.204 2242.66L-143.711 2239.58L-145.594 2236.5L-147.101 2233.41L-148.985 2229.95L-150.492 2226.86L-151.998 2223.4L-153.129 2219.93L-154.636 2216.07L-156.142 2212.61L-157.273 2209.14L-158.403 2205.28L-159.533 2201.82L-160.663 2198.35L-161.417 2194.5L-162.547 2191.03L-163.3 2187.56L-164.054 2184.09L-164.807 2180.62L-165.561 2177.16L-166.314 2174.07L-167.067 2170.99L-167.444 2167.91L-168.198 2164.83L-168.574 2162.13L-168.951 2159.43L-169.328 2157.12L-169.705 2154.81L-170.081 2152.5V2151.72V2150.57V2149.8L-170.458 2149.03V2147.87V2147.1V2146.72V2145.94V2145.56V2144.79V2144.4V2144.02V2143.63V2143.25V2142.86ZM-170.458 2142.86L-170.081 2143.25V2143.63L-169.705 2144.02V2144.79L-169.328 2145.56" stroke="#EF0977" stroke-opacity="0.8" stroke-width="0.96" stroke-miterlimit="10" stroke-linecap="round" stroke-linejoin="round"/>
<path d="M18.6582 1455.06L22.0487 1470.85L25.0625 1486.27L27.6996 1501.68L28.8298 1509.39L29.96 1517.09L31.0902 1524.8L31.8436 1532.51L32.5971 1540.21L32.9738 1547.92V1555.24V1562.95L32.5971 1570.27L31.8436 1577.59L31.0902 1584.91L29.96 1592.23L28.4531 1599.55L26.5694 1606.49L24.3091 1613.81L22.8022 1617.28L21.672 1620.75L20.1651 1624.21L18.6582 1627.68L14.891 1634.23L11.1237 1641.17L7.35645 1647.72L-0.931508 1661.2L-5.07549 1667.76L-9.21947 1674.31L-12.61 1681.24L-14.4936 1684.32L-16.0005 1687.79L-17.5074 1691.26L-18.6376 1694.34L-20.1445 1697.81L-20.898 1701.28L-22.0281 1704.75L-22.7816 1707.83L-23.1583 1711.3L-23.535 1714.76V1718.23V1721.7L-23.1583 1725.17L-22.7816 1728.64L-22.0281 1732.1L-21.2747 1735.57L-20.1445 1739.04L-19.0143 1742.89L-17.8842 1746.36L-16.3773 1749.83L-14.8703 1753.3L-12.9867 1756.77L-11.4798 1759.85L-9.21947 1763.32L-7.33584 1766.78L-5.07549 1770.25L-2.81514 1773.33L-0.554783 1776.8L4.71937 1783.35L9.99353 1789.52L15.6444 1795.68L21.2953 1801.46L27.3229 1807.24L33.3505 1812.64L39.3781 1818.03L45.4057 1823.04L51.8101 1828.44L57.8377 1833.45L63.4885 1838.45L69.1394 1843.08L74.7903 1848.09L80.0645 1853.1L84.9619 1858.49L87.2222 1861.19L89.4826 1863.5L91.7429 1866.2L93.6266 1868.9L95.5102 1871.98L97.3938 1874.68L99.2775 1877.37L100.784 1880.46L101.915 1883.54L103.421 1886.23L104.552 1889.32L105.305 1892.79L106.435 1895.87L107.189 1899.34L107.565 1902.42L108.319 1905.89L108.696 1909.35L109.072 1912.82V1916.29V1920.14V1927.08V1934.79L108.319 1942.11L107.565 1949.81L106.812 1957.91L105.682 1965.61L103.798 1981.41L101.915 1997.59L101.161 2005.3L100.408 2013.39L100.031 2021.1V2028.81V2036.51L100.408 2040.37L100.784 2044.22L101.161 2048.07L101.915 2051.93L102.668 2055.39L103.421 2059.25L104.175 2062.71L105.305 2066.18L106.435 2070.04L107.565 2073.5L109.072 2076.97L110.579 2080.44L113.593 2086.99L116.984 2093.93L120.751 2100.48L124.895 2107.03L129.039 2113.58L133.183 2120.13L137.703 2126.29L146.745 2139.01L155.41 2151.72L159.554 2158.28L163.698 2164.83L167.841 2171.38L171.232 2177.93L174.623 2184.48L178.013 2191.03L179.143 2194.5L180.65 2197.96L181.78 2201.43L182.911 2204.9L183.664 2208.37L184.794 2211.84L185.171 2215.3L185.924 2219.16L186.301 2222.62L186.678 2226.48L187.054 2230.33V2233.8L186.678 2237.65V2241.51L185.924 2249.21L184.041 2265.01L183.287 2272.72L182.534 2280.42V2284.28L182.157 2288.13V2291.6L182.534 2295.45L182.911 2298.92L183.287 2302.77L184.041 2306.24L184.794 2309.71L185.924 2312.79L187.431 2316.26L188.938 2319.34L190.822 2322.42L193.082 2325.51L195.342 2328.59L197.98 2331.67L200.617 2334.37L203.254 2337.07L206.267 2340.15L209.281 2342.85L212.295 2345.54L218.699 2350.55L225.48 2355.56L232.262 2360.57L239.043 2365.58L245.447 2370.59L248.461 2372.9L251.098 2375.21L254.112 2377.91L256.749 2380.22L259.386 2382.92L261.646 2385.23L263.906 2387.93L265.79 2390.24L267.297 2392.94L268.804 2395.64L269.934 2397.95L271.064 2400.65L271.441 2403.73L271.818 2406.43V2409.12L271.441 2412.21L271.064 2414.9L270.311 2417.98L269.181 2420.68L268.05 2423.76L266.544 2426.46L264.66 2429.54L262.776 2432.63L260.893 2435.32L258.256 2438.41L255.995 2441.49L253.358 2444.19L250.344 2447.27L247.331 2449.97L244.317 2452.66L240.926 2455.36L237.536 2458.44L233.768 2461.14L230.001 2463.45L226.234 2466.15L222.467 2468.85L218.323 2471.16L214.555 2473.47L210.411 2475.78L205.891 2478.1L201.747 2480.02L197.603 2482.33L193.082 2484.26L188.938 2486.19L184.417 2487.73L179.897 2489.66L175.753 2490.81L171.232 2492.35L166.711 2493.51L162.567 2494.66L158.423 2495.82L153.903 2496.59L149.759 2497.36L145.615 2497.75L141.847 2498.13L137.703 2498.52H133.936H130.169L126.778 2498.13L123.011 2497.36L119.997 2496.59L116.607 2495.82L113.593 2494.66L110.956 2493.12L108.319 2491.58L105.682 2489.66L103.421 2487.73L101.538 2485.42L99.6542 2482.72L98.1473 2480.02L96.6404 2476.94L95.5102 2473.86L94.38 2470.39L93.6266 2466.92L93.2499 2463.07L92.4964 2459.6V2455.36L92.1197 2451.51L92.4964 2447.66V2443.42L92.8731 2439.18L93.6266 2434.94L94.0033 2430.7L94.7568 2426.46L95.8869 2422.22L97.0171 2417.98L98.1473 2414.13L99.2775 2409.89L100.784 2406.04L102.291 2402.19L103.798 2398.33L105.682 2394.48L107.565 2391.01L109.449 2387.54L111.333 2384.08L113.593 2380.99L115.477 2377.91L117.737 2374.83L119.997 2371.75L122.634 2369.05L127.532 2363.27L132.429 2357.87L138.08 2352.86L143.354 2347.86L149.005 2343.23L155.033 2338.61L160.684 2334.37L184.794 2316.64L190.445 2312.02L196.473 2307.4L202.124 2302.77L207.774 2297.76L213.425 2292.75L219.076 2287.74L224.35 2282.74L229.624 2277.73L234.899 2272.33L240.173 2266.94L245.07 2261.54L249.968 2255.76L254.865 2249.98L259.386 2244.2L263.906 2238.42L268.427 2232.26L272.571 2226.48L276.715 2219.93L280.859 2213.76L285.003 2207.6L300.449 2181.78L308.36 2169.06L312.504 2162.9L316.648 2156.73L320.792 2150.95L325.313 2144.79L329.833 2139.39L334.731 2133.61L339.628 2128.22L344.902 2122.83L350.177 2117.82L355.827 2112.81L361.102 2107.8L367.129 2103.17L372.78 2098.55L378.808 2094.31L384.835 2089.69L390.863 2085.45L397.267 2081.21L403.672 2077.36L409.699 2073.5L416.48 2069.65L422.885 2065.8L429.289 2062.33L442.851 2055.01L456.036 2048.46L462.818 2044.99L469.599 2041.91L476.38 2038.82L483.161 2036.13L489.942 2033.43L497.1 2030.73L503.881 2028.03L511.038 2025.72L517.819 2023.8L524.977 2021.87L532.135 2019.94L539.293 2018.4L546.827 2016.86L553.985 2015.7L561.143 2014.93L568.677 2014.16L576.212 2013.39H583.746L591.281 2013.01L598.815 2013.39L606.35 2013.78L614.261 2014.55L629.707 2016.48L637.618 2017.63L645.153 2018.4L652.687 2019.17H656.454L660.222 2019.56H663.989L667.379 2019.17H670.77L674.537 2018.79L677.928 2018.02L681.318 2017.63L684.709 2016.48L687.723 2015.32L690.736 2014.16L694.127 2012.62L697.141 2010.7L699.778 2008.77L702.792 2006.84L705.429 2004.53L708.066 2002.22L710.703 1999.52L713.34 1996.82L715.977 1993.74L718.614 1991.04L720.874 1987.96L725.772 1981.8L730.293 1975.25L734.813 1968.69L739.334 1962.14L743.478 1955.59L747.622 1949.04L751.389 1942.49L755.156 1935.94L758.924 1929.39L761.937 1922.46L765.328 1915.91L767.965 1908.97L770.602 1902.42L772.486 1895.48L774.369 1888.55L776.253 1881.23L777.383 1874.29L778.137 1866.97L778.89 1859.65L779.267 1852.33V1845.01V1837.68L778.89 1829.98L778.513 1822.66L777.383 1807.24L774.746 1776.8L773.993 1761.39L773.616 1754.07V1746.36V1738.66V1730.95L774.369 1723.63L775.123 1715.92L775.876 1708.6L777.383 1701.28L778.89 1693.96L780.774 1686.64L783.034 1679.31L785.671 1671.99L788.308 1665.06L791.322 1658.12L794.713 1651.57L798.103 1644.64L801.87 1638.08L806.014 1631.92L810.158 1625.37L814.302 1619.59L818.823 1613.42L823.72 1607.64L828.618 1602.25L833.892 1596.86L839.166 1591.85L844.817 1586.84L850.468 1582.21L856.496 1577.59L862.523 1573.35L868.928 1569.11L875.332 1565.26L881.736 1561.79L888.517 1558.32L895.298 1555.24L902.079 1552.54L908.86 1549.85L916.018 1547.53L923.176 1545.61L930.334 1543.68L937.492 1542.14L944.649 1540.98L952.184 1539.83L959.342 1539.06L966.499 1538.67L974.034 1538.29H981.192H988.726L995.884 1538.67L1003.42 1539.06L1010.58 1539.44L1025.27 1540.98L1039.96 1542.52L1054.65 1544.45L1068.97 1546.38L1083.28 1548.69L1097.98 1551.39L1112.29 1554.08L1126.61 1557.17L1140.92 1560.63L1155.24 1564.49L1184.25 1572.58L1198.56 1576.43L1206.1 1577.97L1213.25 1579.9L1220.41 1581.44L1227.57 1582.6L1235.1 1583.75L1242.26 1584.52L1249.42 1585.3H1256.95H1264.11L1271.27 1584.91L1278.43 1584.14L1282.2 1583.75L1285.96 1582.98L1289.35 1582.21L1293.12 1581.44L1300.28 1579.52L1307.44 1577.2L1314.59 1574.51L1321.37 1571.42L1328.16 1567.96L1334.56 1564.1L1340.96 1560.25L1347.37 1555.63L1350.01 1553.31L1353.02 1551L1356.03 1548.69L1358.67 1545.99L1361.31 1543.68L1363.94 1540.98L1366.58 1538.29L1368.84 1535.59L1371.1 1532.51L1373.36 1529.81L1377.88 1523.64L1381.65 1517.48L1385.42 1511.31L1388.81 1504.76L1391.82 1497.83L1394.84 1490.89L1397.1 1483.95L1399.36 1476.63L1401.24 1469.31L1403.12 1461.61L1404.63 1453.9L1405.76 1446.19L1406.51 1438.49L1407.27 1430.78L1408.02 1422.69V1414.6V1406.5V1398.41L1407.64 1390.32L1407.27 1382.23L1406.51 1374.14L1405.38 1366.04L1404.25 1357.95L1403.12 1349.86L1400.11 1333.68L1397.1 1317.88L1394.08 1302.08L1392.58 1294.37L1391.45 1286.67L1389.94 1279.35L1388.81 1271.64L1388.06 1264.32L1386.92 1257L1386.55 1249.68L1386.17 1242.36V1235.03V1228.1L1386.92 1221.16L1387.68 1214.61L1388.43 1211.14L1388.81 1207.68L1389.56 1204.59L1390.69 1201.13L1391.45 1198.04L1392.58 1194.57L1393.71 1191.49L1395.21 1188.41L1398.23 1181.86L1401.24 1175.69L1405.01 1169.53L1408.78 1163.75L1412.92 1157.58L1417.44 1151.42L1421.96 1145.25L1426.48 1139.09L1431.38 1132.92L1436.28 1126.76L1441.17 1120.21L1446.07 1113.66L1450.97 1107.11L1455.49 1100.17L1460.39 1093.62L1464.91 1086.3L1469.43 1079.36L1473.57 1072.04L1477.72 1064.72L1481.86 1057.4L1485.63 1050.08L1489.02 1042.76L1492.41 1035.44L1495.42 1027.73L1498.06 1020.41L1500.7 1013.09L1502.96 1005.76L1504.84 998.444L1506.35 991.123L1506.72 987.269L1507.48 983.801L1507.85 980.333V976.865L1508.23 973.012V969.544V966.076V962.608L1507.85 959.526L1507.48 956.058L1507.1 952.59L1506.35 949.122L1505.97 946.039L1504.84 942.957L1504.09 939.489L1502.96 936.406L1501.83 933.324L1500.32 930.241L1498.81 927.158L1497.31 924.076L1493.92 918.296L1490.15 912.131L1486.38 906.351L1481.86 900.186L1477.34 894.406L1472.82 888.24L1468.3 882.075L1463.4 875.91L1458.5 869.359L1453.98 862.424L1449.46 855.488L1444.94 848.552L1440.8 840.845L1438.91 836.992L1437.03 833.139L1435.15 829.286L1433.26 825.432L1431.76 821.579L1430.25 817.726L1429.12 813.873L1427.99 810.019L1427.23 806.166L1426.48 802.313L1425.73 798.459L1425.35 794.606V791.138V787.285L1425.73 783.817L1426.1 780.349L1426.86 776.881L1427.99 773.799L1429.49 770.331L1431 767.248L1432.89 764.551L1435.15 761.468L1437.41 758.771L1440.42 756.459L1443.06 753.762L1446.45 751.45L1449.84 749.138L1453.23 746.826L1457 744.514L1460.76 742.587L1464.53 740.275L1468.67 738.349L1476.96 734.495L1485.63 731.027L1493.92 727.174L1502.58 723.706L1510.49 720.238L1514.63 718.312L1518.4 716.385L1522.17 714.844L1525.56 712.917L1528.95 710.99L1531.96 709.064L1534.98 707.137L1537.62 704.825L1540.25 702.899L1542.51 700.587L1544.4 698.275L1545.9 695.963L1547.41 693.651L1548.16 690.954L1548.92 688.256V687.1L1549.29 685.559L1548.92 684.018V682.862L1548.54 681.32V679.779L1547.79 678.238L1547.41 676.696L1546.28 673.614L1544.4 670.146L1542.51 667.063L1540.25 663.595L1537.99 660.513L1535.73 657.045L1533.09 653.962L1527.44 647.797L1522.17 641.632L1516.14 635.852L1510.49 630.457L1504.46 625.063L1498.06 620.054L1492.03 615.044L1486 610.42L1473.2 601.173L1461.14 591.925L1454.74 587.686L1449.08 583.062L1443.06 578.438L1437.41 573.814L1431.76 569.19L1426.48 564.181L1421.58 559.172L1416.69 554.163L1412.17 548.768L1408.02 542.988L1406.14 540.291L1404.25 537.208L1402.37 534.126L1400.49 531.043L1398.98 527.961L1397.47 524.878L1395.97 521.41L1394.46 517.942L1393.33 514.474L1392.2 511.006L1391.45 507.153L1390.32 503.685L1389.56 499.832L1388.81 495.979L1388.43 491.74L1388.06 487.887L1387.68 484.033V479.795V475.942V471.703L1388.06 467.85L1388.43 463.996L1389.19 459.758L1389.94 455.905L1390.69 452.051L1391.82 448.583L1393.33 444.73L1394.46 441.262L1395.97 437.794L1397.85 434.326L1399.73 431.244L1401.99 428.161L1404.25 425.464L1406.51 422.381L1409.15 420.069L1412.17 417.757L1415.18 415.445L1418.19 413.519L1421.21 411.592L1424.6 409.666L1427.99 408.124L1431.38 406.583L1435.15 405.427L1438.54 404.271L1442.3 403.115L1446.07 402.344L1449.46 401.574L1453.23 400.803L1457 400.418L1460.76 400.032L1464.15 399.647L1467.92 399.262H1475.08L1482.24 399.647L1489.77 400.032L1496.93 401.188L1504.09 402.344L1511.62 403.886L1518.78 405.427L1526.31 407.354L1533.85 409.666L1541.01 411.592L1548.54 414.289L1556.07 416.601L1563.61 419.299L1571.14 421.996L1578.3 425.079L1585.84 428.161L1592.99 431.629L1600.15 435.097L1606.93 438.565L1613.71 442.418L1620.49 446.271L1626.9 450.51L1633.3 455.134L1639.33 459.758L1644.98 464.382L1650.26 469.391L1655.53 474.4L1660.43 479.795L1662.69 482.877L1664.95 485.575L1667.21 488.272L1669.09 491.355L1670.98 494.437L1672.86 497.52L1674.74 500.602L1676.25 503.685L1678.13 506.768L1679.26 510.236L1680.77 513.704L1681.9 516.786L1684.16 523.722L1686.42 531.043L1687.93 538.364L1689.44 545.686L1692.45 560.328L1695.09 575.356L1696.97 583.062L1698.85 590.383L1700.74 597.705L1703 604.64L1705.63 611.962L1708.65 618.898L1711.66 625.448L1715.43 632.384L1718.82 638.549L1722.96 645.1L1727.11 651.265L1731.63 657.43L1736.15 663.595L1741.05 669.375L1745.94 675.155L1751.22 680.55L1756.49 685.944L1761.77 691.339L1767.42 696.348L1773.45 701.357L1779.47 706.367L1785.5 710.99L1791.53 715.614L1797.93 719.853L1810.36 728.715L1816.39 732.954L1822.42 737.578L1828.07 742.202L1833.72 746.826L1836.36 749.523L1839 751.835L1841.26 754.532L1843.89 757.23L1846.15 759.927L1848.41 763.01L1850.3 765.707L1852.56 768.789L1855.95 775.34L1859.72 781.89L1863.48 788.441L1865.37 791.524L1867.25 794.992L1869.51 797.689L1872.15 800.771L1874.41 803.854L1877.42 806.551L1880.06 809.249L1882.7 811.946L1888.72 817.34L1900.78 827.359L1906.43 832.368L1909.07 834.68L1911.7 837.377L1914.34 839.689L1916.6 842.387L1918.86 845.084L1920.74 847.781L1922.63 850.479L1924.14 853.176L1925.64 856.258L1926.77 858.956L1927.53 862.038L1928.28 865.121L1928.66 868.204L1929.03 871.671V874.754L1928.66 878.222L1928.28 881.69L1927.9 884.773L1927.15 888.24L1926.4 891.708L1925.27 895.176L1924.14 899.03L1922.63 902.498L1921.12 905.965L1919.61 909.433L1918.11 913.287L1916.22 916.755L1913.96 920.608L1912.08 924.076L1909.82 927.929L1905.3 934.865L1900.4 942.186L1895.13 949.507L1889.85 956.443L1884.2 963.379L1878.55 970.315L1872.9 976.865L1867.25 983.416L1861.6 989.581L1855.95 995.746L1850.3 1001.53L1845.02 1007.31L1839.37 1012.7L1834.1 1018.1L1828.82 1023.1L1823.17 1028.5L1813 1038.52L1802.45 1048.15L1792.28 1058.17L1782.11 1067.8L1772.32 1077.82L1767.04 1082.83L1762.14 1088.22L1757.25 1093.62L1752.35 1099.01L1747.45 1104.79L1742.55 1110.57L1738.03 1116.35L1733.14 1122.52L1728.24 1129.07L1723.72 1135.23L1719.57 1141.79L1715.43 1148.72L1712.04 1155.27L1710.16 1158.74L1708.65 1162.21L1707.14 1165.68L1706.01 1169.14L1704.5 1172.61L1703.37 1176.46L1702.62 1179.93L1701.87 1183.4L1701.11 1186.87L1700.74 1190.34L1700.36 1194.19L1699.98 1197.66V1201.13L1700.36 1204.59L1700.74 1208.06L1701.11 1211.91L1701.49 1215.38L1702.24 1218.85L1703.37 1222.32L1704.13 1226.17L1706.76 1233.11L1709.03 1240.04L1712.04 1247.36L1715.05 1254.3L1718.44 1261.62L1724.85 1275.88L1727.86 1282.81L1730.88 1290.14L1733.51 1297.46L1736.15 1304.39L1738.41 1311.71L1740.29 1319.04L1741.8 1326.36L1742.55 1329.82L1742.93 1333.68L1743.31 1337.53L1743.68 1341V1344.85L1744.06 1348.71L1743.68 1352.56V1356.41L1743.31 1360.26L1742.93 1364.12L1742.18 1367.97L1741.42 1371.82L1740.67 1375.68L1739.54 1379.92L1737.28 1387.62L1735.02 1395.71L1732.38 1403.81L1730.12 1411.51L1728.99 1415.37L1727.86 1419.22L1727.11 1423.07L1726.35 1426.54L1725.6 1430.39L1725.22 1433.86V1437.33L1724.85 1440.8L1725.22 1443.88L1725.6 1447.35L1726.35 1450.43L1727.48 1453.51L1728.61 1456.6L1730.5 1459.29L1732.38 1461.99L1734.64 1464.69L1736.9 1467L1739.54 1469.31L1742.55 1471.62L1745.57 1473.94L1748.96 1475.86L1752.35 1477.79L1755.74 1479.72L1759.51 1481.26L1763.27 1482.8L1767.04 1484.34L1770.81 1485.88L1774.95 1487.04L1778.72 1488.19L1782.86 1488.96L1786.63 1490.12L1790.4 1490.89L1794.17 1491.66L1797.93 1492.43L1805.47 1493.2L1812.62 1493.97H1819.78H1827.32H1834.47L1841.63 1493.2L1848.79 1492.43L1855.95 1491.66L1863.48 1490.51L1870.64 1488.96L1878.17 1487.42L1885.71 1485.88L1893.62 1484.34L1900.78 1482.03L1908.31 1479.72L1915.47 1477.4L1918.86 1475.86L1922.63 1474.71L1926.02 1473.17L1929.03 1471.24L1932.42 1469.7L1935.44 1467.77L1938.83 1465.84L1941.46 1463.92L1944.48 1461.99L1947.12 1459.68L1949.75 1457.37L1952.39 1455.06L1954.65 1452.74L1956.91 1450.05L1958.79 1447.35L1961.05 1444.27L1962.94 1441.57L1964.45 1438.49L1966.33 1435.4L1967.84 1432.32L1969.34 1428.85L1970.47 1425.77L1971.98 1422.3L1973.11 1418.83L1975.37 1411.51L1977.25 1404.19L1979.14 1396.87L1980.64 1389.16L1982.15 1381.46L1984.79 1365.66L1987.43 1349.48L1988.93 1341.77L1990.44 1334.06L1991.95 1326.36L1993.83 1318.65L1996.09 1311.33L1998.35 1304.01L1999.86 1300.54L2000.99 1297.07L2002.49 1293.6L2004.38 1290.52L2005.88 1287.44L2007.77 1283.97L2009.65 1281.27L2011.54 1278.19L2013.8 1275.11L2016.06 1272.41L2018.32 1269.71L2020.58 1267.02L2023.21 1264.7L2025.47 1262.01L2028.49 1259.69L2031.13 1257.38L2036.78 1252.76L2042.8 1248.52L2048.83 1244.28L2055.61 1240.43L2062.02 1236.96L2068.8 1233.49L2075.96 1230.02L2083.11 1226.94L2090.27 1223.86L2097.43 1220.78L2111.74 1215L2126.06 1209.22L2140.38 1203.82L2147.53 1201.13L2154.31 1198.43L2161.47 1196.12L2168.25 1193.8L2175.03 1191.49L2182.19 1189.57L2188.97 1188.02L2196.13 1186.48L2203.29 1184.94L2210.07 1184.17L2217.23 1183.4L2224.39 1182.63L2238.7 1181.86L2253.39 1180.7L2260.93 1179.93L2268.09 1179.16L2275.62 1178.39L2283.15 1176.85L2290.69 1175.31L2298.22 1173L2305.76 1170.68L2313.29 1167.99L2320.83 1164.52L2328.36 1161.05L2335.52 1157.58L2343.05 1153.34L2350.21 1149.11L2357.37 1144.48L2364.15 1139.47L2370.93 1134.46L2377.34 1129.07L2383.36 1123.67L2389.39 1117.89L2395.42 1111.73L2400.69 1105.95L2405.97 1099.78L2410.86 1093.23L2415.01 1086.68L2417.27 1083.6L2419.15 1080.13L2421.04 1077.05L2422.92 1073.58L2424.43 1070.11L2426.31 1067.03L2427.82 1063.56L2428.95 1060.1L2430.08 1056.63L2431.21 1053.16L2432.34 1049.69L2433.09 1046.22L2433.84 1043.14L2434.6 1039.67L2434.98 1036.21L2435.35 1032.74L2435.73 1029.27V1025.8V1022.33L2435.35 1018.87L2434.98 1015.78L2434.6 1012.32L2433.84 1008.85L2433.09 1005.38L2432.34 1001.91L2431.21 998.829L2430.45 995.361L2428.95 991.893L2426.69 985.343L2423.67 978.792L2420.28 971.856L2416.52 965.306L2412.75 958.755L2408.98 951.819L2404.84 945.269L2400.32 938.718L2391.65 925.232L2382.61 911.745L2378.09 905.195L2373.95 898.259L2369.8 891.708L2365.66 884.773L2358.12 871.286L2350.59 857.414L2343.05 844.313L2335.9 830.827L2332.13 824.662L2328.36 818.111L2324.59 811.946L2320.45 805.781L2316.68 799.615L2312.16 793.836L2308.02 788.056L2303.5 782.661L2298.6 777.267L2293.7 772.257L2288.43 767.248L2282.78 762.624L2277.13 758L2271.1 753.762L2265.07 749.523L2258.67 745.67L2252.26 742.202L2245.48 738.734L2238.7 735.651L2231.92 732.954L2224.76 730.257L2217.6 727.945L2210.45 725.633L2202.91 724.092L2195.75 722.55L2188.22 721.009L2180.69 720.238L2173.15 719.468L2165.99 719.082H2158.46L2150.92 719.468L2143.77 719.853L2136.61 721.009L2129.45 722.165L2122.29 723.706L2115.14 725.633L2108.35 727.945L2101.57 730.642L2094.79 733.725L2088.39 736.807L2081.61 739.89L2075.2 743.358L2068.8 747.211L2062.39 751.064L2049.59 758.771L2023.97 774.955L2011.16 783.046L1998.35 791.138L1985.54 799.615L1979.51 803.854L1973.49 808.093L1967.46 812.331L1961.43 816.955L1955.78 821.579L1950.13 826.203L1944.86 831.212L1939.58 836.221L1934.31 841.231L1929.79 846.625L1924.89 852.405L1920.74 857.8L1916.6 863.965L1912.46 869.745L1908.69 876.295L1905.3 882.461L1901.91 889.011L1898.52 895.562L1895.5 902.498L1892.49 909.433L1889.85 916.369L1887.22 923.305L1884.58 930.626L1881.94 937.948L1877.42 952.59L1872.52 967.232L1868 982.26" stroke="#EF0977" stroke-opacity="0.8" stroke-width="0.96" stroke-miterlimit="10" stroke-linecap="round" stroke-linejoin="round"/>
<path d="M439.084 1885.08L447.748 1892.79L456.413 1900.49L460.934 1904.35L465.831 1907.81L470.352 1911.28L475.249 1914.36L480.147 1917.45L485.044 1919.76L490.318 1922.07L495.969 1924L501.62 1925.92L507.648 1927.08L513.675 1927.85H520.08H526.861L533.642 1927.08L540.8 1925.92L547.581 1924.38L554.738 1922.46L561.896 1920.53L568.677 1917.83L575.082 1915.13L581.109 1912.05L587.137 1908.97L592.034 1905.5L594.671 1903.96L596.555 1902.03L598.815 1900.49L600.699 1898.57L602.206 1897.02L603.713 1895.1L604.843 1893.56L605.596 1891.63L606.35 1890.09L607.103 1888.16V1886.62V1884.69L606.727 1883.15L606.35 1881.61L605.22 1880.07L604.466 1878.53L602.959 1876.99L601.452 1875.45L599.569 1873.9L597.685 1872.75L595.425 1871.21L593.164 1870.05L590.527 1868.9L587.89 1867.74L582.239 1865.43L575.835 1863.5L569.431 1861.57L562.273 1860.03L555.492 1858.88L547.957 1857.72L540.8 1856.95L533.642 1856.56L526.484 1856.18L519.703 1856.56L512.922 1856.95L506.518 1857.72L500.49 1858.88L494.462 1860.03L488.811 1861.57L483.537 1863.5L478.263 1865.43L472.989 1867.35L467.715 1869.67L457.92 1874.29L448.502 1879.68L439.084 1885.08Z" stroke="#EF0977" stroke-opacity="0.8" stroke-width="0.96" stroke-miterlimit="10" stroke-linecap="round" stroke-linejoin="round"/>
<path d="M1868 2701.97L1859.34 2654.96L1855.19 2631.46L1851.43 2607.95L1847.66 2584.45L1844.27 2560.94L1841.26 2537.44L1838.62 2513.93L1836.73 2490.43L1835.23 2466.92L1834.85 2455.36L1834.47 2443.42V2431.86V2419.91L1834.85 2407.97L1835.23 2396.41L1835.98 2384.46L1836.73 2372.52L1837.87 2360.96L1839.37 2349.01L1840.88 2337.07L1842.76 2325.51L1844.65 2313.56L1847.28 2301.62L1849.92 2289.67L1852.93 2277.73L1855.95 2266.17L1859.72 2254.22L1863.48 2242.28L1867.63 2230.33L1872.15 2218.39L1877.04 2206.44L1886.46 2182.55L1891.36 2170.99L1895.88 2159.05L1900.4 2147.49L1904.17 2135.93L1907.56 2124.37L1909.07 2118.59L1910.2 2112.81L1911.33 2107.41L1912.08 2101.63L1912.83 2096.24L1913.21 2090.84L1913.59 2085.06V2079.67L1913.21 2074.27L1912.83 2069.26L1911.7 2063.87L1910.57 2058.48L1909.07 2053.47L1907.18 2048.07L1905.3 2043.06L1903.04 2038.05L1900.4 2033.04L1897.76 2028.03L1892.11 2017.63L1886.46 2007.23L1880.44 1996.82L1874.78 1986.03L1872.15 1980.25L1869.51 1974.47L1867.25 1968.69L1865.37 1962.91L1863.48 1956.75L1861.98 1950.58L1860.85 1944.42L1859.72 1938.25L1858.96 1932.09L1858.58 1925.92L1858.96 1919.76L1859.34 1913.59L1860.09 1907.81L1861.22 1902.03L1863.11 1896.64L1864.99 1891.24L1867.63 1885.85L1870.64 1881.23L1874.03 1876.6L1878.17 1871.98L1882.32 1867.74L1886.84 1863.5L1891.36 1859.65L1896.26 1855.79L1916.6 1840.77L1921.5 1837.3L1926.4 1833.44L1930.92 1829.59L1935.06 1825.74L1939.2 1821.5L1942.59 1817.26L1945.99 1812.64L1948.62 1808.01L1950.88 1803.39L1951.64 1800.69L1952.39 1797.99L1953.14 1795.3L1953.52 1792.6L1953.9 1787.21V1781.04L1953.52 1775.26L1953.14 1769.1L1952.39 1762.93L1950.88 1750.21L1950.13 1744.05L1949.75 1737.88L1949.38 1732.1L1949.75 1726.32L1950.51 1720.54L1950.88 1717.85L1951.64 1715.15L1952.39 1712.45L1953.52 1710.14L1954.65 1707.83L1955.78 1705.13L1957.29 1703.2L1959.17 1700.89L1962.94 1696.65L1967.08 1692.8L1971.6 1689.33L1976.5 1685.86L1982.15 1682.78L1987.8 1680.09L1993.83 1677.77L1999.86 1675.85L2006.26 1673.92L2012.67 1672.76L2019.07 1671.61L2025.47 1670.84L2031.88 1670.07H2037.91H2043.93L2049.96 1670.45L2055.99 1671.22L2061.64 1671.99L2067.29 1673.15L2078.59 1675.46L2100.44 1680.86L2111.74 1683.17L2117.4 1683.94L2123.05 1684.71L2129.07 1685.48L2134.72 1685.86H2140.75H2146.78L2152.81 1685.48L2158.84 1685.09L2164.49 1684.32L2170.51 1683.17L2176.16 1681.63L2181.82 1680.09L2187.47 1678.16L2192.74 1676.23L2198.01 1673.53L2202.91 1670.84L2207.81 1667.75L2212.33 1664.67L2216.85 1660.82L2220.99 1656.97L2225.14 1653.11L2229.28 1648.49L2233.05 1644.25L2236.82 1639.63L2244.35 1629.99L2251.51 1620.36L2258.29 1610.34L2265.07 1600.32L2271.1 1589.92L2274.11 1584.52L2276.75 1579.13L2279.01 1573.74L2281.27 1568.34L2283.15 1562.95L2285.04 1557.55L2286.55 1552.16L2287.68 1546.38L2288.43 1540.6L2289.18 1534.82L2289.56 1529.04V1523.26L2289.18 1511.7L2288.43 1499.75L2287.68 1487.81L2287.3 1475.86V1470.08L2287.68 1463.92L2288.05 1458.14L2288.81 1452.36L2290.31 1446.58L2291.44 1440.41L2294.83 1428.85L2302.74 1406.12L2304.25 1400.34L2306.13 1394.56L2307.26 1389.16L2308.4 1383.38L2309.15 1377.6L2309.53 1372.21V1366.81L2308.77 1361.03L2308.02 1355.64L2306.51 1350.25L2304.63 1344.85L2302.74 1339.46L2300.11 1334.06L2297.47 1328.67L2294.46 1323.66L2291.07 1318.26L2287.3 1313.25L2283.53 1308.25L2279.76 1303.62L2275.62 1298.61L2271.48 1293.99L2266.96 1289.36L2257.91 1280.89L2253.39 1276.65L2248.87 1272.41L2243.98 1268.56L2239.08 1265.09L2234.18 1261.62L2229.28 1258.54L2224.39 1255.84L2219.11 1253.53L2213.84 1251.6L2208.56 1249.68L2203.29 1248.52L2197.64 1247.75L2192.36 1247.36H2186.71L2180.69 1247.75L2175.03 1248.52L2169.38 1249.29L2163.36 1250.83L2157.7 1252.37L2152.05 1254.3L2146.4 1256.23L2140.75 1258.54L2135.1 1261.24L2129.83 1263.93L2124.55 1266.63L2119.28 1269.71L2114 1272.41L2109.11 1275.88L2104.59 1278.96L2100.07 1282.43L2095.92 1286.28L2091.78 1290.52L2088.01 1294.37L2084.62 1299L2081.61 1303.62L2078.59 1308.25L2075.58 1313.25L2072.94 1318.26L2070.68 1323.27L2068.42 1328.67L2066.16 1334.06L2064.28 1339.84L2060.51 1351.02L2057.5 1362.96L2054.48 1374.91L2049.21 1399.57L2044.31 1423.84L2041.67 1435.79L2038.66 1447.73L2035.27 1458.91L2031.13 1470.08L2026.98 1480.87L2022.46 1491.28L2017.19 1501.68L2011.91 1512.08L2005.88 1522.49L1999.86 1532.51L1993.08 1543.29L1985.92 1553.7L1982.15 1558.71L1978.38 1563.72L1974.24 1568.34L1970.1 1572.19L1965.95 1576.05L1961.43 1579.51L1959.17 1581.06L1956.53 1582.21L1954.27 1583.37L1952.01 1584.14L1949.38 1584.91L1947.12 1585.68L1941.84 1586.07L1936.57 1586.45L1931.29 1586.07L1925.64 1584.91L1919.99 1583.75L1914.34 1582.6L1908.31 1580.67L1896.63 1577.2L1884.58 1573.35L1878.55 1571.81L1872.52 1570.65L1866.5 1569.5L1860.47 1568.73L1854.44 1568.34H1848.79H1842.76L1837.11 1568.73L1813.75 1570.27L1802.45 1570.65H1796.8H1791.53L1785.88 1569.88L1780.23 1569.11L1774.95 1567.96L1769.3 1566.41L1764.03 1564.87L1758.38 1562.95L1747.45 1558.71L1725.98 1549.84L1715.05 1545.61L1709.4 1543.68L1703.75 1542.14L1698.1 1540.6L1692.83 1539.44L1687.17 1538.67L1681.52 1537.9L1675.5 1537.51L1669.85 1537.13H1664.19H1658.54L1646.87 1537.9L1635.19 1538.67L1623.51 1540.21L1611.83 1541.75L1600.15 1543.29L1588.1 1545.22L1576.79 1547.15L1565.12 1549.46L1553.44 1552.16L1542.14 1554.85L1530.83 1557.94L1519.91 1561.4L1508.61 1565.26L1498.06 1569.88L1487.51 1574.51L1477.34 1579.51L1467.17 1585.29L1457.37 1591.46L1452.47 1594.93L1447.95 1598.4L1443.43 1601.86L1438.91 1605.72L1434.39 1609.57L1430.25 1613.81L1426.48 1618.05L1422.71 1622.67L1419.7 1627.68L1416.31 1632.69L1413.67 1637.7L1411.41 1643.09L1409.53 1648.87L1407.64 1654.65L1406.14 1660.43L1405.01 1666.6L1404.25 1672.38L1403.5 1678.54V1684.71V1690.87V1697.04L1404.25 1702.82L1405.01 1708.98L1406.14 1714.76L1407.64 1720.54L1409.15 1726.32L1411.04 1731.72L1412.92 1737.5L1415.18 1742.89L1417.82 1748.29L1423.09 1758.69L1428.74 1769.1L1434.77 1779.11L1447.95 1799.15L1432.89 1792.21L1418.19 1785.66L1410.66 1782.58L1402.75 1779.88L1395.21 1777.19L1387.3 1774.88L1379.39 1772.95L1371.1 1771.41L1362.81 1770.25L1354.15 1769.48L1345.48 1769.1H1336.82H1328.16L1319.11 1769.48L1283.7 1771.79L1274.66 1772.18L1266 1772.56H1257.71H1249.42L1241.51 1772.18L1233.6 1771.02L1226.06 1769.87L1218.91 1767.94L1215.14 1766.78L1211.75 1765.63L1208.36 1764.09L1205.34 1762.54L1202.33 1760.62L1199.32 1758.69L1196.3 1756.38L1193.29 1754.07L1190.65 1751.76L1188.01 1749.06L1185.75 1745.98L1183.12 1742.89L1178.6 1736.34L1174.45 1729.41L1170.31 1722.09L1166.16 1714.38L1162.4 1706.67L1158.63 1698.58L1151.09 1682.01L1147.33 1673.92L1143.18 1666.21L1139.04 1658.51L1134.52 1651.57L1129.62 1644.64L1126.98 1641.55L1124.35 1638.47L1121.71 1635.77L1119.07 1633.08L1116.06 1630.38L1113.05 1628.07L1109.65 1625.75L1106.64 1623.83L1102.87 1622.29L1099.48 1620.74L1095.72 1619.2L1091.95 1617.66L1084.41 1615.74L1076.5 1614.19L1068.22 1612.65L1059.55 1611.88L1051.26 1611.11L1033.93 1610.34L1016.98 1609.19L1000.4 1608.03L984.205 1607.26H975.917H968.006L960.095 1608.03L952.184 1608.8L943.896 1609.96L935.984 1611.5L928.073 1613.42L920.162 1615.74L912.251 1618.82L904.716 1622.29L897.182 1625.75L889.647 1629.99L882.866 1634.62L876.085 1639.63L869.681 1645.02L863.653 1650.8L858.002 1657.35L853.105 1663.9L848.584 1670.84L844.44 1678.16L840.673 1685.48L837.282 1693.19L834.645 1701.28L832.385 1709.37L830.501 1717.46L828.994 1725.55L827.864 1733.65L827.488 1742.12L827.111 1750.21V1758.69L827.488 1767.17L828.241 1775.65L828.994 1784.12L830.501 1792.21L831.632 1800.69L833.138 1809.17L836.529 1825.74L840.296 1842.69L844.44 1859.26L848.207 1875.83L851.975 1892.01L854.989 1908.58L856.495 1916.68L857.626 1924.77L858.756 1932.86L859.132 1940.95L859.886 1949.04V1957.13V1965.23L859.132 1973.32L858.379 1981.02L857.249 1989.12L855.742 1996.82L853.858 2004.91L851.975 2012.62L849.714 2020.71L847.077 2028.42L844.44 2036.13L839.166 2051.92L827.488 2083.91L821.46 2099.71L816.186 2115.89L813.925 2123.98L811.665 2132.46L809.405 2140.55L807.521 2149.03L806.014 2157.12L804.884 2165.6L803.754 2174.07L803 2182.55L802.247 2190.64V2199.12V2207.6V2215.69L803 2223.78L803.754 2231.87L804.884 2239.58L806.014 2247.67L807.521 2255.38L809.405 2263.08L811.288 2270.79L813.549 2278.88L816.186 2286.97L818.823 2295.07L821.837 2303.54L824.85 2312.02L827.864 2320.88L831.255 2329.74L835.022 2338.61L839.166 2347.08L841.05 2350.94L843.31 2354.79L845.194 2358.26L847.454 2361.34L850.091 2364.42L852.351 2367.12L854.989 2369.43L857.626 2370.97L860.263 2372.52L862.9 2373.67L865.914 2374.06L868.927 2374.44L871.941 2374.06L874.955 2373.67L877.969 2372.52L881.359 2371.36L884.373 2369.82L887.764 2367.89L891.154 2365.58L894.545 2363.27L898.312 2360.57L901.702 2357.87L905.093 2354.79L908.86 2351.32L916.018 2344.39L923.176 2337.07L930.71 2328.97L937.868 2320.88L952.56 2305.08L966.499 2288.9L980.438 2273.49L993.623 2257.69L1000.03 2249.98L1006.43 2242.66L1012.46 2234.95L1018.11 2227.25L1023.76 2219.93L1029.41 2212.22L1034.31 2204.9L1039.58 2197.58L1044.1 2190.26L1048.63 2182.55L1052.77 2175.23L1056.54 2167.91L1060.3 2160.97L1063.32 2153.65L1066.33 2146.33L1068.97 2139.01L1071.23 2131.69L1072.74 2124.75L1074.24 2117.43L1075.37 2110.11L1076.13 2103.17V2095.85V2088.53L1075.37 2081.59L1074.24 2074.27L1072.74 2066.95L1070.48 2059.63L1067.84 2052.7L1064.82 2045.37L1061.43 2038.05L1057.67 2030.73L1053.9 2023.41L1045.61 2008.77L1037.7 1993.74L1033.93 1986.03L1030.54 1978.33L1027.15 1970.62L1024.51 1962.53L1022.25 1954.44L1020.75 1946.35L1019.62 1938.25L1019.24 1934.01L1018.86 1930.16V1925.92V1921.68L1019.24 1917.45L1019.62 1913.21L1020.37 1908.97L1021.12 1904.73L1022.25 1900.49L1023.38 1895.87L1024.89 1891.63L1026.4 1887.39L1028.28 1882.77L1030.54 1878.53L1032.8 1873.9L1035.06 1869.67L1040.34 1860.8L1046.37 1852.33L1052.77 1844.23L1059.17 1836.14L1065.95 1828.82L1072.74 1821.89L1076.13 1818.8L1079.52 1815.72L1082.91 1813.02L1086.3 1810.33L1089.31 1808.01L1092.33 1806.09L1095.34 1804.16L1098.35 1802.62L1100.99 1801.08L1103.63 1800.31L1105.89 1799.54L1108.15 1799.15L1110.41 1798.77L1111.92 1799.15L1113.8 1799.54L1114.93 1800.69L1116.44 1801.85L1117.19 1803.39L1117.94 1804.93L1118.7 1807.24L1119.45 1809.55L1119.83 1812.25V1814.95V1818.03V1821.5V1824.97L1119.45 1828.82L1119.07 1832.67L1118.7 1836.91L1118.32 1841.15L1117.19 1850.4L1115.68 1860.03L1114.55 1870.05L1113.05 1880.45L1111.54 1891.24L1110.41 1902.03L1109.28 1913.21L1108.9 1924L1108.52 1934.79V1945.57L1108.9 1950.97L1109.28 1955.98L1110.03 1960.99L1110.79 1966L1111.54 1971.01L1112.67 1975.63L1113.8 1980.25L1115.31 1984.49L1117.19 1989.12L1118.7 1993.36L1120.58 1997.21L1122.84 2001.06L1125.1 2004.91L1127.36 2008.77L1130 2012.24L1132.64 2015.7L1135.27 2019.17L1138.29 2022.25L1140.92 2025.34L1144.31 2028.42L1150.72 2033.81L1157.5 2038.82L1164.28 2043.45L1171.81 2047.69L1179.35 2051.15L1186.88 2054.24L1194.79 2056.55L1202.71 2058.86L1210.62 2060.4L1218.53 2061.56L1226.44 2062.33H1234.73H1243.02L1250.93 2061.94L1259.21 2060.79L1267.5 2059.63L1276.17 2057.7L1284.46 2055.78L1292.74 2053.47L1301.41 2050.77L1309.7 2047.69L1318.36 2044.6L1326.65 2040.75L1334.94 2036.9L1342.85 2032.66L1351.14 2028.03L1359.05 2023.41L1366.58 2018.4L1374.12 2013.01L1381.27 2007.61L1388.43 2001.83L1395.21 1995.67L1401.62 1989.5L1407.64 1982.95L1413.3 1976.4L1418.95 1969.46L1423.84 1962.14L1428.36 1955.21L1432.89 1947.5L1436.65 1939.79L1439.67 1932.09L1442.3 1924L1444.56 1915.9L1446.45 1907.43L1447.58 1899.34V1894.71L1447.95 1890.47V1886.23L1447.58 1882L1447.2 1873.13L1446.07 1864.27L1444.56 1855.41L1443.43 1846.55L1442.68 1838.07L1441.93 1829.59V1825.35V1821.5L1442.3 1817.26L1443.06 1813.41L1443.81 1809.55L1444.94 1806.09L1446.07 1802.23L1447.95 1798.77L1450.21 1795.3L1452.47 1792.21L1455.11 1789.13L1458.13 1786.05L1461.52 1783.35L1464.91 1780.66L1468.67 1778.34L1472.44 1776.03L1476.59 1774.1L1480.73 1772.18L1484.87 1770.64L1489.39 1769.1L1493.91 1767.94L1498.44 1767.17L1502.96 1766.4H1507.48H1512H1516.52L1520.66 1767.17L1524.81 1767.94L1528.95 1769.1L1533.09 1771.02L1536.86 1772.95L1540.63 1775.26L1544.02 1777.57L1547.03 1780.27L1550.05 1783.35L1552.68 1786.82L1555.32 1790.29L1557.58 1793.76L1559.09 1797.22L1560.6 1801.08L1561.73 1804.93L1562.86 1808.78L1563.23 1813.02L1563.61 1816.88V1821.11L1563.23 1825.35L1562.48 1829.21L1561.73 1833.44L1560.6 1837.68L1559.47 1841.54L1557.96 1845.78L1556.07 1850.01L1554.19 1853.87L1551.93 1858.11L1549.67 1861.96L1547.03 1865.81L1544.4 1869.67L1541.76 1873.52L1535.73 1880.84L1529.33 1887.78L1522.55 1893.94L1515.39 1900.11L1508.23 1905.89L1501.07 1911.28L1493.91 1916.68L1486.76 1922.07L1479.98 1927.46L1473.57 1932.86L1467.54 1938.25L1464.91 1940.95L1462.27 1943.65L1459.63 1946.73L1457.37 1949.81L1455.49 1952.51L1453.61 1955.98L1451.72 1959.06L1450.21 1962.53L1449.08 1966L1448.33 1969.46L1447.58 1973.32L1447.2 1977.17L1446.82 1981.02V1985.26L1447.2 1993.36L1447.95 2002.22L1450.21 2019.56L1450.97 2028.42V2032.66V2036.9V2041.14L1450.59 2044.99L1449.84 2049.23L1449.08 2053.08L1447.95 2056.93L1446.45 2060.4L1444.56 2063.87L1442.68 2067.34L1440.04 2070.42L1437.41 2073.5L1434.77 2076.59L1431.76 2079.67L1428.74 2082.37L1425.35 2085.06L1418.19 2090.46L1403.5 2101.25L1396.34 2106.26L1389.19 2111.65L1382.4 2117.04L1379.39 2119.74L1376.38 2122.82L1373.74 2125.91L1371.1 2128.6L1369.22 2132.07L1366.96 2135.16L1365.45 2138.62L1363.94 2142.09L1363.19 2145.56L1362.44 2149.41L1362.06 2153.27V2157.12V2161.36V2165.21L1363.19 2173.69L1364.32 2182.55L1365.45 2191.41L1366.58 2199.89L1366.96 2204.51V2208.75V2212.99L1366.58 2217.23L1365.83 2221.08L1365.07 2225.32L1363.57 2229.17L1362.06 2233.03L1359.8 2236.88L1357.54 2240.73L1354.9 2244.2L1351.89 2247.67L1348.88 2251.14L1345.48 2254.22L1342.09 2257.69L1338.33 2260.77L1330.42 2266.94L1322.5 2272.72L1314.59 2278.5L1307.06 2283.89L1299.9 2289.29L1296.51 2291.98L1293.5 2294.29L1290.48 2296.99L1287.85 2299.69L1285.59 2302L1283.7 2304.7L1282.2 2307.01L1280.69 2309.71L1279.93 2312.02L1279.56 2314.72L1279.93 2317.03L1280.31 2319.73L1281.44 2322.04L1282.95 2324.74L1284.83 2327.43L1286.72 2329.74L1289.35 2332.44L1291.99 2335.14L1295 2337.84L1298.02 2340.53L1301.41 2343.23L1305.18 2345.93L1312.71 2351.32L1320.62 2357.1L1328.53 2363.27L1336.07 2369.43L1343.6 2375.6L1346.99 2378.68L1350.38 2382.15L1353.4 2385.62L1356.41 2389.09L1359.05 2392.55L1361.31 2396.02L1363.19 2399.87L1364.7 2403.34L1366.2 2407.2L1366.96 2411.05L1367.71 2414.9L1368.09 2419.14L1368.47 2422.99V2427.23L1367.71 2435.32L1366.96 2443.8L1364.7 2461.14L1363.94 2469.62L1363.57 2478.48V2482.72L1363.94 2486.96L1364.32 2491.2L1365.07 2495.44L1366.2 2499.67L1367.34 2503.91L1368.84 2508.15L1370.35 2512L1372.23 2516.24L1374.12 2520.1L1376.38 2523.95L1378.64 2527.8L1381.27 2531.66L1383.91 2535.12L1386.55 2538.59L1389.56 2542.06L1392.95 2545.14L1395.97 2548.22L1399.36 2551.31L1402.75 2554L1406.51 2556.7L1410.28 2559.01L1414.05 2561.33L1417.82 2563.64L1421.96 2565.56L1426.1 2567.11L1430.25 2568.65L1434.39 2570.19L1438.54 2571.34L1442.68 2572.12L1447.2 2572.89L1451.34 2573.27H1455.87H1460.39L1469.05 2572.89L1477.72 2572.12L1486.38 2570.96L1495.04 2569.8L1503.33 2569.03H1507.1H1511.24H1515.01L1518.78 2569.42L1522.17 2569.8L1525.94 2570.57L1529.33 2571.73L1532.34 2573.27L1535.73 2574.81L1538.75 2576.74L1541.38 2579.05L1544.4 2581.75L1547.03 2584.83L1549.67 2587.53L1552.31 2591L1554.57 2594.46L1559.47 2601.4L1564.36 2609.11L1574.16 2624.13L1579.43 2631.84L1582.07 2635.31L1584.71 2638.39L1587.72 2641.86L1590.73 2644.94L1593.75 2647.64L1597.14 2650.34L1600.53 2652.65L1603.92 2654.57L1607.69 2656.5L1611.83 2657.66L1615.97 2658.81L1620.12 2659.58H1624.64H1629.54H1634.06L1638.95 2659.2L1648.75 2657.66L1658.54 2656.12L1667.96 2654.57L1672.11 2653.8L1676.63 2653.42L1680.77 2653.03L1684.54 2652.65L1687.93 2653.03L1691.32 2653.42L1694.33 2654.19L1696.59 2655.73L1697.72 2656.5L1698.85 2657.27L1699.61 2658.43L1700.36 2659.58L1701.11 2660.74L1701.87 2662.28L1702.62 2665.75L1703 2669.22L1703.37 2673.07L1703 2677.31L1702.62 2681.93L1702.24 2686.94L1701.49 2691.57L1699.98 2701.97" stroke="#EF0977" stroke-opacity="0.8" stroke-width="0.96" stroke-miterlimit="10" stroke-linecap="round" stroke-linejoin="round"/>
<path d="M1994.21 595.392V612.347V620.824L1993.83 628.916L1993.08 637.393L1992.7 641.246L1991.95 645.485L1991.57 649.338L1990.82 653.191L1989.69 657.045L1988.93 660.898L1987.8 664.751L1986.3 668.219L1984.79 672.072L1983.28 675.54L1981.4 679.008L1979.51 682.476L1977.63 685.944L1974.99 689.027L1972.73 692.109L1970.1 695.192L1967.46 697.889L1964.45 700.972L1961.43 703.669L1958.04 705.981L1954.65 708.293L1951.26 710.605L1947.87 712.532L1944.1 714.458L1940.33 716L1936.57 717.541L1932.8 718.697L1929.03 719.853L1924.89 720.623L1920.75 721.394L1916.98 722.165L1912.83 722.55L1908.69 722.935H1904.55H1900.4L1896.26 722.55L1892.11 722.165L1888.35 721.394L1884.2 720.623L1880.44 719.853L1876.29 718.697L1872.52 717.541L1868.76 716L1864.99 714.458L1861.6 712.532L1858.21 710.605L1854.82 708.293L1851.43 706.366L1848.04 704.054L1845.02 701.357L1842.01 698.66L1839 695.963L1836.36 693.265L1833.34 690.183L1830.71 687.1L1828.07 684.017L1825.81 680.935L1823.55 677.467L1821.29 674.384L1819.03 670.916L1817.15 667.448L1814.89 663.981L1811.12 656.659L1807.73 649.338L1804.71 641.632L1801.7 633.925L1798.69 626.219L1796.05 618.512L1791.15 602.714L1786.25 586.53L1783.99 578.823L1781.36 571.117L1778.72 563.41L1776.08 555.704L1773.07 548.383L1769.68 541.062L1766.29 534.126L1762.9 527.19L1761.01 524.107L1758.75 520.639L1756.87 517.557L1754.61 514.474L1752.35 511.391L1749.71 508.694L1747.45 505.612L1744.81 502.914L1742.18 500.217L1739.16 497.52L1733.51 492.51L1727.48 487.887L1721.08 483.263L1714.68 479.024L1707.9 474.4L1701.11 470.162L1694.33 465.923L1680.39 457.831L1673.24 453.592L1666.46 448.969L1659.67 444.73L1652.89 440.106L1646.49 435.097L1640.08 430.088L1637.07 427.39L1634.43 424.693L1628.41 419.298L1623.13 413.519L1617.48 407.739L1614.84 405.041L1611.83 402.344L1605.8 397.335L1599.77 392.711L1593.37 388.087L1586.97 383.848L1580.19 379.61L1573.4 375.757L1566.62 371.518L1552.68 363.812L1545.53 359.958L1538.37 355.72L1531.59 351.481L1524.43 346.857L1510.11 337.995L1502.96 333.371L1495.8 329.517L1492.41 327.591L1488.64 325.664L1484.87 323.738L1481.48 322.196L1477.72 320.655L1473.95 319.499L1470.56 318.343L1466.79 317.572L1463.02 316.802L1459.26 316.031L1455.49 315.646H1451.72L1447.95 316.031L1444.19 316.416L1440.04 317.187L1436.28 317.958L1432.51 319.114L1428.36 320.27L1420.83 322.967L1405.01 329.132L1397.47 332.215L1393.33 333.371L1389.56 334.527L1385.79 335.683L1382.03 336.453L1378.26 337.224L1374.87 337.609L1371.1 337.995H1367.34L1363.94 337.609L1360.55 336.839L1357.16 335.683L1353.77 334.141L1350.38 332.215L1347.37 330.288L1343.98 327.976L1340.96 325.664L1337.95 322.967L1335.31 319.884L1332.68 316.416L1330.04 313.334L1327.4 309.481L1325.14 306.013L1322.88 302.159L1320.62 297.921L1318.74 294.067L1316.85 289.829L1314.97 285.59L1313.46 280.966L1312.33 276.728L1310.83 272.104L1310.07 267.865L1308.94 263.241L1308.57 259.003L1307.81 254.764V250.14L1307.44 245.902L1307.81 241.663V237.425L1308.57 233.571L1308.94 229.333L1309.7 225.479L1310.83 221.626L1311.96 217.388L1313.09 213.534L1314.22 209.681L1315.72 206.213L1318.74 198.507L1322.13 191.185L1325.52 183.864L1329.29 176.928L1337.2 163.057L1340.96 156.121L1345.11 149.185L1349.25 142.249L1353.4 135.698L1356.03 132.616L1358.29 129.148L1360.93 126.065L1363.57 122.983L1366.21 119.515L1369.22 116.432L1372.23 113.35L1375.25 110.652L1378.64 107.57L1381.65 104.872L1385.04 102.175L1388.81 99.4778L1392.2 97.1659L1395.97 94.4686L1399.36 92.5419L1403.12 90.23L1406.89 88.3034L1410.66 86.3767L1414.43 84.8354L1418.19 83.2941L1421.96 82.1381L1425.73 80.9822L1429.5 80.2115L1433.26 79.4409L1437.03 79.0555H1440.8H1444.19L1447.95 79.4409L1451.35 80.2115L1454.74 80.9822L1458.13 82.1381L1461.52 83.2941L1464.91 84.8354L1467.92 86.3767L1471.31 88.3034L1474.33 90.6153L1477.72 92.5419L1480.73 95.2392L1483.74 97.5512L1486.76 100.248L1493.16 105.643L1499.19 111.808L1511.24 123.753L1517.27 129.919L1523.3 136.084L1529.7 141.864L1536.11 147.258L1542.51 152.653L1549.29 157.277L1552.68 159.589L1556.07 161.515L1559.47 163.827L1562.86 165.754L1566.25 167.295L1570.01 169.222L1573.4 170.763L1577.17 172.304L1580.94 173.846L1584.33 175.387L1588.1 176.543L1591.86 177.699L1595.63 178.855L1599.77 179.626L1603.54 180.396L1607.31 181.167L1611.45 181.938L1615.22 182.708L1623.51 183.479L1631.42 183.864L1639.71 184.25L1655.91 185.02L1664.2 185.406L1672.11 186.176L1675.87 186.947L1679.64 187.332L1683.41 188.103L1687.18 189.259L1690.57 190.415L1694.33 191.571L1697.72 192.727L1701.11 194.653L1704.13 196.58L1707.14 198.507L1710.53 200.819L1713.55 203.131L1716.18 205.442L1719.2 208.14L1721.83 210.837L1724.85 213.92L1730.12 219.7L1735.4 226.25L1745.57 238.966L1750.84 245.516L1756.49 251.682L1761.77 257.847L1767.79 263.241L1773.45 269.021L1779.47 274.416L1791.53 284.434L1803.58 294.838L1815.26 304.857L1821.29 310.251L1826.94 315.646L1832.59 321.426L1838.24 327.206L1843.52 332.985L1848.79 339.151L1853.31 345.701L1857.83 352.252L1862.35 358.802L1866.5 365.738L1870.26 373.059L1873.65 380.381L1877.04 387.702L1880.06 395.023L1883.07 402.729L1885.33 410.436L1887.97 418.142L1889.85 426.234L1891.74 433.941L1893.24 442.033L1896.63 457.831L1899.65 473.629L1901.53 481.336L1903.42 489.042L1905.68 496.749L1908.31 504.456L1909.82 507.923L1911.33 511.777L1912.83 515.245L1914.72 519.098L1916.6 522.566L1918.48 526.034L1920.75 529.502L1922.63 532.97L1924.89 536.438L1927.15 539.52L1929.79 542.988L1932.42 546.071L1934.68 549.153L1937.32 552.236L1940.33 555.319L1942.97 558.016L1945.99 560.713L1948.62 563.796L1951.64 566.108L1954.65 568.805L1961.05 573.814L1967.46 578.438L1974.24 582.677L1980.64 586.915L1994.21 595.392Z" stroke="#EF0977" stroke-opacity="0.8" stroke-width="0.96" stroke-miterlimit="10" stroke-linecap="round" stroke-linejoin="round"/>
<path d="M1363.94 89.8443L1370.73 91.771L1377.88 93.6976L1384.66 96.0096L1387.68 97.1655L1391.07 98.7068L1394.46 99.8628L1397.47 101.404L1400.49 103.331L1403.12 105.257L1406.14 107.184L1408.78 109.496L1411.04 111.808L1413.67 114.505L1415.56 117.202L1417.44 120.285L1418.19 121.826L1418.95 123.368L1419.7 125.294L1420.08 126.836L1420.83 130.304L1421.58 133.772L1422.71 136.854L1424.22 139.937L1425.73 143.019L1427.99 145.717L1429.87 148.414L1432.13 151.111L1434.77 153.808L1437.41 156.12L1442.68 161.13L1448.33 165.754L1453.98 170.763L1456.62 173.075L1459.26 175.772L1461.89 178.084L1464.15 180.781L1466.41 183.864L1468.3 186.561L1470.18 189.644L1472.06 192.726L1473.57 195.809L1474.7 199.277L1475.83 202.36L1476.96 205.827L1477.72 209.295L1478.09 213.149L1478.47 216.617V220.085V223.552V227.406L1477.72 230.874L1477.34 234.342L1476.21 237.81L1475.46 240.892L1474.33 244.36L1472.82 247.828L1471.69 250.911L1470.18 254.379L1466.79 260.544L1465.28 263.626L1463.02 266.709L1462.27 267.865L1461.14 269.406L1459.63 270.562L1458.5 271.718L1455.87 273.645L1452.85 275.571L1449.46 277.113L1446.45 278.654L1439.67 281.351L1433.26 284.049L1426.86 286.361L1420.45 288.673L1413.67 290.985L1407.27 293.296L1400.86 295.608L1394.08 298.306L1391.07 299.462L1387.68 300.618L1384.66 302.159L1381.65 303.7L1378.26 305.242L1375.25 306.783L1372.23 308.71L1369.6 310.636L1363.57 314.489L1360.93 316.416L1358.29 318.728L1355.66 320.655L1352.64 322.967L1350.38 325.279L1347.75 327.591L1345.11 329.517L1342.47 331.829L1340.21 334.141L1337.57 336.453L1335.31 338.765L1333.43 341.462L1331.17 343.774L1329.29 346.857L1328.53 348.013L1327.78 349.554L1326.65 352.637L1325.14 356.105L1324.39 359.573L1323.64 363.04L1322.88 366.508L1322.5 370.362L1322.13 373.83V377.683V381.151L1322.5 384.619L1322.88 388.472L1323.26 391.94L1324.01 395.408L1325.14 402.344" stroke="#EF0977" stroke-opacity="0.8" stroke-width="0.96" stroke-miterlimit="10" stroke-linecap="round" stroke-linejoin="round"/>
<path d="M859.509 1197.27L850.845 1221.93L847.077 1234.65L843.687 1248.13L842.18 1255.07L841.05 1262.39L839.92 1269.71L838.789 1277.42L838.036 1285.51L837.659 1293.99V1302.47V1310.94L838.036 1319.42L838.789 1327.51L839.92 1335.22L841.803 1342.92L843.687 1349.48L846.324 1355.64L847.831 1358.34L849.338 1360.65L851.221 1362.96L853.105 1364.89L855.365 1366.82L857.249 1368.36L859.886 1369.13L862.146 1369.9L865.16 1370.67H867.797H870.811L873.825 1370.28L876.839 1369.51L879.852 1368.74L886.633 1366.04L893.038 1362.58L899.819 1358.34L906.6 1353.33L913.004 1347.93L919.032 1341.77L924.683 1334.83L929.58 1327.9L934.101 1320.58L937.868 1312.87L940.882 1305.16L942.012 1301.31L942.766 1297.46L943.519 1293.6V1289.75V1285.9L943.142 1282.04L942.766 1278.19L941.635 1274.72L940.505 1270.87L938.998 1267.4L935.231 1260.08L930.71 1253.53L925.813 1246.98L919.785 1240.81L913.758 1234.65L907.353 1229.25L900.572 1223.86L894.168 1219.24L887.764 1214.61L881.359 1210.76L875.708 1207.29L873.071 1205.36L870.434 1203.82L868.174 1202.67L866.29 1201.51L864.03 1200.35L862.523 1199.2L861.016 1198.43L859.886 1197.66L859.133 1196.89L858.379 1196.5L858.002 1196.12V1195.73V1195.35H858.379" stroke="#EF0977" stroke-opacity="0.8" stroke-width="0.96" stroke-miterlimit="10" stroke-linecap="round" stroke-linejoin="round"/>
<path d="M1047.5 435.868L1034.69 427.776L1027.91 423.537H1027.53L1027.15 423.152L1026.4 422.381L1024.89 421.225L1022.25 418.913L1016.6 413.904L1010.58 409.28L1005.3 404.271L999.651 399.647L994 394.638L988.726 390.014L986.089 387.702L983.829 385.39L981.192 383.078L978.931 380.766L976.294 378.454L974.034 376.142L971.773 373.83L969.513 371.518L967.253 369.206L964.992 366.894L963.109 364.582L961.225 362.656L958.965 360.344L957.458 358.032L955.574 356.105L953.691 353.793L952.184 351.866L950.677 349.555L949.17 347.628L948.04 345.701L946.533 343.389L945.403 341.463L944.649 339.536L943.519 337.609L942.766 335.683L942.012 333.756L941.259 331.83L940.882 329.903L940.129 327.976V326.435L939.752 324.508L939.375 322.582V321.04V319.114L939.752 317.572V316.031L940.129 314.105L940.505 312.563L941.259 311.022L941.635 309.481L942.389 307.939L943.142 306.398L943.896 304.857L944.649 303.315L945.779 301.774L946.91 300.233L948.04 298.691L949.17 297.536L950.3 295.994L951.807 294.453L953.314 293.297L954.821 291.756L956.328 290.6L957.835 289.058L959.718 287.902L961.602 286.746L963.486 285.205L965.369 284.049L967.253 282.893L969.136 281.352L971.397 280.196L973.28 279.04L975.541 277.884L977.801 276.728L980.061 275.572L982.699 274.416L984.959 273.26L987.596 272.104L989.856 270.948L992.493 269.792L995.13 268.636L997.768 267.865L1000.78 266.709L1003.42 265.553L1006.06 264.397L1009.07 263.627L1014.72 261.315L1020.75 259.388L1026.78 257.462L1033.18 255.535L1039.21 253.608L1045.61 251.682L1052.39 249.755L1058.8 247.828L1065.58 246.287L1072.36 244.361L1079.14 242.434L1086.3 240.893L1100.24 237.039L1114.18 233.571L1126.23 233.957H1131.88H1137.91L1143.94 234.342L1146.57 234.727H1149.59L1152.22 235.113H1154.86L1157.88 235.498L1160.51 235.883L1163.15 236.269L1165.79 237.039L1168.05 237.425L1170.68 238.195L1172.94 238.581L1175.21 239.351L1177.84 240.122L1179.73 240.893L1181.99 242.049L1184.25 242.819L1186.13 243.975L1188.01 245.131L1189.9 246.287L1191.78 247.828L1193.29 248.984L1194.79 250.526L1196.3 252.452L1197.81 253.994L1199.32 255.92L1200.45 257.847L1201.58 259.774L1202.71 261.7L1203.84 263.627L1204.59 265.939L1205.34 268.251L1206.47 270.563L1207.23 272.875L1207.98 275.572L1208.73 277.884L1209.49 280.581L1209.86 282.893L1210.62 285.59L1211.75 290.985L1212.88 296.38L1214.01 301.774L1215.14 307.554L1216.27 312.949L1217.78 318.728L1218.53 321.426L1219.28 324.123L1220.04 326.82L1220.79 329.518L1221.92 332.215L1222.67 334.912L1223.8 337.609L1224.93 339.921L1226.06 342.619L1227.19 344.931L1228.32 347.628L1229.83 349.94L1231.34 352.252L1232.47 354.564L1233.97 356.876L1235.48 359.188L1238.5 363.812L1241.89 368.436L1245.28 372.674L1248.29 376.913L1251.68 381.151L1255.07 385.39L1258.46 389.243L1261.48 393.482L1264.87 397.72L1267.5 401.574L1269.01 403.886L1270.52 405.812L1271.65 407.739L1273.15 410.051L1274.28 411.977L1275.41 414.289L1276.54 416.216L1277.67 418.528L1278.43 420.455L1279.56 422.766L1280.31 425.078L1281.07 427.39L1281.82 429.317L1282.2 431.629L1282.95 433.941L1283.33 436.253L1283.7 438.565L1284.08 440.877V443.189V445.501L1284.46 447.813V450.51V452.822L1284.08 455.134V457.446L1283.7 460.143L1283.33 462.455L1282.95 464.767L1282.57 467.464L1282.2 469.776L1281.44 472.088L1281.07 474.785L1280.31 477.097L1279.56 479.795L1278.8 482.107L1278.05 484.804L1276.92 487.116L1276.17 489.813L1275.04 492.125L1273.91 494.822L1272.78 497.134L1271.65 499.832L1270.52 502.144L1269.39 504.841L1268.26 507.153L1266.75 509.85L1265.62 512.162L1264.11 514.859L1261.1 519.869L1258.08 524.493L1254.69 529.502L1251.3 534.511L1247.91 539.52L1244.15 544.144L1240.38 548.768L1236.61 553.777L1232.84 558.401L1228.7 563.025L1224.56 567.264L1220.41 571.888L1216.27 576.126L1211.75 580.365L1207.6 584.603L1203.08 588.842L1198.56 592.695L1194.42 596.549L1189.9 600.402L1185.38 603.87L1180.86 607.338L1176.34 610.806L1171.81 613.888L1167.29 616.971L1162.77 619.668L1160.51 621.209L1157.88 622.751L1155.62 623.907L1153.36 625.063L1151.09 626.219L1148.83 627.375L1146.57 628.531L1144.31 629.687L1142.05 630.457L1139.42 631.613L1137.16 632.384L1134.9 633.155L1132.64 633.925L1130.37 634.696L1127.74 635.466L1125.48 635.852L1123.22 636.622L1120.96 637.008L1118.7 637.393L1116.06 637.778L1113.8 638.164H1111.54L1109.28 638.549H1106.64H1104.38H1102.12H1099.86L1097.22 638.164H1094.96L1092.7 637.778H1090.07L1087.8 637.393L1085.54 637.008L1082.91 636.237L1078.39 635.466L1073.49 634.31L1068.59 632.769L1063.69 631.228L1058.8 629.687L1053.9 628.145L1049.38 626.219L1044.48 624.677L1039.21 622.751L1034.31 620.824L1024.52 616.585L1014.34 612.732L1009.45 610.806L1004.55 608.879L999.274 606.952L994.377 605.411L989.103 603.87L983.829 602.328L978.931 600.787L973.657 599.246L968.383 598.09L965.746 597.705L963.109 597.319L960.472 596.934L957.835 596.549L955.198 596.163L952.56 595.778H949.923L947.286 595.393H944.649H941.635H938.998H936.361H931.087L925.436 595.778L920.162 596.549L909.237 597.319L903.963 598.09L898.689 598.475L893.415 598.86H891.154L888.517 599.246H885.88H883.243H880.983L878.346 598.86H876.085L873.448 598.475H871.188L868.927 597.705L866.29 597.319L864.03 596.934L861.77 596.163L859.509 595.393L857.249 594.622L855.365 593.466L853.105 592.31L850.845 591.154L848.961 589.998L847.077 588.842L844.817 587.301L842.933 585.759L841.05 584.218L839.166 582.291L837.282 580.75L835.776 578.824L833.892 576.897L832.385 574.97L830.501 572.658L828.995 570.732L827.488 568.42L825.981 566.108L824.474 563.796L822.967 561.484L821.46 559.172L819.953 556.86L818.823 554.163L817.316 551.851L816.186 549.153L815.056 546.456L813.926 543.759L812.795 541.062L811.665 538.364L810.535 535.667L809.782 532.97L808.651 530.272L807.898 527.575L807.144 524.493L806.391 521.795L805.638 519.098L804.884 516.015L804.131 513.318L803.754 510.621L803 507.538L802.624 504.841L801.87 502.144L801.494 499.061L801.117 496.364V493.666L800.74 490.584L800.363 487.887V485.189V482.492V479.795V477.097V474.015L800.74 471.318V468.62L801.117 466.308L801.494 463.611L801.87 460.914L802.247 458.216L803 455.519L803.377 453.207L804.131 450.51L804.884 448.198L805.638 445.501L806.768 443.189L807.521 440.491L808.651 438.18L809.782 435.868L810.912 433.556L812.042 431.244L813.549 428.932L815.056 426.62L816.563 424.693L818.069 422.381L819.576 420.455L821.46 418.143L823.344 416.216L825.227 414.289L827.111 412.363L828.995 410.436L831.255 408.895L833.515 406.968L835.399 405.427L837.659 403.886L839.92 402.344L842.18 401.188L844.44 400.032L847.077 398.876L849.338 397.72L851.598 396.95L853.858 396.179L856.495 395.408L858.756 394.638L861.393 394.252H863.653L865.914 393.867H868.551H870.811L873.448 394.252L875.708 394.638L878.346 395.023L880.606 395.408L882.866 395.794L885.503 396.564L887.764 397.335L890.401 398.106L892.661 398.876L895.298 400.032L897.559 400.803L900.196 401.959L902.456 403.115L907.353 405.427L912.251 407.739L917.148 410.436L926.943 415.445L931.841 417.757L936.738 420.455L941.635 422.766L944.273 423.537L946.533 424.693L949.17 425.849L951.807 426.62L954.067 427.39L956.704 428.546L958.965 429.317L961.602 430.088L966.499 431.244L971.773 432.785L976.671 433.941L981.568 434.712L986.842 435.482L991.74 436.253L996.637 436.638L1001.91 437.024L1006.81 437.409L1012.08 437.794H1016.98H1022.25L1027.15 437.409H1032.43L1037.32 437.024L1042.6 436.638L1047.87 435.868L1052.77 435.482L1058.04 434.712L1062.94 433.941L1068.22 433.17L1073.49 432.4L1078.39 431.629L1088.94 429.702L1099.11 427.776L1109.28 425.464L1119.83 423.537" stroke="#EF0977" stroke-opacity="0.8" stroke-width="0.96" stroke-miterlimit="10" stroke-linecap="round" stroke-linejoin="round"/>
<path d="M-359.574 1197.27L-350.156 1198.43L-345.259 1198.81L-340.738 1199.2L-335.841 1199.58H-331.32L-326.799 1199.2L-322.655 1198.43L-320.395 1198.04L-318.134 1197.27L-316.251 1196.89L-314.367 1196.12L-310.223 1194.19L-306.456 1191.88L-302.689 1189.57L-298.921 1186.48L-295.531 1183.4L-291.764 1180.32L-288.373 1176.85L-285.359 1173L-281.969 1169.14L-278.955 1164.9L-272.551 1156.81L-266.523 1148.34L-260.872 1140.24L-257.858 1136.39L-254.845 1132.54L-251.831 1128.68L-249.194 1125.22L-246.18 1121.75L-243.166 1118.67L-240.152 1115.97L-237.138 1113.66L-234.125 1111.34L-230.734 1109.8L-227.72 1108.26L-224.33 1107.49L-221.316 1106.72L-217.925 1106.33H-214.535L-211.144 1106.72L-207.754 1107.11L-204.363 1108.26L-200.596 1109.42L-197.206 1110.96L-193.815 1112.5L-190.048 1114.43L-186.657 1116.74L-183.267 1119.44L-179.499 1122.13L-176.109 1125.22L-172.718 1128.3L-168.951 1131.77L-165.561 1135.23L-162.17 1139.09L-158.403 1142.94L-155.012 1147.18L-151.622 1151.42L-148.231 1155.66L-144.841 1160.28L-141.45 1164.9L-138.06 1169.91L-134.669 1174.54L-128.265 1184.56L-122.237 1194.96L-116.21 1205.75L-110.559 1216.54L-104.908 1227.33L-100.01 1238.12L-95.113 1248.91L-92.8526 1254.3L-90.5923 1259.69L-88.7086 1265.09L-86.825 1270.1L-84.9414 1275.11L-83.0577 1280.12L-81.5508 1285.13L-80.0439 1290.14L-78.537 1294.76L-77.0301 1299.38L-75.5232 1304.01L-74.0163 1308.25L-72.5094 1312.48L-70.6258 1316.72L-68.7422 1320.58L-66.4818 1324.43L-64.2215 1327.9L-61.2077 1331.75L-58.5706 1335.22L-55.5568 1338.3L-52.1663 1341.77L-48.7757 1344.85L-41.9947 1351.4L-34.8369 1357.57L-28.0558 1364.12L-24.6653 1367.59L-21.6515 1371.05L-18.6377 1374.52L-16.0006 1378.38L-12.9868 1381.84L-10.7265 1385.7L-8.08939 1389.93L-5.82904 1393.79L-3.56868 1398.03L-1.68506 1401.88L0.575297 1406.12L2.45892 1410.36L6.22618 1419.22L9.61671 1428.08L12.6305 1436.94L18.6581 1455.06" stroke="#EF0977" stroke-opacity="0.8" stroke-width="0.96" stroke-miterlimit="10" stroke-linecap="round" stroke-linejoin="round"/>
<path d="M-359.574 982.26L-350.156 981.104L-345.635 980.333L-341.115 979.948H-336.594H-332.073L-327.929 980.333L-323.409 980.718L-319.265 981.874L-317.381 982.26L-315.121 983.03L-311.353 984.957L-307.209 986.884L-303.442 989.196L-300.052 991.893L-296.284 994.975L-292.517 998.058L-289.127 1001.14L-285.736 1004.61L-278.955 1011.54L-271.797 1018.48L-268.407 1021.95L-265.016 1025.42L-261.626 1028.5L-257.858 1031.2L-254.468 1033.89L-250.701 1036.21L-246.933 1038.52L-243.166 1040.06L-241.282 1040.83L-239.399 1041.21L-237.515 1041.99L-235.255 1042.37H-233.371H-231.111H-229.227H-226.967H-225.083L-222.823 1041.99L-220.563 1041.21L-218.679 1040.83L-214.158 1039.29L-210.014 1037.75L-205.87 1035.43L-201.726 1033.12L-197.582 1030.43L-193.815 1027.34L-190.048 1023.87L-186.657 1020.41L-183.267 1016.94L-180.253 1013.09L-174.225 1005.76L-171.211 1001.91L-168.198 998.443L-165.561 994.975L-162.547 991.893L-159.156 988.81L-156.142 986.113L-154.636 984.957L-152.752 983.801L-151.245 983.03L-149.361 982.26L-147.478 981.489L-145.594 980.718L-143.711 980.333L-141.827 979.948H-139.567L-137.683 979.562H-135.423H-133.539L-129.018 979.948L-124.874 980.718L-120.354 981.874L-115.833 983.416L-111.312 985.342L-106.791 987.654L-102.647 989.966L-98.1267 992.663L-93.9828 995.361L-89.8388 998.829L-85.6948 1001.91L-81.9276 1005.38L-78.1603 1009.23L-74.393 1013.09L-71.3792 1016.94L-68.3654 1020.79L-65.3516 1025.03L-63.0913 1029.27L-60.8309 1033.12L-58.9473 1037.36L-57.4404 1041.99L-55.9335 1046.22L-54.8033 1050.46L-54.0499 1055.09L-53.2964 1059.32L-52.9197 1063.95L-52.543 1068.57V1073.2V1077.44V1082.06L-52.9197 1086.68L-53.2964 1091.31L-54.4266 1100.94L-55.9335 1110.19L-57.4404 1119.44L-59.324 1129.07L-61.2077 1138.32L-62.7146 1147.95L-64.2215 1157.2L-65.3516 1166.45L-65.7284 1171.07L-66.1051 1175.69V1180.32V1184.56V1189.18L-65.7284 1193.8L-65.3516 1198.04L-64.5982 1202.28L-63.468 1206.9L-62.7146 1211.14L-61.2077 1215.38L-60.0775 1219.62L-58.5706 1223.86L-56.6869 1228.1L-54.8033 1231.95L-52.9197 1236.19L-51.0361 1240.43L-48.7757 1244.28L-44.255 1252.37L-38.9808 1260.08L-34.0834 1268.17L-28.4325 1275.88L-23.1584 1283.58L-17.5075 1291.29L-11.8566 1298.61L-8.84281 1302.08L-5.82901 1305.55L-2.8152 1309.02L0.575326 1312.1L3.58913 1315.18L6.97966 1318.26L10.3702 1320.96L14.1374 1323.27L17.9047 1325.59L21.672 1327.51L25.4392 1329.44L29.5832 1330.98L33.7272 1332.52L38.2479 1333.68L42.7686 1334.45L46.9126 1334.83L51.4333 1335.6H55.954H60.8514H65.3721L69.8928 1334.83L74.7902 1334.45L79.3109 1333.68L84.2084 1332.52L88.7291 1331.37L93.2498 1329.82L97.7705 1328.28L102.291 1326.36L106.812 1324.43L110.956 1322.12L115.477 1319.81L119.621 1317.49L127.909 1312.48L135.82 1307.09L143.731 1302.08L151.642 1297.07L155.409 1294.76L159.553 1292.45L163.321 1290.52L167.088 1288.59L170.855 1287.05L174.622 1285.9L178.39 1284.74L182.157 1283.58L185.924 1283.2H190.068H193.835L197.603 1283.58L201.37 1284.36L205.137 1285.13L209.281 1286.67L213.048 1287.82L217.192 1289.75L220.96 1291.68L225.104 1293.6L228.871 1295.92L233.015 1298.61L236.782 1301.31L240.926 1304.01L245.07 1306.7L252.981 1312.87L261.269 1319.03L278.222 1331.37L286.133 1337.92L290.277 1341L294.044 1344.08L297.435 1347.16L300.826 1350.63L303.839 1353.71L306.476 1357.18L308.737 1360.26L309.867 1361.81L310.62 1363.73L311.751 1365.27L312.127 1366.82L312.881 1368.74L313.257 1370.28L313.634 1372.21V1373.75V1375.68V1377.22V1379.15L313.257 1380.69L312.504 1384.54L311.374 1388.01L309.867 1391.86L307.983 1395.71L305.723 1399.57L303.463 1403.42L301.202 1407.27L298.565 1411.51L295.551 1415.37L289.9 1424.23L283.873 1432.71L280.859 1437.33L278.222 1441.95L275.208 1446.58L272.571 1451.59L270.311 1456.6L268.05 1461.22L266.167 1466.61L264.283 1471.62L262.776 1476.63L261.646 1482.03L260.516 1487.04L259.762 1492.05L259.009 1497.06L258.632 1502.06V1506.69L259.009 1511.7L259.386 1516.32L260.516 1520.56L261.646 1524.8L263.153 1528.65L264.66 1532.51L265.79 1534.43L266.92 1535.97L268.05 1537.51L269.181 1539.44L270.687 1540.98L272.194 1542.14L273.701 1543.68L275.208 1544.84L276.715 1545.99L278.599 1547.15L280.482 1548.3L282.366 1549.07L286.133 1551L290.277 1552.16L294.798 1553.31L299.319 1554.08L303.839 1554.47L308.737 1554.85L313.634 1554.47L318.532 1554.08L323.429 1553.31L328.703 1552.16L333.601 1551L338.498 1549.07L343.395 1547.15L348.293 1544.84L352.814 1542.52L357.334 1539.44L361.855 1536.36L365.999 1532.89L369.766 1529.42L373.91 1525.57L377.678 1521.33L381.445 1517.48L384.835 1513.24L388.226 1509L391.616 1504.38L398.021 1495.9L401.034 1491.66L404.048 1487.42L406.685 1483.57L409.699 1479.33L412.336 1475.86L415.35 1472.39L417.987 1468.93L420.624 1465.84L423.261 1463.15L425.898 1460.83L428.535 1458.91L430.796 1457.37L432.303 1456.6L433.433 1456.21L434.94 1455.83L436.07 1455.44L437.2 1455.05H438.707H439.837L441.344 1455.44L442.474 1455.83L443.981 1456.21L445.111 1456.6L446.618 1457.37L447.748 1458.14L449.255 1458.91L451.892 1461.22L454.53 1463.53L457.543 1466.23L460.18 1469.31L463.194 1472.78L465.831 1476.25L468.845 1480.1L471.859 1483.95L474.873 1487.81L480.9 1496.28L487.681 1505.15L494.086 1513.62L497.476 1517.48L501.243 1521.72L504.634 1525.57L508.401 1529.04L512.169 1532.51L515.936 1535.97L519.703 1538.67L523.847 1541.37L527.991 1543.68L532.135 1545.61L536.279 1547.53L540.423 1548.69L544.944 1549.85L549.088 1550.62L553.608 1551L558.129 1551.39H562.65L567.17 1551L571.691 1550.62L576.212 1550.23L581.109 1549.07L585.63 1548.3L590.151 1546.76L594.671 1545.61L599.569 1544.07L604.09 1542.52L608.61 1540.6L613.131 1538.67L617.652 1536.74L621.796 1534.43L626.316 1532.12L630.46 1529.81L634.981 1527.11L639.125 1524.8L642.892 1522.1L647.036 1519.02L650.803 1516.32L654.571 1513.24L658.338 1510.16L661.729 1506.69L665.119 1503.61L668.133 1500.14L671.147 1496.67L674.16 1493.2L676.798 1489.35L679.435 1485.5L681.695 1481.64L683.579 1477.79L685.462 1473.94L687.346 1469.7L688.853 1465.46L689.983 1461.22L691.113 1456.98L691.49 1452.36L692.243 1448.12V1443.5L692.62 1438.87V1434.25L692.243 1429.62L691.867 1425L690.36 1406.12L689.606 1396.87V1392.25V1387.62V1383L689.983 1378.76L690.36 1374.52L691.113 1370.28L691.867 1366.04L693.373 1362.19L694.88 1357.95L696.387 1354.1L698.271 1350.25L700.531 1346.78L702.792 1342.92L705.052 1339.07L707.689 1335.6L710.326 1332.14L715.977 1324.81L722.005 1317.49L728.032 1310.17L733.683 1302.85L739.711 1295.14L742.348 1290.91L744.985 1287.05L747.622 1282.81L749.882 1278.58L752.143 1274.34L754.403 1269.71L756.287 1265.47L758.17 1260.85L760.054 1256.23L761.561 1251.22L763.444 1246.59L764.951 1241.58L767.588 1231.95L769.849 1221.55L772.109 1211.53L774.369 1201.12L775.876 1190.72L777.76 1180.32L781.15 1159.51L782.657 1149.11L784.164 1139.09L786.048 1129.07L787.932 1119.44L790.192 1109.8L791.322 1105.18L792.452 1100.55L793.582 1095.93L795.089 1091.69L796.596 1087.07L798.103 1082.83L799.61 1078.98L801.494 1074.74L803.001 1070.88L804.884 1067.03L807.145 1063.56L809.405 1059.71L811.665 1056.63L813.926 1053.16L816.563 1050.08L819.2 1046.99L822.214 1044.3L825.227 1041.6L828.241 1038.9L831.632 1036.59L835.022 1034.28L838.789 1032.35L842.557 1030.43L846.701 1028.88L850.845 1027.34L855.365 1026.19L859.886 1025.03L864.784 1024.26L869.681 1023.49L874.955 1023.1L880.229 1022.72L885.503 1022.33H890.778H896.052H901.326L906.223 1022.72H911.498L916.018 1023.1L920.916 1023.49H922.799L925.06 1023.87H927.32L929.204 1024.26H931.087L932.971 1024.65H934.854H936.361L937.868 1025.03H939.375H940.505H942.012H942.766L943.896 1025.42H944.649H945.403L946.156 1025.03H946.533H947.286H947.663L948.04 1024.65L948.417 1024.26L948.04 1023.49" stroke="#EF0977" stroke-opacity="0.8" stroke-width="0.96" stroke-miterlimit="10" stroke-linecap="round" stroke-linejoin="round"/>
<path d="M-359.574 853.176L-353.17 854.332L-350.156 854.717H-346.766L-343.752 855.102L-340.738 855.487H-337.347H-334.334H-331.32H-328.306L-325.292 855.102L-323.785 854.717L-322.278 854.332L-320.771 853.946L-319.265 853.561L-317.758 853.176L-316.251 852.79L-314.744 852.405L-313.237 851.634L-312.107 851.249L-310.6 850.478L-307.586 848.937L-304.949 847.396L-301.935 845.854L-299.298 843.928L-296.661 842.001L-294.024 840.074L-291.387 837.762L-288.75 835.836L-286.113 833.524L-283.476 831.212L-278.202 826.588L-273.304 821.964L-270.667 819.652L-268.03 817.726L-265.393 815.414L-263.132 813.487L-260.495 811.56L-257.858 809.634L-255.598 807.707L-252.961 806.166L-250.324 804.624L-249.194 803.854L-247.687 803.468L-246.557 802.698L-245.426 802.312L-243.92 801.542L-242.789 801.157L-241.282 800.771L-240.152 800.386L-238.645 800.001H-237.515L-236.008 799.615H-234.878H-233.748H-232.241H-230.734H-229.604L-228.097 800.001H-226.967L-225.46 800.386L-224.33 800.771L-222.823 801.157L-221.693 801.542L-220.186 801.927L-219.056 802.698L-217.549 803.083L-216.419 803.854L-214.912 804.624L-213.781 805.395L-212.275 806.166L-211.144 806.936L-209.637 807.707L-208.507 808.863L-205.87 810.79L-203.233 812.716L-200.596 815.028L-198.336 817.34L-195.699 819.652L-193.438 822.349L-191.178 825.047L-188.918 827.744L-186.657 830.827L-184.774 833.909L-182.513 836.607L-180.63 839.689L-178.746 842.772L-176.862 846.24L-175.355 849.322L-173.849 852.405L-172.342 855.487L-171.211 858.955L-169.705 862.038L-168.574 865.121L-167.444 868.203L-166.314 871.286L-165.184 874.754L-163.3 880.534L-162.17 883.616L-161.417 886.699L-160.286 889.782L-159.156 892.479L-158.026 895.176L-156.896 898.259L-155.389 900.571L-154.259 903.268L-152.752 905.965L-150.868 908.277L-150.115 909.433L-149.361 910.589L-148.231 911.745L-147.478 912.901L-146.348 914.057L-145.594 915.213L-143.334 917.14L-141.073 919.452L-138.813 921.378L-136.176 922.92L-133.539 924.846L-130.902 926.387L-128.265 927.929L-125.251 929.47L-122.237 930.626L-119.223 932.167L-116.21 933.323L-113.196 934.094L-110.182 935.25L-106.791 936.021L-103.401 936.791L-100.387 937.562L-96.9966 938.333L-93.606 938.718L-90.2155 939.103L-86.825 939.489L-83.4345 939.874H-80.4206H-77.0301H-73.6396L-70.2491 939.489H-66.8585L-63.8447 939.103L-60.4542 938.718L-57.4404 937.947L-54.4266 937.562L-51.4128 936.791L-48.0223 936.021L-45.0085 935.25L-41.9947 934.094L-39.3576 933.323L-36.3438 932.167L-33.33 931.397L-27.6791 929.085L-21.6515 926.773L-16.0006 924.461L-4.69883 919.452L0.952051 917.14L6.97966 914.828L9.61674 913.672L12.6305 912.901L15.6443 911.745L18.6581 910.974L21.2952 909.818L24.309 909.048L27.3228 908.277L30.3366 907.507L33.3504 907.121L36.741 906.351L42.7686 905.195L48.7962 904.039L55.2005 903.268L61.2281 902.497L67.6325 901.727L73.6601 900.956L80.0644 900.185L86.092 899.029L92.1196 898.259L95.1334 897.873L98.1472 897.103L101.161 896.717L104.175 895.947L106.812 895.176L109.826 894.791L112.84 894.02L115.477 893.249L118.49 892.093L121.127 891.323L124.141 890.552L126.778 889.396L129.415 888.24L132.429 887.47L135.066 886.314L137.703 884.772L140.34 883.616L143.354 882.46L145.991 880.919L148.628 879.763L151.266 878.222L153.903 876.68L156.916 875.139L159.553 873.212L162.191 871.671L164.828 869.745L167.841 867.818L170.479 865.891L173.116 863.965L176.129 862.038L178.766 859.726L181.404 857.799L184.417 855.487L187.054 853.176L190.068 850.478L192.705 848.166L195.719 845.469L198.733 843.157L201.37 840.46L204.384 837.762L210.035 832.368L215.686 826.588L221.336 821.193L223.974 818.111L226.611 815.414L229.248 812.716L231.885 810.019L234.522 807.322L237.159 804.624L239.419 801.927L242.056 799.23L244.317 796.533L246.577 794.221L248.837 791.909L250.721 789.211L251.851 788.441L252.981 787.285L254.112 786.129L254.865 784.973L255.995 783.817L256.749 782.661L257.879 781.89L258.632 780.734L259.386 779.964L260.516 778.808L261.269 778.037L262.023 777.266L262.776 776.11L263.53 775.34L264.283 774.569L264.66 773.798L265.413 773.028L266.167 772.257L266.92 771.872L267.297 771.101L267.674 770.716L268.427 769.945L268.804 769.56L269.181 768.789L269.557 768.404L269.934 768.018L270.311 767.633L270.687 767.248H271.064L271.441 766.863L271.818 766.477H272.194V766.092V766.477V766.863V767.248L271.818 767.633L271.441 768.404" stroke="#EF0977" stroke-opacity="0.8" stroke-width="0.96" stroke-miterlimit="10" stroke-linecap="round" stroke-linejoin="round"/>
<path d="M396.891 36.2842V45.1467L396.514 54.0092V62.8717V71.3489L396.891 75.5875V79.826L397.267 84.0646L397.644 88.3032L398.398 92.5418L398.774 96.7804L399.904 105.258L401.411 113.349L402.918 121.827L404.425 130.304L406.309 139.166L407.816 147.643L409.699 156.891L410.453 161.13L411.206 165.754L412.713 175.387L413.843 185.02L415.35 194.653L416.104 199.277L417.234 203.901L417.987 208.525L419.117 213.149L420.248 217.387L421.378 222.011L422.885 225.865L424.392 230.103L425.898 233.956L426.652 235.498L427.782 237.424L428.912 239.351L429.666 240.892L430.796 242.434L431.926 243.975L433.056 245.516L434.563 247.058L435.693 248.214L437.2 249.755L438.33 250.911L439.837 252.067L441.344 253.223L443.228 254.379L444.735 255.149L446.242 255.92L448.125 256.691L450.009 257.461L451.893 258.232L453.776 259.003L455.66 259.388L457.543 259.773L459.804 260.159L461.687 260.544L463.948 260.929L465.831 261.315H470.352L474.496 261.7L479.017 261.315H483.914L488.435 260.544L492.956 259.773L497.853 259.003L502.374 257.847L507.271 256.691L511.792 255.535L516.689 253.993L521.21 252.067L525.731 250.525L529.875 248.599L534.395 246.672L538.539 244.36L542.683 242.048L546.451 239.736L550.595 237.424L554.362 234.727L557.752 232.03L561.52 229.333L564.91 226.635L568.301 223.553L571.691 220.47L574.705 217.387L577.719 214.305L580.733 211.222L583.746 207.754L586.384 204.286L589.021 200.818L591.281 197.35L593.918 193.497L596.178 190.029L598.062 186.176L599.946 182.323L601.829 178.855L603.713 175.002L605.22 170.763L606.727 166.91L607.857 163.056L608.987 158.818L610.117 154.965L611.247 150.726L612.001 146.487L612.754 142.634L613.131 138.396L613.884 134.157L614.261 129.918V125.68L614.638 121.056V116.817V112.579V108.34V103.716L614.261 99.4777L613.884 90.6152L613.131 81.7527L612.001 72.5048L610.871 63.6423L609.741 54.7798L607.103 36.2842" stroke="#EF0977" stroke-opacity="0.8" stroke-width="0.96" stroke-miterlimit="10" stroke-linecap="round" stroke-linejoin="round"/>
<path d="M691.113 36.2843L689.983 44.7614L689.23 48.6147L688.853 52.4679L688.099 56.7065V60.5598V64.4131V66.3397L688.476 68.2663V70.1929L688.853 71.7343L689.23 73.6609L689.983 75.5875L690.36 77.1288L691.113 79.0554L691.867 80.5968L692.62 82.5234L693.75 84.0647L694.88 85.606L696.011 87.5326L697.141 89.0739L698.271 90.6152L699.778 92.1565L701.285 93.3125L702.792 94.8538L704.299 96.3951L705.805 97.5511L707.689 99.0924L709.573 100.248L711.08 101.404L712.963 102.56L717.107 104.872L720.874 106.799L725.018 108.34L729.162 109.882L733.683 111.423L737.827 112.579L740.087 112.964L741.971 113.349L744.231 113.735H746.492L748.752 114.12H750.636H752.896H754.78L757.04 113.735H758.924L760.807 113.349L762.691 112.964L764.575 112.579L766.458 112.193L768.342 111.423L770.226 111.038L771.732 109.882L773.616 109.111L775.123 108.34L776.63 107.184L778.137 106.028L779.267 104.872L780.774 103.716L781.904 102.175L783.034 100.634L784.164 99.0924L785.295 97.5511L786.425 96.0098L787.178 94.0832L788.308 92.5419L789.062 90.6152L789.815 88.6886L790.192 86.762L790.945 84.8353L791.322 82.5234L792.076 80.5968L792.452 78.2848L792.829 75.9728L793.206 71.3489L793.582 66.725V62.4864V57.8625V55.5506V53.6239V51.6973L793.206 49.3853V47.4587V45.9174L792.829 43.9908V42.4495V40.9082L792.452 39.3669V38.2109L792.076 37.0549V36.2843V35.5136V34.7429L791.699 34.3576V33.9723V33.587V33.2016V33.587V33.9723V34.3576V34.7429V35.8989V37.0549V38.2109" stroke="#EF0977" stroke-opacity="0.8" stroke-width="0.96" stroke-miterlimit="10" stroke-linecap="round" stroke-linejoin="round"/>
<path d="M893.038 103.331L893.791 117.203L894.168 124.139L894.922 131.074L895.298 138.01L895.675 145.332L896.052 152.267L896.805 159.589L897.182 167.295L897.935 175.002V178.855L898.312 182.708L898.689 186.561L899.066 190.415L899.442 194.653L899.819 198.506L900.196 202.745L900.572 206.984L900.949 211.222L901.326 215.461L901.703 220.085L902.456 224.323L902.833 228.947L903.21 233.571L903.963 238.195L904.34 242.819L905.093 247.443L905.847 251.681L906.223 253.993L906.6 256.305L906.977 258.232L907.354 260.544L907.73 262.471L908.484 264.783L909.237 266.709L909.614 268.636L910.367 270.177L911.121 272.104L911.874 273.645L912.628 275.186L913.758 276.728L914.511 278.269L915.641 279.425L916.772 280.966L917.902 282.122L919.032 282.893L920.162 283.664L921.669 284.434L923.176 285.205L924.683 285.59L926.19 285.976L927.697 286.361H929.58H931.087H932.971L934.854 285.976L936.738 285.59L938.622 285.205L940.882 284.82L942.766 284.434L945.026 283.664L946.91 282.893L949.17 282.122L951.054 281.352L953.314 280.196L955.574 279.425L957.458 278.269L959.718 277.498L961.602 276.342L963.862 275.186L966.123 274.03L968.006 272.874L969.89 271.718L972.15 270.948L974.034 269.792L975.918 268.636L977.801 267.48L979.685 266.324L981.192 265.168L983.075 264.397L1203.46 129.148" stroke="#EF0977" stroke-opacity="0.8" stroke-width="0.96" stroke-miterlimit="10" stroke-linecap="round" stroke-linejoin="round"/>
<path d="M102.668 36.2841L102.291 45.1466L101.538 53.6238V57.8624V62.101V66.3396L101.914 70.5782L102.291 74.4314L102.668 78.2847L103.421 82.1379L104.175 85.9912L105.305 89.8445L106.435 93.3124L107.942 96.7803L109.449 100.248L111.333 103.716L113.216 107.184L115.1 110.267L117.36 113.349L119.621 116.432L122.258 119.515L124.895 122.597L127.532 125.68L130.169 128.377L133.183 131.46L139.21 136.854L145.615 142.634L152.396 147.643L159.553 153.038L166.711 158.047L174.246 163.442L181.78 168.451L196.473 178.469L204.007 183.864L211.542 188.873L218.699 194.268L225.857 199.662L232.638 205.442L239.419 211.222L245.824 217.002L248.837 220.085L251.474 223.167L254.488 226.25L257.125 229.718L259.762 232.8L262.023 236.268L264.283 239.736L266.543 243.204L268.427 246.672L270.311 250.525L272.194 253.993L273.701 257.847L275.208 262.085L276.338 265.938L277.469 269.792L278.599 274.03L279.352 278.269L279.729 282.508L280.106 286.746L280.482 290.985V295.223V299.462L280.106 303.7L279.352 308.324L278.975 312.563L277.845 316.802L276.715 321.04L275.585 325.664L274.078 329.903L272.194 334.141L270.311 338.38L268.427 342.618L266.167 346.857L263.53 350.71L258.632 359.187L253.358 366.894L247.707 374.986L242.81 382.692L240.173 386.16L237.912 390.013L236.029 393.481L233.768 397.335L232.261 400.803L230.755 404.271L229.624 407.738L228.871 411.206L228.494 414.674L228.117 417.757V419.684L228.494 421.225L228.871 422.766L229.248 424.308L229.624 425.849L230.378 427.39L231.885 430.473L233.768 433.555L236.029 436.638L238.289 439.721L241.303 442.418L244.317 445.5L247.707 448.198L251.098 451.28L254.865 453.978L262.4 459.758L277.845 471.703L293.291 483.648L308.737 495.978L316.271 501.758L323.806 507.538L331.34 513.318L338.875 518.712L346.409 523.722L353.567 528.731L361.102 533.355L368.259 537.593L375.417 541.447L379.184 543.373L382.575 544.915L386.342 546.456L389.733 547.997L393.5 549.153L396.891 550.309L400.658 551.465L404.048 552.236L407.439 553.006L411.206 553.777L414.597 554.162L417.987 554.548H421.754H425.145L428.535 554.162L431.926 553.777L435.317 553.006L438.707 552.236L442.098 551.465L445.488 550.309L449.255 548.768L452.646 547.227L456.036 545.685L459.427 544.144L466.208 540.291L473.366 536.052L480.524 531.813L487.681 527.19L495.216 522.951L502.75 518.712L506.518 516.4L510.662 514.474L514.806 512.547L518.95 511.006L523.094 509.465L527.614 507.923L531.758 506.382L536.279 505.226L540.8 504.07L545.32 503.299L549.841 502.529L554.362 501.758L558.506 501.373L563.026 500.987H567.547H571.691H576.212L580.356 501.373L584.5 501.758L588.267 502.529L592.034 503.299L595.802 504.455L599.192 505.611L602.583 506.767L605.596 508.309L608.61 510.235L611.247 512.162L613.884 514.088L616.145 516.4L618.028 518.712L619.912 521.41L621.796 524.107L623.303 527.19L624.809 530.272L625.94 533.355L626.693 536.437L627.823 539.905L628.577 543.759L628.953 547.227L629.33 551.08L629.707 555.318V559.172V563.41V567.649V572.273L629.33 576.511L628.577 581.135L628.2 585.759L627.447 590.383L626.693 595.392L625.94 600.402L625.186 605.025L623.303 615.429L620.665 625.448L618.405 636.237L615.768 646.641L613.131 657.43L607.103 679.008" stroke="#EF0977" stroke-opacity="0.8" stroke-width="0.96" stroke-miterlimit="10" stroke-linecap="round" stroke-linejoin="round"/>
<path d="M-359.574 251.296L-346.389 250.525L-339.608 250.14H-333.203H-326.799L-323.409 250.525L-320.395 250.911L-317.004 251.681L-313.99 252.067L-310.977 252.837L-307.963 253.993L-304.949 255.149L-301.935 256.305L-298.921 257.461L-295.908 259.003L-293.271 260.544L-290.257 262.085L-287.62 264.012L-284.606 265.553L-281.969 267.48L-279.332 269.792L-274.058 274.03L-269.16 278.654L-264.263 284.049L-259.742 289.443L-255.598 294.838L-251.454 301.003L-247.687 306.783L-243.92 313.334L-240.906 319.884L-237.892 326.435L-234.878 332.985L-232.618 339.921L-230.357 346.857L-228.85 353.793L-227.344 360.729L-226.213 367.665L-225.46 374.6L-225.083 381.536V385.004L-225.46 388.472V391.555L-225.837 395.023L-226.213 398.491L-226.59 401.573L-227.344 405.041L-228.097 408.124L-228.85 411.206L-229.981 414.289L-231.111 417.372L-232.241 420.454L-233.371 423.537L-234.878 426.234L-236.385 429.317L-238.269 432.014L-241.659 437.409L-245.803 442.803L-249.947 447.812L-254.468 452.822L-258.989 458.216L-268.03 468.235L-272.551 473.244L-277.071 478.253L-281.215 483.262L-285.359 488.657L-289.127 494.437L-290.633 497.134L-292.14 499.831L-293.647 502.914L-295.154 505.997L-296.284 508.694L-297.415 512.162L-298.545 515.244L-299.298 518.327L-300.052 521.795L-300.428 524.878L-300.805 528.346L-301.182 531.814L-301.559 535.281V538.749L-301.182 542.217V545.685L-300.805 549.153L-300.428 552.621L-299.675 556.089L-299.298 559.557L-298.168 563.025L-297.415 566.108L-296.284 569.575L-295.154 573.043L-294.024 576.126L-292.517 579.594L-291.01 582.677L-289.503 585.759L-287.996 588.842L-286.113 591.924L-284.229 595.007L-282.346 597.704L-280.085 600.402L-277.825 603.099L-275.564 605.796L-273.304 608.108L-271.044 610.42L-268.407 612.732L-265.77 615.044L-263.133 616.971L-260.495 618.897L-257.858 620.824L-254.845 622.75L-252.207 624.292L-249.194 625.833L-246.18 627.374L-243.166 628.916L-240.152 630.072L-237.138 631.228L-233.748 631.998L-230.734 632.769L-227.72 633.54L-224.33 634.31L-221.316 634.696L-214.912 635.466L-208.507 635.852H-202.103L-195.322 635.466L-188.918 634.696L-182.137 633.925L-175.732 633.154L-168.951 631.613L-155.766 628.916L-142.58 625.833L-129.395 622.75L-103.778 616.971L-77.7836 610.805L-65.3517 608.108L-52.543 605.411L-39.7343 603.099L-26.9257 600.787L-14.117 598.86L-1.30833 597.319L11.5003 595.778L24.309 595.007L37.1177 594.622L50.3031 594.236H63.4884L76.6738 594.622L102.668 595.392" stroke="#EF0977" stroke-opacity="0.8" stroke-width="0.96" stroke-miterlimit="10" stroke-linecap="round" stroke-linejoin="round"/>
<path d="M1256.58 89.4591L1253.94 91.0004L1250.93 92.5417L1248.29 93.6977L1245.65 95.239L1244.15 96.0097L1243.02 96.7803L1241.51 97.551L1240 98.3216L1238.87 99.0923L1237.36 99.8629L1236.23 100.634L1235.1 101.404L1233.6 102.175L1232.47 103.331L1231.34 104.102L1230.21 104.872L1229.08 105.643L1227.57 106.413L1226.44 107.569L1225.69 108.34L1224.56 109.111L1223.43 109.881L1222.3 111.037L1221.17 111.808L1219.28 113.735L1217.4 115.276L1215.51 117.203L1214.76 117.973L1214.01 118.744L1212.88 119.9L1212.12 120.671L1211.37 121.441L1210.62 122.212L1209.86 122.982L1209.11 123.753L1208.36 124.524L1207.6 125.294L1206.85 126.065L1206.47 126.45L1206.1 126.836L1205.72 127.221L1205.34 127.606L1204.97 127.992L1204.59 128.377L1204.21 128.762L1203.84 129.148H1203.46L1203.08 129.533V129.918H1202.71L1202.33 130.304L1201.95 130.689L1201.58 131.074L1201.2 131.46L1200.45 131.845L1200.07 132.23L1199.69 133.001L1198.94 133.386L1198.56 133.772L1197.43 134.928L1197.06 135.313L1196.68 136.084L1195.93 136.469L1195.55 137.24L1194.79 138.01L1194.42 138.781L1193.66 139.552V140.322L1193.29 140.707L1192.91 141.093L1192.53 141.478V142.249L1192.16 142.634L1191.78 143.405L1191.4 143.79L1190.65 145.331L1190.27 146.487L1189.52 147.643L1188.77 149.185L1188.01 150.726L1187.64 152.267L1186.88 153.809L1185.38 156.891L1184.25 159.974L1183.87 161.515L1183.12 163.056L1182.74 164.598L1182.36 166.139L1181.99 167.68L1181.61 169.222L1180.86 172.304L1180.1 175.387L1179.73 178.469L1178.97 181.552L1178.6 184.249V187.332L1178.22 190.415V193.497V196.58L1177.84 199.662L1178.22 203.13V206.213V209.296L1178.6 215.461L1178.97 222.011L1179.35 228.177" stroke="#EF0977" stroke-opacity="0.8" stroke-width="0.96" stroke-miterlimit="10" stroke-linecap="round" stroke-linejoin="round"/>
</g>
<defs>
<radialGradient id="paint0_radial_42_12" cx="0" cy="0" r="1" gradientUnits="userSpaceOnUse" gradientTransform="translate(522.5 117) rotate(93.9556) scale(188.449 120.535)">
<stop stop-color="#96C93D"/>
<stop offset="0.479244" stop-color="#56BE65" stop-opacity="0.571779"/>
<stop offset="1" stop-color="#00B09B" stop-opacity="0"/>
</radialGradient>
<radialGradient id="paint1_radial_42_12" cx="0" cy="0" r="1" gradientUnits="userSpaceOnUse" gradientTransform="translate(1294.5 1922.5) rotate(-174.657) scale(279.213 162.846)">
<stop stop-color="#96C93D"/>
<stop offset="1" stop-color="#00B09B" stop-opacity="0"/>
</radialGradient>
<radialGradient id="paint2_radial_42_12" cx="0" cy="0" r="1" gradientUnits="userSpaceOnUse" gradientTransform="translate(360 1453) rotate(-42.9441) scale(137.975 80.4713)">
<stop stop-color="#96C93D"/>
<stop offset="1" stop-color="#00B09B" stop-opacity="0"/>
</radialGradient>
<clipPath id="clip0_42_12">
<rect width="1440" height="2469" fill="white"/>
</clipPath>
</defs>
</svg>
