<svg width="1080" height="1920" viewBox="0 0 1080 1920" fill="none" xmlns="http://www.w3.org/2000/svg">
<g clip-path="url(#clip0_137_242)">
<rect width="1080" height="1920" fill="white"/>
<g clip-path="url(#clip1_137_242)">
<rect width="1920" height="2937" transform="translate(0 -30)" fill="#221E22"/>
<path d="M978.931 246.342L996.26 225.92L1027.53 189.314L1157.5 35.5689" stroke="#44355B" stroke-opacity="0.7" stroke-width="0.96" stroke-miterlimit="10" stroke-linecap="round" stroke-linejoin="round"/>
<path d="M-301.182 1780.33L523.093 781.56L532.888 769.615L603.712 683.687L607.103 679.449L625.186 657.871L645.152 633.21L674.537 597.76L691.113 578.493L700.154 568.09L748.375 511.832L775.499 480.621L822.213 425.904L859.509 382.362L896.051 339.977L906.223 328.031L925.813 306.453L939.375 291.425" stroke="#44355B" stroke-opacity="0.7" stroke-width="0.96" stroke-miterlimit="10" stroke-linecap="round" stroke-linejoin="round"/>
<path d="M532.135 264.067L523.093 274.471L468.091 339.976L439.083 374.27L409.322 409.72L396.137 425.904L355.074 475.996L325.689 511.832L291.784 553.062L271.064 578.493L254.865 597.76L186.677 679.449L183.287 683.687L178.013 690.238" stroke="#44355B" stroke-opacity="0.7" stroke-width="0.96" stroke-miterlimit="10" stroke-linecap="round" stroke-linejoin="round"/>
<path d="M181.027 962.278L155.409 941.856L121.504 914.498L102.668 899.47L48.0427 855.928L43.522 852.075" stroke="#44355B" stroke-opacity="0.7" stroke-width="0.96" stroke-miterlimit="10" stroke-linecap="round" stroke-linejoin="round"/>
<path d="M44.6517 577.337L27.3223 597.76L18.6576 608.164L-44.2555 683.687L-65.3521 708.734L-85.6953 733.009" stroke="#44355B" stroke-opacity="0.7" stroke-width="0.96" stroke-miterlimit="10" stroke-linecap="round" stroke-linejoin="round"/>
<path d="M178.013 690.238L112.462 769.615L102.667 781.56L58.9673 834.35L43.5216 852.075L40.5078 855.928L18.6577 882.131L-31.07 941.856L-65.3521 983.086L-66.4822 984.627L-102.271 1027.78L-149.362 1084.43L-173.849 1113.71L-193.815 1137.99" stroke="#44355B" stroke-opacity="0.7" stroke-width="0.96" stroke-miterlimit="10" stroke-linecap="round" stroke-linejoin="round"/>
<path d="M-267.277 1075.56L-233.372 1035.49L-226.967 1027.78L-154.259 941.856L-149.362 936.076L-81.5512 855.928L-76.277 849.378L-65.352 836.662L-8.08974 769.615L18.6578 738.018L64.995 683.687L102.668 639.76L109.449 632.054" stroke="#44355B" stroke-opacity="0.7" stroke-width="0.96" stroke-miterlimit="10" stroke-linecap="round" stroke-linejoin="round"/>
<path d="M391.993 140.763L369.389 168.121L355.074 185.846L299.318 254.049L271.064 288.728L268.05 292.196L228.871 339.977L186.678 390.84L158.046 425.904L153.902 430.914L102.668 489.869L83.8315 511.832L34.4805 568.86" stroke="#44355B" stroke-opacity="0.7" stroke-width="0.96" stroke-miterlimit="10" stroke-linecap="round" stroke-linejoin="round"/>
<path d="M-35.2139 509.906L18.6579 446.327L21.2949 443.244L35.9872 425.904L81.571 371.959L102.668 346.913L108.695 339.977L181.403 254.049L186.677 247.498L199.863 232.085L253.735 168.121L258.255 162.727L271.064 147.699L326.066 82.5789" stroke="#44355B" stroke-opacity="0.7" stroke-width="0.96" stroke-miterlimit="10" stroke-linecap="round" stroke-linejoin="round"/>
<path d="M422.884 672.128L365.245 619.723L355.074 610.476L341.135 597.76L291.784 553.062L271.064 534.181L245.447 511.832L224.35 492.951L186.677 459.813L153.902 430.914L147.875 425.904L102.668 389.298L81.571 371.959L42.3915 339.977L18.6578 320.71L7.73277 311.848L-58.9476 254.049L-62.3382 250.966L-65.352 248.269L-127.135 188.929L-149.362 171.204L-153.882 168.121L-203.61 128.433L-233.372 102.616L-257.105 81.8082H-257.482" stroke="#44355B" stroke-opacity="0.7" stroke-width="0.96" stroke-miterlimit="10" stroke-linecap="round" stroke-linejoin="round"/>
<path d="M446.618 71.4042L439.084 80.6521L437.954 81.808L391.993 140.763" stroke="#44355B" stroke-opacity="0.7" stroke-width="0.96" stroke-miterlimit="10" stroke-linecap="round" stroke-linejoin="round"/>
<path d="M463.571 203.956L439.083 233.241L422.131 254.049L355.074 335.353L351.306 339.977L340.758 352.307L301.955 395.078L281.612 420.124L277.468 425.904L271.064 434.767L262.399 446.712L224.35 492.951L208.528 511.832L186.677 538.034L137.703 597.76L109.449 632.054" stroke="#44355B" stroke-opacity="0.7" stroke-width="0.96" stroke-miterlimit="10" stroke-linecap="round" stroke-linejoin="round"/>
<path d="M642.138 361.169L659.091 339.976L691.113 300.673L721.628 263.682L709.572 254.049L691.113 239.021L657.961 212.048L607.856 168.892L607.103 168.121L523.093 90.6705L513.675 81.808L501.243 70.6335" stroke="#44355B" stroke-opacity="0.7" stroke-width="0.96" stroke-miterlimit="10" stroke-linecap="round" stroke-linejoin="round"/>
<path d="M610.494 194.323L627.823 195.479L644.023 201.644L657.961 212.048L669.263 229.003L674.537 249.039L674.161 254.049L673.03 269.847L664.366 288.343L650.05 303.37L631.967 312.233L611.624 314.545L607.104 313.389L592.034 309.536L575.082 297.976L564.91 284.489L558.506 269.076L556.999 254.049V252.122L559.636 235.553L567.171 220.14L578.849 207.424L593.918 198.562L607.104 195.479L610.494 194.323Z" stroke="#44355B" stroke-opacity="0.7" stroke-width="0.96" stroke-miterlimit="10" stroke-linecap="round" stroke-linejoin="round"/>
<path d="M-294.401 1725.99V1715.59L-295.531 1629.66L-295.908 1609.24L-240.529 1543.74L-233.371 1535.26L-168.198 1457.42L-149.362 1435.46L-95.8665 1371.49L-65.3517 1335.66L-23.1585 1285.57L-22.0283 1284.41L18.658 1235.09L48.0426 1199.64L102.668 1133.36L118.867 1113.71L186.678 1031.64L190.068 1027.78L261.269 941.856L271.064 929.911L332.47 855.928L355.074 828.185L403.295 769.615L439.084 726.844L474.496 683.687L523.093 625.118L545.697 597.76L607.103 523.392L616.898 511.832L687.722 425.904L691.113 421.666L758.924 339.977L775.499 319.94L778.89 315.701L790.568 313.774L827.111 305.683L844.44 311.848L859.509 321.866L859.886 322.252L864.407 339.977L864.783 341.518L859.509 347.683L793.959 425.904L775.499 448.253L722.004 511.832L691.113 548.823L650.05 597.76L607.103 649.008L578.095 683.687L523.093 749.578L506.141 769.615L439.084 850.148L434.186 855.928L362.232 941.856L355.074 950.333L290.277 1027.78L271.064 1050.9L218.323 1113.71L186.678 1151.47L146.368 1199.64L102.668 1251.66L74.4134 1285.57L18.658 1352.23L2.45883 1371.49L-65.3517 1452.41L-69.4957 1457.42L-141.45 1543.74L-149.362 1552.98L-213.405 1629.66L-233.371 1653.55L-285.359 1715.59L-294.401 1725.99Z" stroke="#44355B" stroke-opacity="0.7" stroke-width="0.96" stroke-miterlimit="10" stroke-linecap="round" stroke-linejoin="round"/>
<path d="M605.219 328.802L595.801 339.977L549.841 394.693L524.6 425.905L523.093 427.446L483.914 475.997L454.152 511.832L439.083 530.328L383.328 597.76L365.245 619.724L355.074 631.669L310.997 683.688L304.969 691.009L271.064 733.395L254.111 754.202L240.549 769.615L198.356 818.937L186.677 833.58L168.971 855.928L121.504 914.498" stroke="#44355B" stroke-opacity="0.7" stroke-width="0.96" stroke-miterlimit="10" stroke-linecap="round" stroke-linejoin="round"/>
<path d="M542.683 529.172L523.47 511.832L523.093 511.447L483.914 475.997L439.083 436.308L427.405 425.904L409.322 409.721L355.074 364.252L340.758 352.307L326.066 339.977L271.064 294.123L268.05 292.196L224.727 254.049L199.863 232.085L186.677 220.911L126.025 168.121L123.764 165.809L102.668 147.313L57.4605 108.01L27.6992 81.808L22.8018 77.5695" stroke="#44355B" stroke-opacity="0.7" stroke-width="0.96" stroke-miterlimit="10" stroke-linecap="round" stroke-linejoin="round"/>
<path d="M-177.993 388.913L-149.362 355.775L-135.799 339.976L-116.963 318.013L-65.3518 254.434L-64.975 254.049L-62.338 250.966L6.97951 168.121L18.658 154.249L57.4607 108.01L78.9341 81.808L83.4548 76.7987" stroke="#44355B" stroke-opacity="0.7" stroke-width="0.96" stroke-miterlimit="10" stroke-linecap="round" stroke-linejoin="round"/>
<path d="M607.857 168.892L607.103 170.048L567.17 220.14L540.046 254.049L532.135 264.067" stroke="#44355B" stroke-opacity="0.7" stroke-width="0.96" stroke-miterlimit="10" stroke-linecap="round" stroke-linejoin="round"/>
<path d="M18.6581 1425.06L22.0486 1440.85L25.0624 1456.27L27.6995 1471.68L28.8297 1479.39L29.9599 1487.09L31.09 1494.8L31.8435 1502.51L32.5969 1510.21L32.9737 1517.92V1525.24V1532.95L32.5969 1540.27L31.8435 1547.59L31.09 1554.91L29.9599 1562.23L28.453 1569.55L26.5693 1576.49L24.309 1583.81L22.8021 1587.28L21.6719 1590.75L20.165 1594.21L18.6581 1597.68L14.8908 1604.23L11.1236 1611.17L7.35633 1617.72L-0.93163 1631.2L-5.07561 1637.76L-9.21959 1644.31L-12.6101 1651.24L-14.4937 1654.32L-16.0006 1657.79L-17.5075 1661.26L-18.6377 1664.34L-20.1446 1667.81L-20.8981 1671.28L-22.0283 1674.75L-22.7817 1677.83L-23.1584 1681.3L-23.5352 1684.76V1688.23V1691.7L-23.1584 1695.17L-22.7817 1698.64L-22.0283 1702.1L-21.2748 1705.57L-20.1446 1709.04L-19.0145 1712.89L-17.8843 1716.36L-16.3774 1719.83L-14.8705 1723.3L-12.9868 1726.77L-11.4799 1729.85L-9.21959 1733.32L-7.33596 1736.78L-5.07561 1740.25L-2.81526 1743.33L-0.554905 1746.8L4.71925 1753.35L9.99341 1759.52L15.6443 1765.68L21.2952 1771.46L27.3228 1777.24L33.3504 1782.64L39.378 1788.03L45.4056 1793.04L51.8099 1798.44L57.8375 1803.45L63.4884 1808.45L69.1393 1813.08L74.7902 1818.09L80.0643 1823.1L84.9618 1828.49L87.2221 1831.19L89.4825 1833.5L91.7428 1836.2L93.6265 1838.9L95.5101 1841.98L97.3937 1844.68L99.2773 1847.37L100.784 1850.46L101.914 1853.54L103.421 1856.23L104.551 1859.32L105.305 1862.79L106.435 1865.87L107.189 1869.34L107.565 1872.42L108.319 1875.89L108.695 1879.35L109.072 1882.82V1886.29V1890.14V1897.08V1904.79L108.319 1912.11L107.565 1919.81L106.812 1927.91L105.682 1935.61L103.798 1951.41L101.914 1967.59L101.161 1975.3L100.408 1983.39L100.031 1991.1V1998.81V2006.51L100.408 2010.37L100.784 2014.22L101.161 2018.07L101.914 2021.93L102.668 2025.39L103.421 2029.25L104.175 2032.71L105.305 2036.18L106.435 2040.04L107.565 2043.5L109.072 2046.97L110.579 2050.44L113.593 2056.99L116.983 2063.93L120.751 2070.48L124.895 2077.03L129.039 2083.58L133.183 2090.13L137.703 2096.29L146.745 2109.01L155.409 2121.72L159.553 2128.28L163.697 2134.83L167.841 2141.38L171.232 2147.93L174.622 2154.48L178.013 2161.03L179.143 2164.5L180.65 2167.96L181.78 2171.43L182.91 2174.9L183.664 2178.37L184.794 2181.84L185.171 2185.3L185.924 2189.16L186.301 2192.62L186.678 2196.48L187.054 2200.33V2203.8L186.678 2207.65V2211.51L185.924 2219.21L184.041 2235.01L183.287 2242.72L182.534 2250.42V2254.28L182.157 2258.13V2261.6L182.534 2265.45L182.91 2268.92L183.287 2272.77L184.041 2276.24L184.794 2279.71L185.924 2282.79L187.431 2286.26L188.938 2289.34L190.822 2292.42L193.082 2295.51L195.342 2298.59L197.979 2301.67L200.616 2304.37L203.254 2307.07L206.267 2310.15L209.281 2312.85L212.295 2315.54L218.699 2320.55L225.48 2325.56L232.261 2330.57L239.042 2335.58L245.447 2340.59L248.461 2342.9L251.098 2345.21L254.111 2347.91L256.749 2350.22L259.386 2352.92L261.646 2355.23L263.906 2357.93L265.79 2360.24L267.297 2362.94L268.804 2365.64L269.934 2367.95L271.064 2370.65L271.441 2373.73L271.818 2376.43V2379.12L271.441 2382.21L271.064 2384.9L270.311 2387.98L269.181 2390.68L268.05 2393.76L266.543 2396.46L264.66 2399.54L262.776 2402.63L260.893 2405.32L258.255 2408.41L255.995 2411.49L253.358 2414.19L250.344 2417.27L247.33 2419.97L244.317 2422.66L240.926 2425.36L237.536 2428.44L233.768 2431.14L230.001 2433.45L226.234 2436.15L222.467 2438.85L218.323 2441.16L214.555 2443.47L210.411 2445.78L205.891 2448.1L201.747 2450.02L197.603 2452.33L193.082 2454.26L188.938 2456.19L184.417 2457.73L179.897 2459.66L175.753 2460.81L171.232 2462.35L166.711 2463.51L162.567 2464.66L158.423 2465.82L153.903 2466.59L149.759 2467.36L145.615 2467.75L141.847 2468.13L137.703 2468.52H133.936H130.169L126.778 2468.13L123.011 2467.36L119.997 2466.59L116.607 2465.82L113.593 2464.66L110.956 2463.12L108.319 2461.58L105.682 2459.66L103.421 2457.73L101.538 2455.42L99.6541 2452.72L98.1472 2450.02L96.6403 2446.94L95.5101 2443.86L94.3799 2440.39L93.6265 2436.92L93.2497 2433.07L92.4963 2429.6V2425.36L92.1196 2421.51L92.4963 2417.66V2413.42L92.873 2409.18L93.6265 2404.94L94.0032 2400.7L94.7566 2396.46L95.8868 2392.22L97.017 2387.98L98.1472 2384.13L99.2773 2379.89L100.784 2376.04L102.291 2372.19L103.798 2368.33L105.682 2364.48L107.565 2361.01L109.449 2357.54L111.333 2354.08L113.593 2350.99L115.477 2347.91L117.737 2344.83L119.997 2341.75L122.634 2339.05L127.532 2333.27L132.429 2327.87L138.08 2322.86L143.354 2317.86L149.005 2313.23L155.033 2308.61L160.684 2304.37L184.794 2286.64L190.445 2282.02L196.472 2277.4L202.123 2272.77L207.774 2267.76L213.425 2262.75L219.076 2257.74L224.35 2252.74L229.624 2247.73L234.898 2242.33L240.173 2236.94L245.07 2231.54L249.968 2225.76L254.865 2219.98L259.386 2214.2L263.906 2208.42L268.427 2202.26L272.571 2196.48L276.715 2189.93L280.859 2183.76L285.003 2177.6L300.449 2151.78L308.36 2139.06L312.504 2132.9L316.648 2126.73L320.792 2120.95L325.313 2114.79L329.833 2109.39L334.731 2103.61L339.628 2098.22L344.902 2092.83L350.176 2087.82L355.827 2082.81L361.102 2077.8L367.129 2073.17L372.78 2068.55L378.808 2064.31L384.835 2059.69L390.863 2055.45L397.267 2051.21L403.671 2047.36L409.699 2043.5L416.48 2039.65L422.884 2035.8L429.289 2032.33L442.851 2025.01L456.036 2018.46L462.817 2014.99L469.598 2011.91L476.379 2008.82L483.161 2006.13L489.942 2003.43L497.099 2000.73L503.88 1998.03L511.038 1995.72L517.819 1993.8L524.977 1991.87L532.135 1989.94L539.293 1988.4L546.827 1986.86L553.985 1985.7L561.143 1984.93L568.677 1984.16L576.212 1983.39H583.746L591.281 1983.01L598.815 1983.39L606.35 1983.78L614.261 1984.55L629.707 1986.48L637.618 1987.63L645.152 1988.4L652.687 1989.17H656.454L660.222 1989.56H663.989L667.379 1989.17H670.77L674.537 1988.79L677.928 1988.02L681.318 1987.63L684.709 1986.48L687.722 1985.32L690.736 1984.16L694.127 1982.62L697.141 1980.7L699.778 1978.77L702.791 1976.84L705.429 1974.53L708.066 1972.22L710.703 1969.52L713.34 1966.82L715.977 1963.74L718.614 1961.04L720.874 1957.96L725.772 1951.8L730.292 1945.25L734.813 1938.69L739.334 1932.14L743.478 1925.59L747.622 1919.04L751.389 1912.49L755.156 1905.94L758.924 1899.39L761.937 1892.46L765.328 1885.91L767.965 1878.97L770.602 1872.42L772.486 1865.48L774.369 1858.55L776.253 1851.23L777.383 1844.29L778.137 1836.97L778.89 1829.65L779.267 1822.33V1815.01V1807.68L778.89 1799.98L778.513 1792.66L777.383 1777.24L774.746 1746.8L773.993 1731.39L773.616 1724.07V1716.36V1708.66V1700.95L774.369 1693.63L775.123 1685.92L775.876 1678.6L777.383 1671.28L778.89 1663.96L780.774 1656.64L783.034 1649.31L785.671 1641.99L788.308 1635.06L791.322 1628.12L794.712 1621.57L798.103 1614.64L801.87 1608.08L806.014 1601.92L810.158 1595.37L814.302 1589.59L818.823 1583.42L823.72 1577.64L828.618 1572.25L833.892 1566.86L839.166 1561.85L844.817 1556.84L850.468 1552.21L856.495 1547.59L862.523 1543.35L868.927 1539.11L875.332 1535.26L881.736 1531.79L888.517 1528.32L895.298 1525.24L902.079 1522.54L908.86 1519.85L916.018 1517.53L923.176 1515.61L930.334 1513.68L937.491 1512.14L944.649 1510.98L952.184 1509.83L959.342 1509.06L966.499 1508.67L974.034 1508.29H981.192H988.726L995.884 1508.67L1003.42 1509.06L1010.58 1509.44L1025.27 1510.98L1039.96 1512.52L1054.65 1514.45L1068.97 1516.38L1083.28 1518.69L1097.98 1521.39L1112.29 1524.08L1126.61 1527.17L1140.92 1530.63L1155.24 1534.49L1184.25 1542.58L1198.56 1546.43L1206.1 1547.97L1213.25 1549.9L1220.41 1551.44L1227.57 1552.6L1235.1 1553.75L1242.26 1554.52L1249.42 1555.3H1256.95H1264.11L1271.27 1554.91L1278.43 1554.14L1282.2 1553.75L1285.96 1552.98L1289.35 1552.21L1293.12 1551.44L1300.28 1549.52L1307.44 1547.2L1314.59 1544.51L1321.37 1541.42L1328.16 1537.96L1334.56 1534.1L1340.96 1530.25L1347.37 1525.63L1350.01 1523.31L1353.02 1521L1356.03 1518.69L1358.67 1515.99L1361.31 1513.68L1363.94 1510.98L1366.58 1508.29L1368.84 1505.59L1371.1 1502.51L1373.36 1499.81L1377.88 1493.64L1381.65 1487.48L1385.42 1481.31L1388.81 1474.76L1391.82 1467.83L1394.84 1460.89L1397.1 1453.95L1399.36 1446.63L1401.24 1439.31L1403.12 1431.61L1404.63 1423.9L1405.76 1416.19L1406.51 1408.49L1407.27 1400.78L1408.02 1392.69V1384.6V1376.5V1368.41L1407.64 1360.32L1407.27 1352.23L1406.51 1344.14L1405.38 1336.04L1404.25 1327.95L1403.12 1319.86L1400.11 1303.68L1397.1 1287.88L1394.08 1272.08L1392.58 1264.37L1391.45 1256.67L1389.94 1249.35L1388.81 1241.64L1388.06 1234.32L1386.92 1227L1386.55 1219.68L1386.17 1212.36V1205.03V1198.1L1386.92 1191.16L1387.68 1184.61L1388.43 1181.14L1388.81 1177.68L1389.56 1174.59L1390.69 1171.13L1391.45 1168.04L1392.58 1164.57L1393.71 1161.49L1395.21 1158.41L1398.23 1151.86L1401.24 1145.69L1405.01 1139.53L1408.77 1133.75L1412.92 1127.58L1417.44 1121.42L1421.96 1115.25L1426.48 1109.09L1431.38 1102.92L1436.28 1096.76L1441.17 1090.21L1446.07 1083.66L1450.97 1077.11L1455.49 1070.17L1460.39 1063.62L1464.91 1056.3L1469.43 1049.36L1473.57 1042.04L1477.72 1034.72L1481.86 1027.4L1485.63 1020.08L1489.02 1012.76L1492.41 1005.44L1495.42 997.729L1498.06 990.407L1500.7 983.086L1502.96 975.765L1504.84 968.444L1506.35 961.123L1506.72 957.269L1507.48 953.801L1507.85 950.333V946.865L1508.23 943.012V939.544V936.076V932.608L1507.85 929.526L1507.48 926.058L1507.1 922.59L1506.35 919.122L1505.97 916.039L1504.84 912.957L1504.09 909.489L1502.96 906.406L1501.83 903.324L1500.32 900.241L1498.81 897.158L1497.31 894.076L1493.91 888.296L1490.15 882.131L1486.38 876.351L1481.86 870.186L1477.34 864.406L1472.82 858.24L1468.3 852.075L1463.4 845.91L1458.5 839.359L1453.98 832.424L1449.46 825.488L1444.94 818.552L1440.8 810.845L1438.91 806.992L1437.03 803.139L1435.15 799.286L1433.26 795.432L1431.76 791.579L1430.25 787.726L1429.12 783.873L1427.99 780.019L1427.23 776.166L1426.48 772.313L1425.73 768.459L1425.35 764.606V761.138V757.285L1425.73 753.817L1426.1 750.349L1426.86 746.881L1427.99 743.799L1429.49 740.331L1431 737.248L1432.89 734.551L1435.15 731.468L1437.41 728.771L1440.42 726.459L1443.06 723.762L1446.45 721.45L1449.84 719.138L1453.23 716.826L1457 714.514L1460.76 712.587L1464.53 710.275L1468.67 708.349L1476.96 704.495L1485.63 701.027L1493.91 697.174L1502.58 693.706L1510.49 690.238L1514.63 688.312L1518.4 686.385L1522.17 684.844L1525.56 682.917L1528.95 680.99L1531.96 679.064L1534.98 677.137L1537.62 674.825L1540.25 672.899L1542.51 670.587L1544.4 668.275L1545.9 665.963L1547.41 663.651L1548.16 660.954L1548.92 658.256V657.1L1549.29 655.559L1548.92 654.018V652.862L1548.54 651.32V649.779L1547.79 648.238L1547.41 646.696L1546.28 643.614L1544.4 640.146L1542.51 637.063L1540.25 633.595L1537.99 630.513L1535.73 627.045L1533.09 623.962L1527.44 617.797L1522.17 611.632L1516.14 605.852L1510.49 600.457L1504.46 595.063L1498.06 590.054L1492.03 585.044L1486 580.42L1473.19 571.173L1461.14 561.925L1454.74 557.686L1449.08 553.062L1443.06 548.438L1437.41 543.814L1431.76 539.19L1426.48 534.181L1421.58 529.172L1416.69 524.163L1412.17 518.768L1408.02 512.988L1406.14 510.291L1404.25 507.208L1402.37 504.126L1400.49 501.043L1398.98 497.961L1397.47 494.878L1395.97 491.41L1394.46 487.942L1393.33 484.474L1392.2 481.006L1391.45 477.153L1390.32 473.685L1389.56 469.832L1388.81 465.979L1388.43 461.74L1388.06 457.887L1387.68 454.033V449.795V445.942V441.703L1388.06 437.85L1388.43 433.996L1389.19 429.758L1389.94 425.905L1390.69 422.051L1391.82 418.583L1393.33 414.73L1394.46 411.262L1395.97 407.794L1397.85 404.326L1399.73 401.244L1401.99 398.161L1404.25 395.464L1406.51 392.381L1409.15 390.069L1412.17 387.757L1415.18 385.445L1418.19 383.519L1421.21 381.592L1424.6 379.666L1427.99 378.124L1431.38 376.583L1435.15 375.427L1438.54 374.271L1442.3 373.115L1446.07 372.344L1449.46 371.574L1453.23 370.803L1457 370.418L1460.76 370.032L1464.15 369.647L1467.92 369.262H1475.08L1482.24 369.647L1489.77 370.032L1496.93 371.188L1504.09 372.344L1511.62 373.886L1518.78 375.427L1526.31 377.354L1533.85 379.666L1541.01 381.592L1548.54 384.289L1556.07 386.601L1563.61 389.299L1571.14 391.996L1578.3 395.079L1585.84 398.161L1592.99 401.629L1600.15 405.097L1606.93 408.565L1613.71 412.418L1620.49 416.271L1626.9 420.51L1633.3 425.134L1639.33 429.758L1644.98 434.382L1650.26 439.391L1655.53 444.4L1660.43 449.795L1662.69 452.877L1664.95 455.575L1667.21 458.272L1669.09 461.355L1670.98 464.437L1672.86 467.52L1674.74 470.602L1676.25 473.685L1678.13 476.768L1679.26 480.236L1680.77 483.704L1681.9 486.786L1684.16 493.722L1686.42 501.043L1687.93 508.364L1689.44 515.686L1692.45 530.328L1695.09 545.356L1696.97 553.062L1698.85 560.383L1700.74 567.705L1703 574.64L1705.63 581.962L1708.65 588.898L1711.66 595.448L1715.43 602.384L1718.82 608.549L1722.96 615.1L1727.11 621.265L1731.63 627.43L1736.15 633.595L1741.05 639.375L1745.94 645.155L1751.22 650.55L1756.49 655.944L1761.77 661.339L1767.42 666.348L1773.45 671.357L1779.47 676.367L1785.5 680.99L1791.53 685.614L1797.93 689.853L1810.36 698.715L1816.39 702.954L1822.42 707.578L1828.07 712.202L1833.72 716.826L1836.36 719.523L1839 721.835L1841.26 724.532L1843.89 727.23L1846.15 729.927L1848.41 733.01L1850.3 735.707L1852.56 738.789L1855.95 745.34L1859.72 751.89L1863.48 758.441L1865.37 761.524L1867.25 764.992L1869.51 767.689L1872.15 770.771L1874.41 773.854L1877.42 776.551L1880.06 779.249L1882.7 781.946L1888.72 787.34L1900.78 797.359L1906.43 802.368L1909.07 804.68L1911.7 807.377L1914.34 809.689L1916.6 812.387L1918.86 815.084L1920.74 817.781L1922.63 820.479L1924.14 823.176L1925.64 826.258L1926.77 828.956L1927.53 832.038L1928.28 835.121L1928.66 838.204L1929.03 841.671V844.754L1928.66 848.222L1928.28 851.69L1927.9 854.773L1927.15 858.24L1926.4 861.708L1925.27 865.176L1924.14 869.03L1922.63 872.498L1921.12 875.965L1919.61 879.433L1918.11 883.287L1916.22 886.755L1913.96 890.608L1912.08 894.076L1909.82 897.929L1905.3 904.865L1900.4 912.186L1895.13 919.507L1889.85 926.443L1884.2 933.379L1878.55 940.315L1872.9 946.865L1867.25 953.416L1861.6 959.581L1855.95 965.746L1850.3 971.526L1845.02 977.306L1839.37 982.701L1834.1 988.095L1828.82 993.105L1823.17 998.499L1813 1008.52L1802.45 1018.15L1792.28 1028.17L1782.11 1037.8L1772.31 1047.82L1767.04 1052.83L1762.14 1058.22L1757.25 1063.62L1752.35 1069.01L1747.45 1074.79L1742.55 1080.57L1738.03 1086.35L1733.14 1092.52L1728.24 1099.07L1723.72 1105.23L1719.57 1111.79L1715.43 1118.72L1712.04 1125.27L1710.16 1128.74L1708.65 1132.21L1707.14 1135.68L1706.01 1139.14L1704.5 1142.61L1703.37 1146.46L1702.62 1149.93L1701.87 1153.4L1701.11 1156.87L1700.74 1160.34L1700.36 1164.19L1699.98 1167.66V1171.13L1700.36 1174.59L1700.74 1178.06L1701.11 1181.91L1701.49 1185.38L1702.24 1188.85L1703.37 1192.32L1704.13 1196.17L1706.76 1203.11L1709.03 1210.04L1712.04 1217.36L1715.05 1224.3L1718.44 1231.62L1724.85 1245.88L1727.86 1252.81L1730.88 1260.14L1733.51 1267.46L1736.15 1274.39L1738.41 1281.71L1740.29 1289.04L1741.8 1296.36L1742.55 1299.82L1742.93 1303.68L1743.31 1307.53L1743.68 1311V1314.85L1744.06 1318.71L1743.68 1322.56V1326.41L1743.31 1330.26L1742.93 1334.12L1742.18 1337.97L1741.42 1341.82L1740.67 1345.68L1739.54 1349.92L1737.28 1357.62L1735.02 1365.71L1732.38 1373.81L1730.12 1381.51L1728.99 1385.37L1727.86 1389.22L1727.11 1393.07L1726.35 1396.54L1725.6 1400.39L1725.22 1403.86V1407.33L1724.85 1410.8L1725.22 1413.88L1725.6 1417.35L1726.35 1420.43L1727.48 1423.51L1728.61 1426.6L1730.5 1429.29L1732.38 1431.99L1734.64 1434.69L1736.9 1437L1739.54 1439.31L1742.55 1441.62L1745.57 1443.94L1748.96 1445.86L1752.35 1447.79L1755.74 1449.72L1759.51 1451.26L1763.27 1452.8L1767.04 1454.34L1770.81 1455.88L1774.95 1457.04L1778.72 1458.19L1782.86 1458.96L1786.63 1460.12L1790.4 1460.89L1794.17 1461.66L1797.93 1462.43L1805.47 1463.2L1812.62 1463.97H1819.78H1827.32H1834.47L1841.63 1463.2L1848.79 1462.43L1855.95 1461.66L1863.48 1460.51L1870.64 1458.96L1878.17 1457.42L1885.71 1455.88L1893.62 1454.34L1900.78 1452.03L1908.31 1449.72L1915.47 1447.4L1918.86 1445.86L1922.63 1444.71L1926.02 1443.17L1929.03 1441.24L1932.42 1439.7L1935.44 1437.77L1938.83 1435.84L1941.46 1433.92L1944.48 1431.99L1947.12 1429.68L1949.75 1427.37L1952.39 1425.06L1954.65 1422.74L1956.91 1420.05L1958.79 1417.35L1961.05 1414.27L1962.94 1411.57L1964.44 1408.49L1966.33 1405.4L1967.84 1402.32L1969.34 1398.85L1970.47 1395.77L1971.98 1392.3L1973.11 1388.83L1975.37 1381.51L1977.25 1374.19L1979.14 1366.87L1980.64 1359.16L1982.15 1351.46L1984.79 1335.66L1987.43 1319.48L1988.93 1311.77L1990.44 1304.06L1991.95 1296.36L1993.83 1288.65L1996.09 1281.33L1998.35 1274.01L1999.86 1270.54L2000.99 1267.07L2002.49 1263.6L2004.38 1260.52L2005.88 1257.44L2007.77 1253.97L2009.65 1251.27L2011.54 1248.19L2013.8 1245.11L2016.06 1242.41L2018.32 1239.71L2020.58 1237.02L2023.21 1234.7L2025.47 1232.01L2028.49 1229.69L2031.13 1227.38L2036.78 1222.76L2042.8 1218.52L2048.83 1214.28L2055.61 1210.43L2062.02 1206.96L2068.8 1203.49L2075.96 1200.02L2083.11 1196.94L2090.27 1193.86L2097.43 1190.78L2111.74 1185L2126.06 1179.22L2140.38 1173.82L2147.53 1171.13L2154.31 1168.43L2161.47 1166.12L2168.25 1163.8L2175.03 1161.49L2182.19 1159.57L2188.97 1158.02L2196.13 1156.48L2203.29 1154.94L2210.07 1154.17L2217.23 1153.4L2224.39 1152.63L2238.7 1151.86L2253.39 1150.7L2260.93 1149.93L2268.09 1149.16L2275.62 1148.39L2283.15 1146.85L2290.69 1145.31L2298.22 1143L2305.76 1140.68L2313.29 1137.99L2320.83 1134.52L2328.36 1131.05L2335.52 1127.58L2343.05 1123.34L2350.21 1119.11L2357.37 1114.48L2364.15 1109.47L2370.93 1104.46L2377.34 1099.07L2383.36 1093.67L2389.39 1087.89L2395.42 1081.73L2400.69 1075.95L2405.97 1069.78L2410.86 1063.23L2415.01 1056.68L2417.27 1053.6L2419.15 1050.13L2421.04 1047.05L2422.92 1043.58L2424.43 1040.11L2426.31 1037.03L2427.82 1033.56L2428.95 1030.1L2430.08 1026.63L2431.21 1023.16L2432.34 1019.69L2433.09 1016.22L2433.84 1013.14L2434.6 1009.67L2434.98 1006.21L2435.35 1002.74L2435.73 999.27V995.802V992.334L2435.35 988.866L2434.98 985.783L2434.6 982.315L2433.84 978.848L2433.09 975.38L2432.34 971.912L2431.21 968.829L2430.45 965.361L2428.95 961.893L2426.69 955.343L2423.67 948.792L2420.28 941.856L2416.52 935.306L2412.75 928.755L2408.98 921.819L2404.84 915.269L2400.32 908.718L2391.65 895.232L2382.61 881.745L2378.09 875.195L2373.95 868.259L2369.8 861.708L2365.66 854.773L2358.12 841.286L2350.59 827.414L2343.05 814.313L2335.9 800.827L2332.13 794.662L2328.36 788.111L2324.59 781.946L2320.45 775.781L2316.68 769.615L2312.16 763.836L2308.02 758.056L2303.5 752.661L2298.6 747.267L2293.7 742.257L2288.43 737.248L2282.78 732.624L2277.13 728L2271.1 723.762L2265.07 719.523L2258.67 715.67L2252.26 712.202L2245.48 708.734L2238.7 705.651L2231.92 702.954L2224.76 700.257L2217.6 697.945L2210.45 695.633L2202.91 694.092L2195.75 692.55L2188.22 691.009L2180.69 690.238L2173.15 689.468L2165.99 689.082H2158.46L2150.92 689.468L2143.77 689.853L2136.61 691.009L2129.45 692.165L2122.29 693.706L2115.14 695.633L2108.35 697.945L2101.57 700.642L2094.79 703.725L2088.39 706.807L2081.61 709.89L2075.2 713.358L2068.8 717.211L2062.39 721.064L2049.58 728.771L2023.97 744.955L2011.16 753.046L1998.35 761.138L1985.54 769.615L1979.51 773.854L1973.49 778.093L1967.46 782.331L1961.43 786.955L1955.78 791.579L1950.13 796.203L1944.86 801.212L1939.58 806.221L1934.31 811.231L1929.79 816.625L1924.89 822.405L1920.74 827.8L1916.6 833.965L1912.46 839.745L1908.69 846.295L1905.3 852.461L1901.91 859.011L1898.52 865.562L1895.5 872.498L1892.49 879.433L1889.85 886.369L1887.22 893.305L1884.58 900.626L1881.94 907.948L1877.42 922.59L1872.52 937.232L1868 952.26" stroke="#44355B" stroke-opacity="0.7" stroke-width="0.96" stroke-miterlimit="10" stroke-linecap="round" stroke-linejoin="round"/>
<path d="M439.084 1855.08L447.749 1862.79L456.413 1870.49L460.934 1874.35L465.831 1877.81L470.352 1881.28L475.25 1884.36L480.147 1887.45L485.044 1889.76L490.319 1892.07L495.97 1894L501.62 1895.92L507.648 1897.08L513.676 1897.85H520.08H526.861L533.642 1897.08L540.8 1895.92L547.581 1894.38L554.739 1892.46L561.896 1890.53L568.678 1887.83L575.082 1885.13L581.109 1882.05L587.137 1878.97L592.034 1875.5L594.672 1873.96L596.555 1872.03L598.816 1870.49L600.699 1868.57L602.206 1867.02L603.713 1865.1L604.843 1863.56L605.597 1861.63L606.35 1860.09L607.104 1858.16V1856.62V1854.69L606.727 1853.15L606.35 1851.61L605.22 1850.07L604.466 1848.53L602.96 1846.99L601.453 1845.45L599.569 1843.9L597.685 1842.75L595.425 1841.21L593.165 1840.05L590.528 1838.9L587.891 1837.74L582.24 1835.43L575.835 1833.5L569.431 1831.57L562.273 1830.03L555.492 1828.88L547.958 1827.72L540.8 1826.95L533.642 1826.56L526.484 1826.18L519.703 1826.56L512.922 1826.95L506.518 1827.72L500.49 1828.88L494.463 1830.03L488.812 1831.57L483.538 1833.5L478.263 1835.43L472.989 1837.35L467.715 1839.67L457.92 1844.29L448.502 1849.68L439.084 1855.08Z" stroke="#44355B" stroke-opacity="0.7" stroke-width="0.96" stroke-miterlimit="10" stroke-linecap="round" stroke-linejoin="round"/>
<path d="M1868 2671.97L1859.34 2624.96L1855.19 2601.46L1851.43 2577.95L1847.66 2554.45L1844.27 2530.94L1841.26 2507.44L1838.62 2483.93L1836.74 2460.43L1835.23 2436.92L1834.85 2425.36L1834.47 2413.42V2401.86V2389.91L1834.85 2377.97L1835.23 2366.41L1835.98 2354.46L1836.74 2342.52L1837.87 2330.96L1839.37 2319.01L1840.88 2307.07L1842.76 2295.51L1844.65 2283.56L1847.28 2271.62L1849.92 2259.67L1852.93 2247.73L1855.95 2236.17L1859.72 2224.22L1863.48 2212.28L1867.63 2200.33L1872.15 2188.39L1877.04 2176.44L1886.46 2152.55L1891.36 2140.99L1895.88 2129.05L1900.4 2117.49L1904.17 2105.93L1907.56 2094.37L1909.07 2088.59L1910.2 2082.81L1911.33 2077.41L1912.08 2071.63L1912.83 2066.24L1913.21 2060.84L1913.59 2055.06V2049.67L1913.21 2044.27L1912.83 2039.26L1911.7 2033.87L1910.57 2028.48L1909.07 2023.47L1907.18 2018.07L1905.3 2013.06L1903.04 2008.05L1900.4 2003.04L1897.76 1998.03L1892.11 1987.63L1886.46 1977.23L1880.44 1966.82L1874.78 1956.03L1872.15 1950.25L1869.51 1944.47L1867.25 1938.69L1865.37 1932.91L1863.48 1926.75L1861.98 1920.58L1860.85 1914.42L1859.72 1908.25L1858.96 1902.09L1858.59 1895.92L1858.96 1889.76L1859.34 1883.59L1860.09 1877.81L1861.22 1872.03L1863.11 1866.64L1864.99 1861.24L1867.63 1855.85L1870.64 1851.23L1874.03 1846.6L1878.17 1841.98L1882.32 1837.74L1886.84 1833.5L1891.36 1829.65L1896.26 1825.79L1916.6 1810.77L1921.5 1807.3L1926.4 1803.44L1930.92 1799.59L1935.06 1795.74L1939.2 1791.5L1942.59 1787.26L1945.99 1782.64L1948.62 1778.01L1950.88 1773.39L1951.64 1770.69L1952.39 1767.99L1953.14 1765.3L1953.52 1762.6L1953.9 1757.21V1751.04L1953.52 1745.26L1953.14 1739.1L1952.39 1732.93L1950.88 1720.21L1950.13 1714.05L1949.75 1707.88L1949.38 1702.1L1949.75 1696.32L1950.51 1690.54L1950.88 1687.85L1951.64 1685.15L1952.39 1682.45L1953.52 1680.14L1954.65 1677.83L1955.78 1675.13L1957.29 1673.2L1959.17 1670.89L1962.94 1666.65L1967.08 1662.8L1971.6 1659.33L1976.5 1655.86L1982.15 1652.78L1987.8 1650.09L1993.83 1647.77L1999.86 1645.85L2006.26 1643.92L2012.67 1642.76L2019.07 1641.61L2025.47 1640.84L2031.88 1640.07H2037.91H2043.93L2049.96 1640.45L2055.99 1641.22L2061.64 1641.99L2067.29 1643.15L2078.59 1645.46L2100.44 1650.86L2111.74 1653.17L2117.4 1653.94L2123.05 1654.71L2129.07 1655.48L2134.72 1655.86H2140.75H2146.78L2152.81 1655.48L2158.84 1655.09L2164.49 1654.32L2170.51 1653.17L2176.16 1651.63L2181.82 1650.09L2187.47 1648.16L2192.74 1646.23L2198.01 1643.53L2202.91 1640.84L2207.81 1637.75L2212.33 1634.67L2216.85 1630.82L2220.99 1626.97L2225.14 1623.11L2229.28 1618.49L2233.05 1614.25L2236.82 1609.63L2244.35 1599.99L2251.51 1590.36L2258.29 1580.34L2265.07 1570.32L2271.1 1559.92L2274.11 1554.52L2276.75 1549.13L2279.01 1543.74L2281.27 1538.34L2283.15 1532.95L2285.04 1527.55L2286.55 1522.16L2287.68 1516.38L2288.43 1510.6L2289.18 1504.82L2289.56 1499.04V1493.26L2289.18 1481.7L2288.43 1469.75L2287.68 1457.81L2287.3 1445.86V1440.08L2287.68 1433.92L2288.05 1428.14L2288.81 1422.36L2290.31 1416.58L2291.44 1410.41L2294.83 1398.85L2302.74 1376.12L2304.25 1370.34L2306.13 1364.56L2307.27 1359.16L2308.4 1353.38L2309.15 1347.6L2309.53 1342.21V1336.81L2308.77 1331.03L2308.02 1325.64L2306.51 1320.25L2304.63 1314.85L2302.74 1309.46L2300.11 1304.06L2297.47 1298.67L2294.46 1293.66L2291.07 1288.26L2287.3 1283.25L2283.53 1278.25L2279.76 1273.62L2275.62 1268.61L2271.48 1263.99L2266.96 1259.36L2257.91 1250.89L2253.39 1246.65L2248.87 1242.41L2243.98 1238.56L2239.08 1235.09L2234.18 1231.62L2229.28 1228.54L2224.39 1225.84L2219.11 1223.53L2213.84 1221.6L2208.56 1219.68L2203.29 1218.52L2197.64 1217.75L2192.36 1217.36H2186.71L2180.69 1217.75L2175.03 1218.52L2169.38 1219.29L2163.36 1220.83L2157.71 1222.37L2152.05 1224.3L2146.4 1226.23L2140.75 1228.54L2135.1 1231.24L2129.83 1233.93L2124.55 1236.63L2119.28 1239.71L2114 1242.41L2109.11 1245.88L2104.59 1248.96L2100.07 1252.43L2095.92 1256.28L2091.78 1260.52L2088.01 1264.37L2084.62 1269L2081.61 1273.62L2078.59 1278.25L2075.58 1283.25L2072.94 1288.26L2070.68 1293.27L2068.42 1298.67L2066.16 1304.06L2064.28 1309.84L2060.51 1321.02L2057.5 1332.96L2054.48 1344.91L2049.21 1369.57L2044.31 1393.84L2041.67 1405.79L2038.66 1417.73L2035.27 1428.91L2031.13 1440.08L2026.98 1450.87L2022.46 1461.28L2017.19 1471.68L2011.91 1482.08L2005.88 1492.49L1999.86 1502.51L1993.08 1513.29L1985.92 1523.7L1982.15 1528.71L1978.38 1533.72L1974.24 1538.34L1970.1 1542.19L1965.95 1546.05L1961.43 1549.51L1959.17 1551.06L1956.53 1552.21L1954.27 1553.37L1952.01 1554.14L1949.38 1554.91L1947.12 1555.68L1941.84 1556.07L1936.57 1556.45L1931.29 1556.07L1925.64 1554.91L1919.99 1553.75L1914.34 1552.6L1908.31 1550.67L1896.63 1547.2L1884.58 1543.35L1878.55 1541.81L1872.52 1540.65L1866.5 1539.5L1860.47 1538.73L1854.44 1538.34H1848.79H1842.76L1837.11 1538.73L1813.75 1540.27L1802.45 1540.65H1796.8H1791.53L1785.88 1539.88L1780.23 1539.11L1774.95 1537.96L1769.3 1536.41L1764.03 1534.87L1758.38 1532.95L1747.45 1528.71L1725.98 1519.84L1715.05 1515.61L1709.4 1513.68L1703.75 1512.14L1698.1 1510.6L1692.83 1509.44L1687.18 1508.67L1681.52 1507.9L1675.5 1507.51L1669.85 1507.13H1664.19H1658.54L1646.87 1507.9L1635.19 1508.67L1623.51 1510.21L1611.83 1511.75L1600.15 1513.29L1588.1 1515.22L1576.79 1517.15L1565.12 1519.46L1553.44 1522.16L1542.14 1524.85L1530.83 1527.94L1519.91 1531.4L1508.61 1535.26L1498.06 1539.88L1487.51 1544.51L1477.34 1549.51L1467.17 1555.29L1457.37 1561.46L1452.48 1564.93L1447.95 1568.4L1443.43 1571.86L1438.91 1575.72L1434.39 1579.57L1430.25 1583.81L1426.48 1588.05L1422.71 1592.67L1419.7 1597.68L1416.31 1602.69L1413.67 1607.7L1411.41 1613.09L1409.53 1618.87L1407.64 1624.65L1406.14 1630.43L1405.01 1636.6L1404.25 1642.38L1403.5 1648.54V1654.71V1660.87V1667.04L1404.25 1672.82L1405.01 1678.98L1406.14 1684.76L1407.64 1690.54L1409.15 1696.32L1411.04 1701.72L1412.92 1707.5L1415.18 1712.89L1417.82 1718.29L1423.09 1728.69L1428.74 1739.1L1434.77 1749.11L1447.95 1769.15L1432.89 1762.21L1418.19 1755.66L1410.66 1752.58L1402.75 1749.88L1395.21 1747.19L1387.3 1744.88L1379.39 1742.95L1371.1 1741.41L1362.81 1740.25L1354.15 1739.48L1345.49 1739.1H1336.82H1328.16L1319.11 1739.48L1283.7 1741.79L1274.66 1742.18L1266 1742.56H1257.71H1249.42L1241.51 1742.18L1233.6 1741.02L1226.06 1739.87L1218.91 1737.94L1215.14 1736.78L1211.75 1735.63L1208.36 1734.09L1205.34 1732.54L1202.33 1730.62L1199.32 1728.69L1196.3 1726.38L1193.29 1724.07L1190.65 1721.76L1188.01 1719.06L1185.75 1715.98L1183.12 1712.89L1178.6 1706.34L1174.45 1699.41L1170.31 1692.09L1166.16 1684.38L1162.4 1676.67L1158.63 1668.58L1151.09 1652.01L1147.33 1643.92L1143.18 1636.21L1139.04 1628.51L1134.52 1621.57L1129.62 1614.64L1126.98 1611.55L1124.35 1608.47L1121.71 1605.77L1119.07 1603.08L1116.06 1600.38L1113.05 1598.07L1109.66 1595.75L1106.64 1593.83L1102.87 1592.29L1099.48 1590.74L1095.72 1589.2L1091.95 1587.66L1084.41 1585.74L1076.5 1584.19L1068.22 1582.65L1059.55 1581.88L1051.26 1581.11L1033.93 1580.34L1016.98 1579.19L1000.4 1578.03L984.205 1577.26H975.917H968.006L960.095 1578.03L952.184 1578.8L943.896 1579.96L935.985 1581.5L928.073 1583.42L920.162 1585.74L912.251 1588.82L904.716 1592.29L897.182 1595.75L889.647 1599.99L882.866 1604.62L876.085 1609.63L869.681 1615.02L863.653 1620.8L858.002 1627.35L853.105 1633.9L848.584 1640.84L844.44 1648.16L840.673 1655.48L837.283 1663.19L834.645 1671.28L832.385 1679.37L830.501 1687.46L828.995 1695.55L827.864 1703.65L827.488 1712.12L827.111 1720.21V1728.69L827.488 1737.17L828.241 1745.65L828.995 1754.12L830.501 1762.21L831.632 1770.69L833.139 1779.17L836.529 1795.74L840.296 1812.69L844.44 1829.26L848.208 1845.83L851.975 1862.01L854.989 1878.58L856.496 1886.68L857.626 1894.77L858.756 1902.86L859.133 1910.95L859.886 1919.04V1927.13V1935.23L859.133 1943.32L858.379 1951.02L857.249 1959.12L855.742 1966.82L853.858 1974.91L851.975 1982.62L849.714 1990.71L847.077 1998.42L844.44 2006.13L839.166 2021.92L827.488 2053.91L821.46 2069.71L816.186 2085.89L813.926 2093.98L811.665 2102.46L809.405 2110.55L807.521 2119.03L806.014 2127.12L804.884 2135.6L803.754 2144.07L803.001 2152.55L802.247 2160.64V2169.12V2177.6V2185.69L803.001 2193.78L803.754 2201.87L804.884 2209.58L806.014 2217.67L807.521 2225.38L809.405 2233.08L811.288 2240.79L813.549 2248.88L816.186 2256.97L818.823 2265.07L821.837 2273.54L824.851 2282.02L827.864 2290.88L831.255 2299.74L835.022 2308.61L839.166 2317.08L841.05 2320.94L843.31 2324.79L845.194 2328.26L847.454 2331.34L850.091 2334.42L852.352 2337.12L854.989 2339.43L857.626 2340.97L860.263 2342.52L862.9 2343.67L865.914 2344.06L868.927 2344.44L871.941 2344.06L874.955 2343.67L877.969 2342.52L881.359 2341.36L884.373 2339.82L887.764 2337.89L891.154 2335.58L894.545 2333.27L898.312 2330.57L901.703 2327.87L905.093 2324.79L908.86 2321.32L916.018 2314.39L923.176 2307.07L930.71 2298.97L937.868 2290.88L952.561 2275.08L966.499 2258.9L980.438 2243.49L993.624 2227.69L1000.03 2219.98L1006.43 2212.66L1012.46 2204.95L1018.11 2197.25L1023.76 2189.93L1029.41 2182.22L1034.31 2174.9L1039.58 2167.58L1044.1 2160.26L1048.63 2152.55L1052.77 2145.23L1056.54 2137.91L1060.3 2130.97L1063.32 2123.65L1066.33 2116.33L1068.97 2109.01L1071.23 2101.69L1072.74 2094.75L1074.24 2087.43L1075.37 2080.11L1076.13 2073.17V2065.85V2058.53L1075.37 2051.59L1074.24 2044.27L1072.74 2036.95L1070.48 2029.63L1067.84 2022.7L1064.82 2015.37L1061.43 2008.05L1057.67 2000.73L1053.9 1993.41L1045.61 1978.77L1037.7 1963.74L1033.93 1956.03L1030.54 1948.33L1027.15 1940.62L1024.52 1932.53L1022.25 1924.44L1020.75 1916.35L1019.62 1908.25L1019.24 1904.01L1018.86 1900.16V1895.92V1891.68L1019.24 1887.45L1019.62 1883.21L1020.37 1878.97L1021.12 1874.73L1022.25 1870.49L1023.38 1865.87L1024.89 1861.63L1026.4 1857.39L1028.28 1852.77L1030.54 1848.53L1032.8 1843.9L1035.06 1839.67L1040.34 1830.8L1046.37 1822.33L1052.77 1814.23L1059.17 1806.14L1065.95 1798.82L1072.74 1791.89L1076.13 1788.8L1079.52 1785.72L1082.91 1783.02L1086.3 1780.33L1089.31 1778.01L1092.33 1776.09L1095.34 1774.16L1098.35 1772.62L1100.99 1771.08L1103.63 1770.31L1105.89 1769.54L1108.15 1769.15L1110.41 1768.77L1111.92 1769.15L1113.8 1769.54L1114.93 1770.69L1116.44 1771.85L1117.19 1773.39L1117.94 1774.93L1118.7 1777.24L1119.45 1779.55L1119.83 1782.25V1784.95V1788.03V1791.5V1794.97L1119.45 1798.82L1119.07 1802.67L1118.7 1806.91L1118.32 1811.15L1117.19 1820.4L1115.68 1830.03L1114.55 1840.05L1113.05 1850.45L1111.54 1861.24L1110.41 1872.03L1109.28 1883.21L1108.9 1894L1108.52 1904.79V1915.57L1108.9 1920.97L1109.28 1925.98L1110.03 1930.99L1110.79 1936L1111.54 1941.01L1112.67 1945.63L1113.8 1950.25L1115.31 1954.49L1117.19 1959.12L1118.7 1963.36L1120.58 1967.21L1122.84 1971.06L1125.1 1974.91L1127.36 1978.77L1130 1982.24L1132.64 1985.7L1135.27 1989.17L1138.29 1992.25L1140.92 1995.34L1144.31 1998.42L1150.72 2003.81L1157.5 2008.82L1164.28 2013.45L1171.81 2017.69L1179.35 2021.15L1186.88 2024.24L1194.79 2026.55L1202.71 2028.86L1210.62 2030.4L1218.53 2031.56L1226.44 2032.33H1234.73H1243.02L1250.93 2031.94L1259.21 2030.79L1267.5 2029.63L1276.17 2027.7L1284.46 2025.78L1292.74 2023.47L1301.41 2020.77L1309.7 2017.69L1318.36 2014.6L1326.65 2010.75L1334.94 2006.9L1342.85 2002.66L1351.14 1998.03L1359.05 1993.41L1366.58 1988.4L1374.12 1983.01L1381.27 1977.61L1388.43 1971.83L1395.21 1965.67L1401.62 1959.5L1407.64 1952.95L1413.3 1946.4L1418.95 1939.46L1423.84 1932.14L1428.36 1925.21L1432.89 1917.5L1436.65 1909.79L1439.67 1902.09L1442.3 1894L1444.56 1885.9L1446.45 1877.43L1447.58 1869.34V1864.71L1447.95 1860.47V1856.23L1447.58 1852L1447.2 1843.13L1446.07 1834.27L1444.56 1825.41L1443.43 1816.55L1442.68 1808.07L1441.93 1799.59V1795.35V1791.5L1442.3 1787.26L1443.06 1783.41L1443.81 1779.55L1444.94 1776.09L1446.07 1772.23L1447.95 1768.77L1450.21 1765.3L1452.48 1762.21L1455.11 1759.13L1458.13 1756.05L1461.52 1753.35L1464.91 1750.66L1468.67 1748.34L1472.44 1746.03L1476.59 1744.1L1480.73 1742.18L1484.87 1740.64L1489.39 1739.1L1493.91 1737.94L1498.44 1737.17L1502.96 1736.4H1507.48H1512H1516.52L1520.66 1737.17L1524.81 1737.94L1528.95 1739.1L1533.09 1741.02L1536.86 1742.95L1540.63 1745.26L1544.02 1747.57L1547.03 1750.27L1550.05 1753.35L1552.68 1756.82L1555.32 1760.29L1557.58 1763.76L1559.09 1767.22L1560.6 1771.08L1561.73 1774.93L1562.86 1778.78L1563.23 1783.02L1563.61 1786.88V1791.11L1563.23 1795.35L1562.48 1799.21L1561.73 1803.44L1560.6 1807.68L1559.47 1811.54L1557.96 1815.78L1556.07 1820.01L1554.19 1823.87L1551.93 1828.11L1549.67 1831.96L1547.03 1835.81L1544.4 1839.67L1541.76 1843.52L1535.73 1850.84L1529.33 1857.78L1522.55 1863.94L1515.39 1870.11L1508.23 1875.89L1501.07 1881.28L1493.91 1886.68L1486.76 1892.07L1479.98 1897.46L1473.57 1902.86L1467.54 1908.25L1464.91 1910.95L1462.27 1913.65L1459.63 1916.73L1457.37 1919.81L1455.49 1922.51L1453.61 1925.98L1451.72 1929.06L1450.21 1932.53L1449.08 1936L1448.33 1939.46L1447.58 1943.32L1447.2 1947.17L1446.82 1951.02V1955.26L1447.2 1963.36L1447.95 1972.22L1450.21 1989.56L1450.97 1998.42V2002.66V2006.9V2011.14L1450.59 2014.99L1449.84 2019.23L1449.08 2023.08L1447.95 2026.93L1446.45 2030.4L1444.56 2033.87L1442.68 2037.34L1440.04 2040.42L1437.41 2043.5L1434.77 2046.59L1431.76 2049.67L1428.74 2052.37L1425.35 2055.06L1418.19 2060.46L1403.5 2071.25L1396.34 2076.26L1389.19 2081.65L1382.4 2087.04L1379.39 2089.74L1376.38 2092.82L1373.74 2095.91L1371.1 2098.6L1369.22 2102.07L1366.96 2105.16L1365.45 2108.62L1363.94 2112.09L1363.19 2115.56L1362.44 2119.41L1362.06 2123.27V2127.12V2131.36V2135.21L1363.19 2143.69L1364.32 2152.55L1365.45 2161.41L1366.58 2169.89L1366.96 2174.51V2178.75V2182.99L1366.58 2187.23L1365.83 2191.08L1365.07 2195.32L1363.57 2199.17L1362.06 2203.03L1359.8 2206.88L1357.54 2210.73L1354.9 2214.2L1351.89 2217.67L1348.88 2221.14L1345.49 2224.22L1342.09 2227.69L1338.33 2230.77L1330.42 2236.94L1322.5 2242.72L1314.59 2248.5L1307.06 2253.89L1299.9 2259.29L1296.51 2261.98L1293.5 2264.29L1290.48 2266.99L1287.85 2269.69L1285.59 2272L1283.7 2274.7L1282.2 2277.01L1280.69 2279.71L1279.93 2282.02L1279.56 2284.72L1279.93 2287.03L1280.31 2289.73L1281.44 2292.04L1282.95 2294.74L1284.83 2297.43L1286.72 2299.74L1289.35 2302.44L1291.99 2305.14L1295 2307.84L1298.02 2310.53L1301.41 2313.23L1305.18 2315.93L1312.71 2321.32L1320.62 2327.1L1328.53 2333.27L1336.07 2339.43L1343.6 2345.6L1346.99 2348.68L1350.38 2352.15L1353.4 2355.62L1356.41 2359.09L1359.05 2362.55L1361.31 2366.02L1363.19 2369.87L1364.7 2373.34L1366.21 2377.2L1366.96 2381.05L1367.71 2384.9L1368.09 2389.14L1368.47 2392.99V2397.23L1367.71 2405.32L1366.96 2413.8L1364.7 2431.14L1363.94 2439.62L1363.57 2448.48V2452.72L1363.94 2456.96L1364.32 2461.2L1365.07 2465.44L1366.21 2469.67L1367.34 2473.91L1368.84 2478.15L1370.35 2482L1372.23 2486.24L1374.12 2490.1L1376.38 2493.95L1378.64 2497.8L1381.27 2501.66L1383.91 2505.12L1386.55 2508.59L1389.56 2512.06L1392.95 2515.14L1395.97 2518.22L1399.36 2521.31L1402.75 2524L1406.51 2526.7L1410.28 2529.01L1414.05 2531.33L1417.82 2533.64L1421.96 2535.56L1426.1 2537.11L1430.25 2538.65L1434.39 2540.19L1438.54 2541.34L1442.68 2542.12L1447.2 2542.89L1451.34 2543.27H1455.87H1460.39L1469.05 2542.89L1477.72 2542.12L1486.38 2540.96L1495.05 2539.8L1503.33 2539.03H1507.1H1511.24H1515.01L1518.78 2539.42L1522.17 2539.8L1525.94 2540.57L1529.33 2541.73L1532.34 2543.27L1535.73 2544.81L1538.75 2546.74L1541.38 2549.05L1544.4 2551.75L1547.03 2554.83L1549.67 2557.53L1552.31 2561L1554.57 2564.46L1559.47 2571.4L1564.36 2579.11L1574.16 2594.13L1579.43 2601.84L1582.07 2605.31L1584.71 2608.39L1587.72 2611.86L1590.73 2614.94L1593.75 2617.64L1597.14 2620.34L1600.53 2622.65L1603.92 2624.57L1607.69 2626.5L1611.83 2627.66L1615.97 2628.81L1620.12 2629.58H1624.64H1629.54H1634.06L1638.95 2629.2L1648.75 2627.66L1658.54 2626.12L1667.96 2624.57L1672.11 2623.8L1676.63 2623.42L1680.77 2623.03L1684.54 2622.65L1687.93 2623.03L1691.32 2623.42L1694.33 2624.19L1696.59 2625.73L1697.72 2626.5L1698.85 2627.27L1699.61 2628.43L1700.36 2629.58L1701.11 2630.74L1701.87 2632.28L1702.62 2635.75L1703 2639.22L1703.37 2643.07L1703 2647.31L1702.62 2651.93L1702.24 2656.94L1701.49 2661.57L1699.98 2671.97" stroke="#44355B" stroke-opacity="0.7" stroke-width="0.96" stroke-miterlimit="10" stroke-linecap="round" stroke-linejoin="round"/>
<path d="M859.509 1167.27L850.845 1191.93L847.077 1204.65L843.687 1218.13L842.18 1225.07L841.05 1232.39L839.92 1239.71L838.789 1247.42L838.036 1255.51L837.659 1263.99V1272.47V1280.94L838.036 1289.42L838.789 1297.51L839.92 1305.22L841.803 1312.92L843.687 1319.48L846.324 1325.64L847.831 1328.34L849.338 1330.65L851.221 1332.96L853.105 1334.89L855.365 1336.82L857.249 1338.36L859.886 1339.13L862.146 1339.9L865.16 1340.67H867.797H870.811L873.825 1340.28L876.839 1339.51L879.852 1338.74L886.633 1336.04L893.038 1332.58L899.819 1328.34L906.6 1323.33L913.004 1317.93L919.032 1311.77L924.683 1304.83L929.58 1297.9L934.101 1290.58L937.868 1282.87L940.882 1275.16L942.012 1271.31L942.766 1267.46L943.519 1263.6V1259.75V1255.9L943.142 1252.04L942.766 1248.19L941.635 1244.72L940.505 1240.87L938.998 1237.4L935.231 1230.08L930.71 1223.53L925.813 1216.98L919.785 1210.81L913.758 1204.65L907.353 1199.25L900.572 1193.86L894.168 1189.24L887.764 1184.61L881.359 1180.76L875.708 1177.29L873.071 1175.36L870.434 1173.82L868.174 1172.67L866.29 1171.51L864.03 1170.35L862.523 1169.2L861.016 1168.43L859.886 1167.66L859.133 1166.89L858.379 1166.5L858.002 1166.12V1165.73V1165.35H858.379" stroke="#44355B" stroke-opacity="0.7" stroke-width="0.96" stroke-miterlimit="10" stroke-linecap="round" stroke-linejoin="round"/>
<path d="M1047.5 405.868L1034.69 397.776L1027.91 393.537H1027.53L1027.15 393.152L1026.4 392.381L1024.89 391.225L1022.25 388.913L1016.6 383.904L1010.58 379.28L1005.3 374.271L999.651 369.647L994 364.638L988.726 360.014L986.089 357.702L983.829 355.39L981.191 353.078L978.931 350.766L976.294 348.454L974.034 346.142L971.773 343.83L969.513 341.518L967.253 339.206L964.992 336.894L963.109 334.582L961.225 332.656L958.965 330.344L957.458 328.032L955.574 326.105L953.691 323.793L952.184 321.866L950.677 319.555L949.17 317.628L948.04 315.701L946.533 313.389L945.403 311.463L944.649 309.536L943.519 307.609L942.765 305.683L942.012 303.756L941.259 301.83L940.882 299.903L940.128 297.976V296.435L939.752 294.508L939.375 292.582V291.04V289.114L939.752 287.572V286.031L940.128 284.105L940.505 282.563L941.259 281.022L941.635 279.481L942.389 277.939L943.142 276.398L943.896 274.857L944.649 273.315L945.779 271.774L946.909 270.233L948.04 268.691L949.17 267.536L950.3 265.994L951.807 264.453L953.314 263.297L954.821 261.756L956.328 260.6L957.835 259.058L959.718 257.902L961.602 256.746L963.485 255.205L965.369 254.049L967.253 252.893L969.136 251.352L971.397 250.196L973.28 249.04L975.541 247.884L977.801 246.728L980.061 245.572L982.698 244.416L984.959 243.26L987.596 242.104L989.856 240.948L992.493 239.792L995.13 238.636L997.767 237.865L1000.78 236.709L1003.42 235.553L1006.06 234.397L1009.07 233.627L1014.72 231.315L1020.75 229.388L1026.78 227.462L1033.18 225.535L1039.21 223.608L1045.61 221.682L1052.39 219.755L1058.8 217.828L1065.58 216.287L1072.36 214.361L1079.14 212.434L1086.3 210.893L1100.24 207.039L1114.18 203.571L1126.23 203.957H1131.88H1137.91L1143.94 204.342L1146.57 204.727H1149.59L1152.22 205.113H1154.86L1157.88 205.498L1160.51 205.883L1163.15 206.269L1165.79 207.039L1168.05 207.425L1170.68 208.195L1172.94 208.581L1175.21 209.351L1177.84 210.122L1179.73 210.893L1181.99 212.049L1184.25 212.819L1186.13 213.975L1188.01 215.131L1189.9 216.287L1191.78 217.828L1193.29 218.984L1194.79 220.526L1196.3 222.452L1197.81 223.994L1199.32 225.92L1200.45 227.847L1201.58 229.774L1202.71 231.7L1203.84 233.627L1204.59 235.939L1205.34 238.251L1206.47 240.563L1207.23 242.875L1207.98 245.572L1208.73 247.884L1209.49 250.581L1209.86 252.893L1210.62 255.59L1211.75 260.985L1212.88 266.38L1214.01 271.774L1215.14 277.554L1216.27 282.949L1217.78 288.728L1218.53 291.426L1219.28 294.123L1220.04 296.82L1220.79 299.518L1221.92 302.215L1222.67 304.912L1223.8 307.609L1224.93 309.921L1226.06 312.619L1227.19 314.931L1228.32 317.628L1229.83 319.94L1231.34 322.252L1232.47 324.564L1233.97 326.876L1235.48 329.188L1238.49 333.812L1241.89 338.436L1245.28 342.674L1248.29 346.913L1251.68 351.151L1255.07 355.39L1258.46 359.243L1261.48 363.482L1264.87 367.72L1267.5 371.574L1269.01 373.886L1270.52 375.812L1271.65 377.739L1273.15 380.051L1274.28 381.977L1275.41 384.289L1276.54 386.216L1277.67 388.528L1278.43 390.455L1279.56 392.766L1280.31 395.078L1281.06 397.39L1281.82 399.317L1282.2 401.629L1282.95 403.941L1283.33 406.253L1283.7 408.565L1284.08 410.877V413.189V415.501L1284.46 417.813V420.51V422.822L1284.08 425.134V427.446L1283.7 430.143L1283.33 432.455L1282.95 434.767L1282.57 437.464L1282.2 439.776L1281.44 442.088L1281.06 444.785L1280.31 447.097L1279.56 449.795L1278.8 452.107L1278.05 454.804L1276.92 457.116L1276.17 459.813L1275.04 462.125L1273.91 464.822L1272.78 467.134L1271.65 469.832L1270.52 472.144L1269.39 474.841L1268.26 477.153L1266.75 479.85L1265.62 482.162L1264.11 484.859L1261.1 489.869L1258.08 494.493L1254.69 499.502L1251.3 504.511L1247.91 509.52L1244.15 514.144L1240.38 518.768L1236.61 523.777L1232.84 528.401L1228.7 533.025L1224.56 537.264L1220.41 541.888L1216.27 546.126L1211.75 550.365L1207.6 554.603L1203.08 558.842L1198.56 562.695L1194.42 566.549L1189.9 570.402L1185.38 573.87L1180.86 577.338L1176.34 580.806L1171.81 583.888L1167.29 586.971L1162.77 589.668L1160.51 591.209L1157.88 592.751L1155.62 593.907L1153.36 595.063L1151.09 596.219L1148.83 597.375L1146.57 598.531L1144.31 599.687L1142.05 600.457L1139.42 601.613L1137.16 602.384L1134.9 603.155L1132.64 603.925L1130.37 604.696L1127.74 605.466L1125.48 605.852L1123.22 606.622L1120.96 607.008L1118.7 607.393L1116.06 607.778L1113.8 608.164H1111.54L1109.28 608.549H1106.64H1104.38H1102.12H1099.86L1097.22 608.164H1094.96L1092.7 607.778H1090.07L1087.8 607.393L1085.54 607.008L1082.91 606.237L1078.39 605.466L1073.49 604.31L1068.59 602.769L1063.69 601.228L1058.8 599.687L1053.9 598.145L1049.38 596.219L1044.48 594.677L1039.21 592.751L1034.31 590.824L1024.51 586.585L1014.34 582.732L1009.45 580.806L1004.55 578.879L999.274 576.952L994.377 575.411L989.103 573.87L983.829 572.328L978.931 570.787L973.657 569.246L968.383 568.09L965.746 567.705L963.109 567.319L960.472 566.934L957.835 566.549L955.197 566.163L952.56 565.778H949.923L947.286 565.393H944.649H941.635H938.998H936.361H931.087L925.436 565.778L920.162 566.549L909.237 567.319L903.963 568.09L898.689 568.475L893.414 568.86H891.154L888.517 569.246H885.88H883.243H880.983L878.345 568.86H876.085L873.448 568.475H871.188L868.927 567.705L866.29 567.319L864.03 566.934L861.77 566.163L859.509 565.393L857.249 564.622L855.365 563.466L853.105 562.31L850.844 561.154L848.961 559.998L847.077 558.842L844.817 557.301L842.933 555.759L841.05 554.218L839.166 552.291L837.282 550.75L835.775 548.824L833.892 546.897L832.385 544.97L830.501 542.658L828.994 540.732L827.488 538.42L825.981 536.108L824.474 533.796L822.967 531.484L821.46 529.172L819.953 526.86L818.823 524.163L817.316 521.851L816.186 519.153L815.056 516.456L813.925 513.759L812.795 511.062L811.665 508.364L810.535 505.667L809.781 502.97L808.651 500.272L807.898 497.575L807.144 494.493L806.391 491.795L805.637 489.098L804.884 486.015L804.131 483.318L803.754 480.621L803 477.538L802.624 474.841L801.87 472.144L801.493 469.061L801.117 466.364V463.666L800.74 460.584L800.363 457.887V455.189V452.492V449.795V447.097V444.015L800.74 441.318V438.62L801.117 436.308L801.493 433.611L801.87 430.914L802.247 428.216L803 425.519L803.377 423.207L804.131 420.51L804.884 418.198L805.637 415.501L806.768 413.189L807.521 410.491L808.651 408.18L809.781 405.868L810.912 403.556L812.042 401.244L813.549 398.932L815.056 396.62L816.562 394.693L818.069 392.381L819.576 390.455L821.46 388.143L823.344 386.216L825.227 384.289L827.111 382.363L828.994 380.436L831.255 378.895L833.515 376.968L835.399 375.427L837.659 373.886L839.919 372.344L842.18 371.188L844.44 370.032L847.077 368.876L849.338 367.72L851.598 366.95L853.858 366.179L856.495 365.408L858.756 364.638L861.393 364.252H863.653L865.914 363.867H868.551H870.811L873.448 364.252L875.708 364.638L878.345 365.023L880.606 365.408L882.866 365.794L885.503 366.564L887.764 367.335L890.401 368.106L892.661 368.876L895.298 370.032L897.558 370.803L900.196 371.959L902.456 373.115L907.353 375.427L912.251 377.739L917.148 380.436L926.943 385.445L931.84 387.757L936.738 390.455L941.635 392.766L944.272 393.537L946.533 394.693L949.17 395.849L951.807 396.62L954.067 397.39L956.704 398.546L958.965 399.317L961.602 400.088L966.499 401.244L971.773 402.785L976.671 403.941L981.568 404.712L986.842 405.482L991.74 406.253L996.637 406.638L1001.91 407.024L1006.81 407.409L1012.08 407.794H1016.98H1022.25L1027.15 407.409H1032.43L1037.32 407.024L1042.6 406.638L1047.87 405.868L1052.77 405.482L1058.04 404.712L1062.94 403.941L1068.22 403.17L1073.49 402.4L1078.39 401.629L1088.93 399.702L1099.11 397.776L1109.28 395.464L1119.83 393.537" stroke="#44355B" stroke-opacity="0.7" stroke-width="0.96" stroke-miterlimit="10" stroke-linecap="round" stroke-linejoin="round"/>
<path d="M-359.574 1167.27L-350.156 1168.43L-345.259 1168.81L-340.738 1169.2L-335.841 1169.58H-331.32L-326.799 1169.2L-322.655 1168.43L-320.395 1168.04L-318.134 1167.27L-316.251 1166.89L-314.367 1166.12L-310.223 1164.19L-306.456 1161.88L-302.689 1159.57L-298.921 1156.48L-295.531 1153.4L-291.764 1150.32L-288.373 1146.85L-285.359 1143L-281.969 1139.14L-278.955 1134.9L-272.551 1126.81L-266.523 1118.34L-260.872 1110.24L-257.858 1106.39L-254.845 1102.54L-251.831 1098.68L-249.194 1095.22L-246.18 1091.75L-243.166 1088.67L-240.152 1085.97L-237.138 1083.66L-234.125 1081.34L-230.734 1079.8L-227.72 1078.26L-224.33 1077.49L-221.316 1076.72L-217.925 1076.33H-214.535L-211.144 1076.72L-207.754 1077.11L-204.363 1078.26L-200.596 1079.42L-197.206 1080.96L-193.815 1082.5L-190.048 1084.43L-186.657 1086.74L-183.267 1089.44L-179.499 1092.13L-176.109 1095.22L-172.718 1098.3L-168.951 1101.77L-165.561 1105.23L-162.17 1109.09L-158.403 1112.94L-155.012 1117.18L-151.622 1121.42L-148.231 1125.66L-144.841 1130.28L-141.45 1134.9L-138.06 1139.91L-134.669 1144.54L-128.265 1154.56L-122.237 1164.96L-116.21 1175.75L-110.559 1186.54L-104.908 1197.33L-100.01 1208.12L-95.113 1218.91L-92.8526 1224.3L-90.5923 1229.69L-88.7086 1235.09L-86.825 1240.1L-84.9414 1245.11L-83.0577 1250.12L-81.5508 1255.13L-80.0439 1260.14L-78.537 1264.76L-77.0301 1269.38L-75.5232 1274.01L-74.0163 1278.25L-72.5094 1282.48L-70.6258 1286.72L-68.7422 1290.58L-66.4818 1294.43L-64.2215 1297.9L-61.2077 1301.75L-58.5706 1305.22L-55.5568 1308.3L-52.1663 1311.77L-48.7757 1314.85L-41.9947 1321.4L-34.8369 1327.57L-28.0558 1334.12L-24.6653 1337.59L-21.6515 1341.05L-18.6377 1344.52L-16.0006 1348.38L-12.9868 1351.84L-10.7265 1355.7L-8.08939 1359.93L-5.82904 1363.79L-3.56868 1368.03L-1.68506 1371.88L0.575297 1376.12L2.45892 1380.36L6.22618 1389.22L9.61671 1398.08L12.6305 1406.94L18.6581 1425.06" stroke="#44355B" stroke-opacity="0.7" stroke-width="0.96" stroke-miterlimit="10" stroke-linecap="round" stroke-linejoin="round"/>
<path d="M-359.574 952.26L-350.156 951.104L-345.635 950.333L-341.115 949.948H-336.594H-332.073L-327.929 950.333L-323.409 950.718L-319.265 951.874L-317.381 952.26L-315.121 953.03L-311.353 954.957L-307.209 956.884L-303.442 959.196L-300.052 961.893L-296.284 964.975L-292.517 968.058L-289.127 971.141L-285.736 974.609L-278.955 981.544L-271.797 988.48L-268.407 991.948L-265.016 995.416L-261.626 998.499L-257.858 1001.2L-254.468 1003.89L-250.701 1006.21L-246.933 1008.52L-243.166 1010.06L-241.282 1010.83L-239.399 1011.21L-237.515 1011.99L-235.255 1012.37H-233.371H-231.111H-229.227H-226.967H-225.083L-222.823 1011.99L-220.563 1011.21L-218.679 1010.83L-214.158 1009.29L-210.014 1007.75L-205.87 1005.43L-201.726 1003.12L-197.582 1000.43L-193.815 997.343L-190.048 993.875L-186.657 990.407L-183.267 986.939L-180.253 983.086L-174.225 975.765L-171.211 971.911L-168.198 968.443L-165.561 964.975L-162.547 961.893L-159.156 958.81L-156.142 956.113L-154.636 954.957L-152.752 953.801L-151.245 953.03L-149.361 952.26L-147.478 951.489L-145.594 950.718L-143.711 950.333L-141.827 949.948H-139.567L-137.683 949.562H-135.423H-133.539L-129.018 949.948L-124.874 950.718L-120.354 951.874L-115.833 953.416L-111.312 955.342L-106.791 957.654L-102.647 959.966L-98.1267 962.663L-93.9828 965.361L-89.8388 968.829L-85.6948 971.911L-81.9276 975.379L-78.1603 979.233L-74.393 983.086L-71.3792 986.939L-68.3654 990.792L-65.3516 995.031L-63.0913 999.269L-60.8309 1003.12L-58.9473 1007.36L-57.4404 1011.99L-55.9335 1016.22L-54.8033 1020.46L-54.0499 1025.09L-53.2964 1029.32L-52.9197 1033.95L-52.543 1038.57V1043.2V1047.44V1052.06L-52.9197 1056.68L-53.2964 1061.31L-54.4266 1070.94L-55.9335 1080.19L-57.4404 1089.44L-59.324 1099.07L-61.2077 1108.32L-62.7146 1117.95L-64.2215 1127.2L-65.3516 1136.45L-65.7284 1141.07L-66.1051 1145.69V1150.32V1154.56V1159.18L-65.7284 1163.8L-65.3516 1168.04L-64.5982 1172.28L-63.468 1176.9L-62.7146 1181.14L-61.2077 1185.38L-60.0775 1189.62L-58.5706 1193.86L-56.6869 1198.1L-54.8033 1201.95L-52.9197 1206.19L-51.0361 1210.43L-48.7757 1214.28L-44.255 1222.37L-38.9808 1230.08L-34.0834 1238.17L-28.4325 1245.88L-23.1584 1253.58L-17.5075 1261.29L-11.8566 1268.61L-8.84281 1272.08L-5.82901 1275.55L-2.8152 1279.02L0.575326 1282.1L3.58913 1285.18L6.97966 1288.26L10.3702 1290.96L14.1374 1293.27L17.9047 1295.59L21.672 1297.51L25.4392 1299.44L29.5832 1300.98L33.7272 1302.52L38.2479 1303.68L42.7686 1304.45L46.9126 1304.83L51.4333 1305.6H55.954H60.8514H65.3721L69.8928 1304.83L74.7902 1304.45L79.3109 1303.68L84.2084 1302.52L88.7291 1301.37L93.2498 1299.82L97.7705 1298.28L102.291 1296.36L106.812 1294.43L110.956 1292.12L115.477 1289.81L119.621 1287.49L127.909 1282.48L135.82 1277.09L143.731 1272.08L151.642 1267.07L155.409 1264.76L159.553 1262.45L163.321 1260.52L167.088 1258.59L170.855 1257.05L174.622 1255.9L178.39 1254.74L182.157 1253.58L185.924 1253.2H190.068H193.835L197.603 1253.58L201.37 1254.36L205.137 1255.13L209.281 1256.67L213.048 1257.82L217.192 1259.75L220.96 1261.68L225.104 1263.6L228.871 1265.92L233.015 1268.61L236.782 1271.31L240.926 1274.01L245.07 1276.7L252.981 1282.87L261.269 1289.03L278.222 1301.37L286.133 1307.92L290.277 1311L294.044 1314.08L297.435 1317.16L300.826 1320.63L303.839 1323.71L306.476 1327.18L308.737 1330.26L309.867 1331.81L310.62 1333.73L311.751 1335.27L312.127 1336.82L312.881 1338.74L313.257 1340.28L313.634 1342.21V1343.75V1345.68V1347.22V1349.15L313.257 1350.69L312.504 1354.54L311.374 1358.01L309.867 1361.86L307.983 1365.71L305.723 1369.57L303.463 1373.42L301.202 1377.27L298.565 1381.51L295.551 1385.37L289.9 1394.23L283.873 1402.71L280.859 1407.33L278.222 1411.95L275.208 1416.58L272.571 1421.59L270.311 1426.6L268.05 1431.22L266.167 1436.61L264.283 1441.62L262.776 1446.63L261.646 1452.03L260.516 1457.04L259.762 1462.05L259.009 1467.06L258.632 1472.06V1476.69L259.009 1481.7L259.386 1486.32L260.516 1490.56L261.646 1494.8L263.153 1498.65L264.66 1502.51L265.79 1504.43L266.92 1505.97L268.05 1507.51L269.181 1509.44L270.687 1510.98L272.194 1512.14L273.701 1513.68L275.208 1514.84L276.715 1515.99L278.599 1517.15L280.482 1518.3L282.366 1519.07L286.133 1521L290.277 1522.16L294.798 1523.31L299.319 1524.08L303.839 1524.47L308.737 1524.85L313.634 1524.47L318.532 1524.08L323.429 1523.31L328.703 1522.16L333.601 1521L338.498 1519.07L343.395 1517.15L348.293 1514.84L352.814 1512.52L357.334 1509.44L361.855 1506.36L365.999 1502.89L369.766 1499.42L373.91 1495.57L377.678 1491.33L381.445 1487.48L384.835 1483.24L388.226 1479L391.616 1474.38L398.021 1465.9L401.034 1461.66L404.048 1457.42L406.685 1453.57L409.699 1449.33L412.336 1445.86L415.35 1442.39L417.987 1438.93L420.624 1435.84L423.261 1433.15L425.898 1430.83L428.535 1428.91L430.796 1427.37L432.303 1426.6L433.433 1426.21L434.94 1425.83L436.07 1425.44L437.2 1425.05H438.707H439.837L441.344 1425.44L442.474 1425.83L443.981 1426.21L445.111 1426.6L446.618 1427.37L447.748 1428.14L449.255 1428.91L451.892 1431.22L454.53 1433.53L457.543 1436.23L460.18 1439.31L463.194 1442.78L465.831 1446.25L468.845 1450.1L471.859 1453.95L474.873 1457.81L480.9 1466.28L487.681 1475.15L494.086 1483.62L497.476 1487.48L501.243 1491.72L504.634 1495.57L508.401 1499.04L512.169 1502.51L515.936 1505.97L519.703 1508.67L523.847 1511.37L527.991 1513.68L532.135 1515.61L536.279 1517.53L540.423 1518.69L544.944 1519.85L549.088 1520.62L553.608 1521L558.129 1521.39H562.65L567.17 1521L571.691 1520.62L576.212 1520.23L581.109 1519.07L585.63 1518.3L590.151 1516.76L594.671 1515.61L599.569 1514.07L604.09 1512.52L608.61 1510.6L613.131 1508.67L617.652 1506.74L621.796 1504.43L626.316 1502.12L630.46 1499.81L634.981 1497.11L639.125 1494.8L642.892 1492.1L647.036 1489.02L650.803 1486.32L654.571 1483.24L658.338 1480.16L661.729 1476.69L665.119 1473.61L668.133 1470.14L671.147 1466.67L674.16 1463.2L676.798 1459.35L679.435 1455.5L681.695 1451.64L683.579 1447.79L685.462 1443.94L687.346 1439.7L688.853 1435.46L689.983 1431.22L691.113 1426.98L691.49 1422.36L692.243 1418.12V1413.5L692.62 1408.87V1404.25L692.243 1399.62L691.867 1395L690.36 1376.12L689.606 1366.87V1362.25V1357.62V1353L689.983 1348.76L690.36 1344.52L691.113 1340.28L691.867 1336.04L693.373 1332.19L694.88 1327.95L696.387 1324.1L698.271 1320.25L700.531 1316.78L702.792 1312.92L705.052 1309.07L707.689 1305.6L710.326 1302.14L715.977 1294.81L722.005 1287.49L728.032 1280.17L733.683 1272.85L739.711 1265.14L742.348 1260.91L744.985 1257.05L747.622 1252.81L749.882 1248.58L752.143 1244.34L754.403 1239.71L756.287 1235.47L758.17 1230.85L760.054 1226.23L761.561 1221.22L763.444 1216.59L764.951 1211.58L767.588 1201.95L769.849 1191.55L772.109 1181.53L774.369 1171.12L775.876 1160.72L777.76 1150.32L781.15 1129.51L782.657 1119.11L784.164 1109.09L786.048 1099.07L787.932 1089.44L790.192 1079.8L791.322 1075.18L792.452 1070.55L793.582 1065.93L795.089 1061.69L796.596 1057.07L798.103 1052.83L799.61 1048.98L801.494 1044.74L803.001 1040.88L804.884 1037.03L807.145 1033.56L809.405 1029.71L811.665 1026.63L813.926 1023.16L816.563 1020.08L819.2 1016.99L822.214 1014.3L825.227 1011.6L828.241 1008.9L831.632 1006.59L835.022 1004.28L838.789 1002.35L842.557 1000.43L846.701 998.884L850.845 997.343L855.365 996.187L859.886 995.031L864.784 994.26L869.681 993.49L874.955 993.104L880.229 992.719L885.503 992.334H890.778H896.052H901.326L906.223 992.719H911.498L916.018 993.104L920.916 993.49H922.799L925.06 993.875H927.32L929.204 994.26H931.087L932.971 994.646H934.854H936.361L937.868 995.031H939.375H940.505H942.012H942.766L943.896 995.416H944.649H945.403L946.156 995.031H946.533H947.286H947.663L948.04 994.646L948.417 994.26L948.04 993.49" stroke="#44355B" stroke-opacity="0.7" stroke-width="0.96" stroke-miterlimit="10" stroke-linecap="round" stroke-linejoin="round"/>
<path d="M-359.574 823.176L-353.17 824.332L-350.156 824.717H-346.766L-343.752 825.102L-340.738 825.487H-337.347H-334.334H-331.32H-328.306L-325.292 825.102L-323.785 824.717L-322.278 824.332L-320.771 823.946L-319.265 823.561L-317.758 823.176L-316.251 822.79L-314.744 822.405L-313.237 821.634L-312.107 821.249L-310.6 820.478L-307.586 818.937L-304.949 817.396L-301.935 815.854L-299.298 813.928L-296.661 812.001L-294.024 810.074L-291.387 807.762L-288.75 805.836L-286.113 803.524L-283.476 801.212L-278.202 796.588L-273.304 791.964L-270.667 789.652L-268.03 787.726L-265.393 785.414L-263.132 783.487L-260.495 781.56L-257.858 779.634L-255.598 777.707L-252.961 776.166L-250.324 774.624L-249.194 773.854L-247.687 773.468L-246.557 772.698L-245.426 772.312L-243.92 771.542L-242.789 771.157L-241.282 770.771L-240.152 770.386L-238.645 770.001H-237.515L-236.008 769.615H-234.878H-233.748H-232.241H-230.734H-229.604L-228.097 770.001H-226.967L-225.46 770.386L-224.33 770.771L-222.823 771.157L-221.693 771.542L-220.186 771.927L-219.056 772.698L-217.549 773.083L-216.419 773.854L-214.912 774.624L-213.781 775.395L-212.275 776.166L-211.144 776.936L-209.637 777.707L-208.507 778.863L-205.87 780.79L-203.233 782.716L-200.596 785.028L-198.336 787.34L-195.699 789.652L-193.438 792.349L-191.178 795.047L-188.918 797.744L-186.657 800.827L-184.774 803.909L-182.513 806.607L-180.63 809.689L-178.746 812.772L-176.862 816.24L-175.355 819.322L-173.849 822.405L-172.342 825.487L-171.211 828.955L-169.705 832.038L-168.574 835.121L-167.444 838.203L-166.314 841.286L-165.184 844.754L-163.3 850.534L-162.17 853.616L-161.417 856.699L-160.286 859.782L-159.156 862.479L-158.026 865.176L-156.896 868.259L-155.389 870.571L-154.259 873.268L-152.752 875.965L-150.868 878.277L-150.115 879.433L-149.361 880.589L-148.231 881.745L-147.478 882.901L-146.348 884.057L-145.594 885.213L-143.334 887.14L-141.073 889.452L-138.813 891.378L-136.176 892.92L-133.539 894.846L-130.902 896.387L-128.265 897.929L-125.251 899.47L-122.237 900.626L-119.223 902.167L-116.21 903.323L-113.196 904.094L-110.182 905.25L-106.791 906.021L-103.401 906.791L-100.387 907.562L-96.9966 908.333L-93.606 908.718L-90.2155 909.103L-86.825 909.489L-83.4345 909.874H-80.4206H-77.0301H-73.6396L-70.2491 909.489H-66.8585L-63.8447 909.103L-60.4542 908.718L-57.4404 907.947L-54.4266 907.562L-51.4128 906.791L-48.0223 906.021L-45.0085 905.25L-41.9947 904.094L-39.3576 903.323L-36.3438 902.167L-33.33 901.397L-27.6791 899.085L-21.6515 896.773L-16.0006 894.461L-4.69883 889.452L0.952051 887.14L6.97966 884.828L9.61674 883.672L12.6305 882.901L15.6443 881.745L18.6581 880.974L21.2952 879.818L24.309 879.048L27.3228 878.277L30.3366 877.507L33.3504 877.121L36.741 876.351L42.7686 875.195L48.7962 874.039L55.2005 873.268L61.2281 872.497L67.6325 871.727L73.6601 870.956L80.0644 870.185L86.092 869.029L92.1196 868.259L95.1334 867.873L98.1472 867.103L101.161 866.717L104.175 865.947L106.812 865.176L109.826 864.791L112.84 864.02L115.477 863.249L118.49 862.093L121.127 861.323L124.141 860.552L126.778 859.396L129.415 858.24L132.429 857.47L135.066 856.314L137.703 854.772L140.34 853.616L143.354 852.46L145.991 850.919L148.628 849.763L151.266 848.222L153.903 846.68L156.916 845.139L159.553 843.212L162.191 841.671L164.828 839.745L167.841 837.818L170.479 835.891L173.116 833.965L176.129 832.038L178.766 829.726L181.404 827.799L184.417 825.487L187.054 823.176L190.068 820.478L192.705 818.166L195.719 815.469L198.733 813.157L201.37 810.46L204.384 807.762L210.035 802.368L215.686 796.588L221.336 791.193L223.974 788.111L226.611 785.414L229.248 782.716L231.885 780.019L234.522 777.322L237.159 774.624L239.419 771.927L242.056 769.23L244.317 766.533L246.577 764.221L248.837 761.909L250.721 759.211L251.851 758.441L252.981 757.285L254.112 756.129L254.865 754.973L255.995 753.817L256.749 752.661L257.879 751.89L258.632 750.734L259.386 749.964L260.516 748.808L261.269 748.037L262.023 747.266L262.776 746.11L263.53 745.34L264.283 744.569L264.66 743.798L265.413 743.028L266.167 742.257L266.92 741.872L267.297 741.101L267.674 740.716L268.427 739.945L268.804 739.56L269.181 738.789L269.557 738.404L269.934 738.018L270.311 737.633L270.687 737.248H271.064L271.441 736.863L271.818 736.477H272.194V736.092V736.477V736.863V737.248L271.818 737.633L271.441 738.404" stroke="#44355B" stroke-opacity="0.7" stroke-width="0.96" stroke-miterlimit="10" stroke-linecap="round" stroke-linejoin="round"/>
<path d="M396.89 6.28419V15.1467L396.514 24.0092V32.8717V41.3489L396.89 45.5875V49.826L397.267 54.0646L397.644 58.3032L398.397 62.5418L398.774 66.7804L399.904 75.2576L401.411 83.3494L402.918 91.8266L404.425 100.304L406.309 109.166L407.815 117.643L409.699 126.891L410.453 131.13L411.206 135.754L412.713 145.387L413.843 155.02L415.35 164.653L416.103 169.277L417.234 173.901L417.987 178.525L419.117 183.149L420.247 187.387L421.378 192.011L422.884 195.865L424.391 200.103L425.898 203.956L426.652 205.498L427.782 207.424L428.912 209.351L429.666 210.892L430.796 212.434L431.926 213.975L433.056 215.516L434.563 217.058L435.693 218.214L437.2 219.755L438.33 220.911L439.837 222.067L441.344 223.223L443.228 224.379L444.735 225.149L446.241 225.92L448.125 226.691L450.009 227.461L451.892 228.232L453.776 229.003L455.66 229.388L457.543 229.773L459.804 230.159L461.687 230.544L463.948 230.929L465.831 231.315H470.352L474.496 231.7L479.017 231.315H483.914L488.435 230.544L492.955 229.773L497.853 229.003L502.374 227.847L507.271 226.691L511.792 225.535L516.689 223.993L521.21 222.067L525.73 220.525L529.874 218.599L534.395 216.672L538.539 214.36L542.683 212.048L546.45 209.736L550.594 207.424L554.362 204.727L557.752 202.03L561.519 199.333L564.91 196.635L568.3 193.553L571.691 190.47L574.705 187.387L577.719 184.305L580.732 181.222L583.746 177.754L586.383 174.286L589.02 170.818L591.281 167.35L593.918 163.497L596.178 160.029L598.062 156.176L599.945 152.323L601.829 148.855L603.713 145.002L605.22 140.763L606.726 136.91L607.857 133.056L608.987 128.818L610.117 124.965L611.247 120.726L612.001 116.487L612.754 112.634L613.131 108.396L613.884 104.157L614.261 99.9184V95.6798L614.638 91.0559V86.8173V82.5788V78.3402V73.7163L614.261 69.4777L613.884 60.6152L613.131 51.7527L612.001 42.5048L610.87 33.6423L609.74 24.7798L607.103 6.28419" stroke="#44355B" stroke-opacity="0.7" stroke-width="0.96" stroke-miterlimit="10" stroke-linecap="round" stroke-linejoin="round"/>
<path d="M691.113 6.28425L689.983 14.7614L689.23 18.6147L688.853 22.4679L688.1 26.7065V30.5598V34.4131V36.3397L688.476 38.2663V40.1929L688.853 41.7343L689.23 43.6609L689.983 45.5875L690.36 47.1288L691.113 49.0554L691.867 50.5968L692.62 52.5234L693.75 54.0647L694.881 55.606L696.011 57.5326L697.141 59.0739L698.271 60.6152L699.778 62.1565L701.285 63.3125L702.792 64.8538L704.299 66.3951L705.806 67.5511L707.689 69.0924L709.573 70.2484L711.08 71.4044L712.963 72.5603L717.107 74.8723L720.875 76.7989L725.019 78.3402L729.163 79.8815L733.683 81.4228L737.827 82.5788L740.088 82.9641L741.971 83.3495L744.232 83.7348H746.492L748.752 84.1201H750.636H752.896H754.78L757.04 83.7348H758.924L760.808 83.3495L762.691 82.9641L764.575 82.5788L766.458 82.1935L768.342 81.4228L770.226 81.0375L771.733 79.8815L773.616 79.1109L775.123 78.3402L776.63 77.1842L778.137 76.0283L779.267 74.8723L780.774 73.7163L781.904 72.175L783.034 70.6337L784.165 69.0924L785.295 67.5511L786.425 66.0098L787.178 64.0832L788.309 62.5419L789.062 60.6152L789.815 58.6886L790.192 56.762L790.946 54.8353L791.322 52.5234L792.076 50.5968L792.453 48.2848L792.829 45.9728L793.206 41.3489L793.583 36.725V32.4864V27.8625V25.5506V23.6239V21.6973L793.206 19.3853V17.4587V15.9174L792.829 13.9908V12.4495V10.9082L792.453 9.36686V8.21088L792.076 7.05491V6.28425V5.5136V4.74295L791.699 4.35762V3.9723V3.58697V3.20165V3.58697V3.9723V4.35762V4.74295V5.89893V7.05491V8.21088" stroke="#44355B" stroke-opacity="0.7" stroke-width="0.96" stroke-miterlimit="10" stroke-linecap="round" stroke-linejoin="round"/>
<path d="M893.038 73.331L893.792 87.2027L894.168 94.1386L894.922 101.074L895.298 108.01L895.675 115.332L896.052 122.267L896.805 129.589L897.182 137.295L897.936 145.002V148.855L898.312 152.708L898.689 156.561L899.066 160.415L899.442 164.653L899.819 168.506L900.196 172.745L900.573 176.984L900.949 181.222L901.326 185.461L901.703 190.085L902.456 194.323L902.833 198.947L903.21 203.571L903.963 208.195L904.34 212.819L905.093 217.443L905.847 221.681L906.223 223.993L906.6 226.305L906.977 228.232L907.354 230.544L907.73 232.471L908.484 234.783L909.237 236.709L909.614 238.636L910.367 240.177L911.121 242.104L911.874 243.645L912.628 245.186L913.758 246.728L914.511 248.269L915.642 249.425L916.772 250.966L917.902 252.122L919.032 252.893L920.162 253.664L921.669 254.434L923.176 255.205L924.683 255.59L926.19 255.976L927.697 256.361H929.58H931.087H932.971L934.855 255.976L936.738 255.59L938.622 255.205L940.882 254.82L942.766 254.434L945.026 253.664L946.91 252.893L949.17 252.122L951.054 251.352L953.314 250.196L955.575 249.425L957.458 248.269L959.718 247.498L961.602 246.342L963.862 245.186L966.123 244.03L968.006 242.874L969.89 241.718L972.15 240.948L974.034 239.792L975.918 238.636L977.801 237.48L979.685 236.324L981.192 235.168L983.075 234.397L1203.46 99.1478" stroke="#44355B" stroke-opacity="0.7" stroke-width="0.96" stroke-miterlimit="10" stroke-linecap="round" stroke-linejoin="round"/>
<path d="M102.668 6.28414L102.291 15.1466L101.538 23.6238V27.8624V32.101V36.3396L101.914 40.5782L102.291 44.4314L102.668 48.2847L103.421 52.1379L104.175 55.9912L105.305 59.8445L106.435 63.3124L107.942 66.7803L109.449 70.2483L111.332 73.7162L113.216 77.1841L115.1 80.2668L117.36 83.3494L119.62 86.432L122.257 89.5146L124.895 92.5972L127.532 95.6798L130.169 98.3771L133.183 101.46L139.21 106.854L145.614 112.634L152.396 117.643L159.553 123.038L166.711 128.047L174.246 133.442L181.78 138.451L196.472 148.469L204.007 153.864L211.541 158.873L218.699 164.268L225.857 169.662L232.638 175.442L239.419 181.222L245.823 187.002L248.837 190.085L251.474 193.167L254.488 196.25L257.125 199.718L259.762 202.8L262.023 206.268L264.283 209.736L266.543 213.204L268.427 216.672L270.311 220.525L272.194 223.993L273.701 227.847L275.208 232.085L276.338 235.938L277.468 239.792L278.599 244.03L279.352 248.269L279.729 252.508L280.105 256.746L280.482 260.985V265.223V269.462L280.105 273.7L279.352 278.324L278.975 282.563L277.845 286.802L276.715 291.04L275.585 295.664L274.078 299.903L272.194 304.141L270.311 308.38L268.427 312.618L266.167 316.857L263.53 320.71L258.632 329.187L253.358 336.894L247.707 344.986L242.81 352.692L240.173 356.16L237.912 360.013L236.029 363.481L233.768 367.335L232.261 370.803L230.754 374.271L229.624 377.738L228.871 381.206L228.494 384.674L228.117 387.757V389.684L228.494 391.225L228.871 392.766L229.248 394.308L229.624 395.849L230.378 397.39L231.885 400.473L233.768 403.555L236.029 406.638L238.289 409.721L241.303 412.418L244.317 415.5L247.707 418.198L251.098 421.28L254.865 423.978L262.399 429.758L277.845 441.703L293.291 453.648L308.737 465.978L316.271 471.758L323.806 477.538L331.34 483.318L338.875 488.712L346.409 493.722L353.567 498.731L361.101 503.355L368.259 507.593L375.417 511.447L379.184 513.373L382.575 514.915L386.342 516.456L389.733 517.997L393.5 519.153L396.89 520.309L400.658 521.465L404.048 522.236L407.439 523.006L411.206 523.777L414.596 524.162L417.987 524.548H421.754H425.145L428.535 524.162L431.926 523.777L435.316 523.006L438.707 522.236L442.097 521.465L445.488 520.309L449.255 518.768L452.646 517.227L456.036 515.685L459.427 514.144L466.208 510.291L473.366 506.052L480.523 501.813L487.681 497.19L495.216 492.951L502.75 488.712L506.518 486.4L510.661 484.474L514.805 482.547L518.949 481.006L523.093 479.465L527.614 477.923L531.758 476.382L536.279 475.226L540.8 474.07L545.32 473.299L549.841 472.529L554.362 471.758L558.506 471.373L563.026 470.987H567.547H571.691H576.212L580.356 471.373L584.5 471.758L588.267 472.529L592.034 473.299L595.801 474.455L599.192 475.611L602.583 476.767L605.596 478.309L608.61 480.235L611.247 482.162L613.884 484.088L616.145 486.4L618.028 488.712L619.912 491.41L621.796 494.107L623.302 497.19L624.809 500.272L625.939 503.355L626.693 506.437L627.823 509.905L628.577 513.759L628.953 517.227L629.33 521.08L629.707 525.318V529.172V533.41V537.649V542.273L629.33 546.511L628.577 551.135L628.2 555.759L627.446 560.383L626.693 565.392L625.939 570.402L625.186 575.025L623.302 585.429L620.665 595.448L618.405 606.237L615.768 616.641L613.131 627.43L607.103 649.008" stroke="#44355B" stroke-opacity="0.7" stroke-width="0.96" stroke-miterlimit="10" stroke-linecap="round" stroke-linejoin="round"/>
<path d="M-359.574 221.296L-346.389 220.525L-339.608 220.14H-333.203H-326.799L-323.409 220.525L-320.395 220.911L-317.004 221.681L-313.99 222.067L-310.977 222.837L-307.963 223.993L-304.949 225.149L-301.935 226.305L-298.921 227.461L-295.908 229.003L-293.271 230.544L-290.257 232.085L-287.62 234.012L-284.606 235.553L-281.969 237.48L-279.332 239.792L-274.058 244.03L-269.16 248.654L-264.263 254.049L-259.742 259.443L-255.598 264.838L-251.454 271.003L-247.687 276.783L-243.92 283.334L-240.906 289.884L-237.892 296.435L-234.878 302.985L-232.618 309.921L-230.357 316.857L-228.85 323.793L-227.344 330.729L-226.213 337.665L-225.46 344.6L-225.083 351.536V355.004L-225.46 358.472V361.555L-225.837 365.023L-226.213 368.491L-226.59 371.573L-227.344 375.041L-228.097 378.124L-228.85 381.206L-229.981 384.289L-231.111 387.372L-232.241 390.454L-233.371 393.537L-234.878 396.234L-236.385 399.317L-238.269 402.014L-241.659 407.409L-245.803 412.803L-249.947 417.812L-254.468 422.822L-258.989 428.216L-268.03 438.235L-272.551 443.244L-277.071 448.253L-281.215 453.262L-285.359 458.657L-289.127 464.437L-290.633 467.134L-292.14 469.831L-293.647 472.914L-295.154 475.997L-296.284 478.694L-297.415 482.162L-298.545 485.244L-299.298 488.327L-300.052 491.795L-300.428 494.878L-300.805 498.346L-301.182 501.814L-301.559 505.281V508.749L-301.182 512.217V515.685L-300.805 519.153L-300.428 522.621L-299.675 526.089L-299.298 529.557L-298.168 533.025L-297.415 536.108L-296.284 539.575L-295.154 543.043L-294.024 546.126L-292.517 549.594L-291.01 552.677L-289.503 555.759L-287.996 558.842L-286.113 561.924L-284.229 565.007L-282.346 567.704L-280.085 570.402L-277.825 573.099L-275.564 575.796L-273.304 578.108L-271.044 580.42L-268.407 582.732L-265.77 585.044L-263.133 586.971L-260.495 588.897L-257.858 590.824L-254.845 592.75L-252.207 594.292L-249.194 595.833L-246.18 597.374L-243.166 598.916L-240.152 600.072L-237.138 601.228L-233.748 601.998L-230.734 602.769L-227.72 603.54L-224.33 604.31L-221.316 604.696L-214.912 605.466L-208.507 605.852H-202.103L-195.322 605.466L-188.918 604.696L-182.137 603.925L-175.732 603.154L-168.951 601.613L-155.766 598.916L-142.58 595.833L-129.395 592.75L-103.778 586.971L-77.7836 580.805L-65.3517 578.108L-52.543 575.411L-39.7343 573.099L-26.9257 570.787L-14.117 568.86L-1.30833 567.319L11.5003 565.778L24.309 565.007L37.1177 564.622L50.3031 564.236H63.4884L76.6738 564.622L102.668 565.392" stroke="#44355B" stroke-opacity="0.7" stroke-width="0.96" stroke-miterlimit="10" stroke-linecap="round" stroke-linejoin="round"/>
</g>
</g>
<defs>
<clipPath id="clip0_137_242">
<rect width="1080" height="1920" fill="white"/>
</clipPath>
<clipPath id="clip1_137_242">
<rect width="1920" height="2937" fill="white" transform="translate(0 -30)"/>
</clipPath>
</defs>
</svg>
