<?xml version="1.0" encoding="utf-8"?>
<!-- Generator: Adobe Illustrator 24.0.1, SVG Export Plug-In . SVG Version: 6.00 Build 0)  -->
<svg version="1.1" id="Flat" xmlns="http://www.w3.org/2000/svg" xmlns:xlink="http://www.w3.org/1999/xlink" x="0px" y="0px"
	 viewBox="0 0 256 256" style="enable-background:new 0 0 256 256;" xml:space="preserve">
<style type="text/css">
	.st0{display:none;fill:none;stroke:#000000;stroke-width:3;}
</style>
<path d="M208,36H48c-6.6,0-12,5.4-12,12v160c0,6.6,5.4,12,12,12h150.2l0,0l0,0h9.8c6.6,0,12-5.4,12-12V48C220,41.4,214.6,36,208,36z
	 M201.3,212H48c-2.2,0-4-1.8-4-4V48c0-2.2,1.8-4,4-4h160c2.2,0,4,1.8,4,4v160c0,2.2-1.8,4-4,4H201.3"/>
<rect x="340.8" y="85.1" transform="matrix(-1 -1.224647e-16 1.224647e-16 -1 681.5333 170.1832)" width="0" height="0"/>
<g id="surface1">
	<path d="M192.9,187.2c-3.9,0-7.6-1.5-10.3-4.3c-2.7-2.7-4.3-6.5-4.3-10.3v-5.8c0-4.3-1.3-8.4-3.8-11.9c-2.5-3.5-5.9-6.1-9.9-7.5
		c5.9-3.3,10.9-8.1,14.3-13.9c3.4-5.8,5.3-12.5,5.3-19.3v-5.8c-0.1-7.2-2.1-14.2-5.9-20.3c1.9-5.5,2.6-11.4,2-17.2
		c-0.6-5.8-2.4-11.4-5.3-16.5c-0.3-0.4-0.6-0.8-1.1-1.1c-0.4-0.3-0.9-0.4-1.5-0.4c-6.6,0-13,1.6-18.9,4.6
		c-5.8,3.1-10.8,7.5-14.6,12.9h-20.4c-3.7-5.4-8.7-9.8-14.6-12.9c-5.8-3.1-12.3-4.6-18.9-4.6c-0.5,0-1,0.1-1.5,0.4
		c-0.4,0.3-0.8,0.6-1.1,1.1C79.8,59.4,78,65,77.5,70.8c-0.6,5.8,0.1,11.7,2,17.2c-3.8,6.1-5.8,13.1-5.9,20.3v5.8
		c0,6.8,1.8,13.5,5.3,19.3s8.4,10.7,14.3,13.9c-4,1.4-7.5,4-10,7.5c-2.5,3.5-3.8,7.6-3.8,11.9v5.8c0,3.9-1.5,7.6-4.3,10.3
		c-2.7,2.7-6.4,4.3-10.3,4.3c-0.8,0-1.5,0.3-2.1,0.9c-0.5,0.5-0.9,1.3-0.9,2.1c0,0.8,0.3,1.5,0.9,2.1c0.5,0.5,1.3,0.9,2.1,0.9
		c5.4,0,10.6-2.2,14.4-6c3.8-3.8,6-9,6-14.4v-5.8c0-3.9,1.5-7.6,4.3-10.3c2.7-2.7,6.4-4.3,10.3-4.3h11.6v32.1
		c0,3.9-1.5,7.6-4.3,10.3c-2.7,2.7-6.4,4.3-10.3,4.3c-0.8,0-1.5,0.3-2.1,0.9c-0.5,0.5-0.9,1.3-0.9,2.1c0,0.8,0.3,1.5,0.9,2.1
		c0.5,0.5,1.3,0.9,2.1,0.9c5.4,0,10.6-2.2,14.4-6c3.8-3.8,6-9,6-14.4v-32.1h23.3v32.1c0,5.4,2.2,10.6,6,14.4c3.8,3.8,9,6,14.4,6
		c0.8,0,1.5-0.3,2.1-0.9c0.5-0.5,0.9-1.3,0.9-2.1c0-0.8-0.3-1.5-0.9-2.1c-0.5-0.5-1.3-0.9-2.1-0.9c-3.9,0-7.6-1.5-10.3-4.3
		c-2.7-2.7-4.3-6.5-4.3-10.3v-32.1H158c3.9,0,7.6,1.5,10.3,4.3c2.7,2.7,4.3,6.5,4.3,10.3v5.8c0,5.4,2.2,10.6,6,14.4
		c3.8,3.8,9,6,14.4,6c0.8,0,1.5-0.3,2.1-0.9c0.5-0.5,0.9-1.3,0.9-2.1c0-0.8-0.3-1.5-0.9-2.1C194.4,187.5,193.6,187.2,192.9,187.2z
		 M79.4,114.2v-5.8c0.1-6.5,2-12.8,5.6-18.2c0.3-0.4,0.5-0.9,0.6-1.4c0.1-0.5,0-1-0.2-1.5c-1.8-4.6-2.6-9.5-2.3-14.5
		c0.3-4.9,1.6-9.8,3.8-14.1c5.6,0.3,11,1.9,15.8,4.7c4.8,2.8,8.9,6.7,11.9,11.5c0.3,0.4,0.6,0.8,1,1c0.4,0.2,0.9,0.4,1.4,0.4h23.5
		c0.5,0,1-0.1,1.4-0.4c0.4-0.2,0.8-0.6,1.1-1c3-4.7,7.1-8.7,11.9-11.5c4.8-2.8,10.3-4.4,15.8-4.7c2.3,4.4,3.6,9.2,3.8,14.1
		c0.3,4.9-0.5,9.9-2.3,14.5c-0.2,0.5-0.2,1-0.2,1.4c0.1,0.5,0.3,1,0.6,1.4c3.6,5.4,5.5,11.7,5.6,18.2v5.8c0,8.5-3.4,16.7-9.4,22.7
		c-6,6-14.1,9.4-22.6,9.4h-34.9c-8.5,0-16.6-3.4-22.6-9.4C82.8,130.9,79.5,122.7,79.4,114.2z"/>
</g>
<polygon class="st0" points="42.5,41.7 216.6,41.7 216.6,212 44,212 "/>
</svg>
